<mxfile host="app.diagrams.net" agent="Mozilla/5.0 (Windows NT 10.0; Win64; x64) AppleWebKit/537.36 (KHTML, like Gecko) Chrome/137.0.0.0 Safari/537.36" version="27.1.1">
  <diagram name="Page-1" id="kvSpXP5YtNpuujaqsHah">
    <mxGraphModel dx="1869" dy="1696" grid="1" gridSize="10" guides="1" tooltips="1" connect="1" arrows="1" fold="1" page="1" pageScale="1" pageWidth="827" pageHeight="1169" math="0" shadow="0">
      <root>
        <mxCell id="0" />
        <mxCell id="1" parent="0" />
        <UserObject label="" plantUmlData="{&quot;data&quot;:&quot;@startuml 紅樓慧讀系統架構圖\n\n!theme plain\nallowmixing\n\nskinparam backgroundColor white\nskinparam rectangle {\n    BackgroundColor lightblue\n    BorderColor black\n}\nskinparam database {\n    BackgroundColor lightcyan\n    BorderColor darkblue\n}\nskinparam cloud {\n    BackgroundColor lightyellow\n    BorderColor orange\n}\n\ntitle 紅樓慧讀系統架構圖 - 微服務版本\n\npackage \&quot;前端層\&quot; as frontend {\n    rectangle \&quot;訪客介紹頁面\&quot; as welcome_page\n    rectangle \&quot;登入註冊頁面\&quot; as auth_page  \n    rectangle \&quot;首頁儀表板\&quot; as dashboard\n    rectangle \&quot;問讀頁面\&quot; as reading_page\n    rectangle \&quot;AI智能問答頁面\&quot; as ai_qa_page\n    rectangle \&quot;成就系統頁面\&quot; as achievement_page\n    rectangle \&quot;討論互動社區頁面\&quot; as community_page\n    rectangle \&quot;人物關係圖譜頁面\&quot; as character_network_page\n    rectangle \&quot;個人設定頁面\&quot; as settings_page\n}\n\npackage \&quot;API Gateway層\&quot; as gateway_layer {\n    cloud \&quot;API Gateway\&quot; as api_gateway\n    rectangle \&quot;路由管理\&quot; as routing\n    rectangle \&quot;負載平衡\&quot; as load_balancer\n    rectangle \&quot;限流控制\&quot; as rate_limit\n    rectangle \&quot;CORS處理\&quot; as cors\n}\n\npackage \&quot;微服務層\&quot; as microservices {\n    \n    package \&quot;身份驗證服務\&quot; as auth_package {\n        rectangle \&quot;Authentication Service\&quot; as auth_service\n        database \&quot;Redis Session Store\&quot; as redis_session\n    }\n    \n    package \&quot;用戶管理服務\&quot; as user_package {\n        rectangle \&quot;User Management Service\&quot; as user_service\n        database \&quot;PostgreSQL User DB\&quot; as postgres_user\n    }\n    \n    package \&quot;學習服務\&quot; as learning_package {\n        rectangle \&quot;Learning Service\&quot; as learning_service\n        database \&quot;PostgreSQL Learning DB\&quot; as postgres_learning\n        database \&quot;Redis Learning Cache\&quot; as redis_learning\n    }\n    \n    package \&quot;內容管理服務\&quot; as content_package {\n        rectangle \&quot;Content Management Service\&quot; as content_service\n        database \&quot;PostgreSQL Content DB\&quot; as postgres_content\n        cloud \&quot;CDN Static Assets\&quot; as cdn\n    }\n    \n    package \&quot;AI問答服務\&quot; as rag_package {\n        rectangle \&quot;RAG Engine\&quot; as rag_service\n        database \&quot;Qdrant Vector DB\&quot; as qdrant\n        database \&quot;紅學知識庫\&quot; as knowledge_base\n        cloud \&quot;外部LLM API\&quot; as llm_api\n    }\n    \n    package \&quot;人物關係服務\&quot; as character_package {\n        rectangle \&quot;Character Service\&quot; as character_service\n        database \&quot;Neo4j Graph DB\&quot; as neo4j\n    }\n    \n    package \&quot;社群服務\&quot; as community_package {\n        rectangle \&quot;Community Service\&quot; as community_service\n        database \&quot;PostgreSQL Community DB\&quot; as postgres_community\n    }\n    \n    package \&quot;檔案管理服務\&quot; as file_package {\n        rectangle \&quot;File Management Service\&quot; as file_service\n        cloud \&quot;Cloud Storage\&quot; as cloud_storage\n    }\n    \n    package \&quot;通知服務\&quot; as notification_package {\n        rectangle \&quot;Notification Service\&quot; as notification_service\n        database \&quot;Message Queue\&quot; as message_queue\n    }\n}\n\npackage \&quot;外部服務\&quot; as external {\n    cloud \&quot;OAuth提供商\&quot; as oauth_providers\n    cloud \&quot;郵件服務\&quot; as email_service\n    cloud \&quot;推播服務\&quot; as push_service\n}\n\npackage \&quot;監控運維\&quot; as monitoring {\n    rectangle \&quot;監控系統\&quot; as monitoring_sys\n    rectangle \&quot;日誌系統\&quot; as logging_sys\n    rectangle \&quot;錯誤追蹤\&quot; as error_tracking\n}\n\n&#39; 前端頁面間的導航\nwelcome_page --&gt; auth_page\nauth_page --&gt; dashboard\ndashboard --&gt; reading_page\ndashboard --&gt; ai_qa_page\ndashboard --&gt; achievement_page\ndashboard --&gt; community_page\ndashboard --&gt; character_network_page\ndashboard --&gt; settings_page\n\n&#39; API Gateway內部組件\napi_gateway --&gt; routing\napi_gateway --&gt; load_balancer\napi_gateway --&gt; rate_limit\napi_gateway --&gt; cors\n\n&#39; 前端到API Gateway\ndashboard --&gt; api_gateway\nreading_page --&gt; api_gateway\nai_qa_page --&gt; api_gateway\nachievement_page --&gt; api_gateway\ncommunity_page --&gt; api_gateway\ncharacter_network_page --&gt; api_gateway\nauth_page --&gt; api_gateway\nsettings_page --&gt; api_gateway\n\n&#39; API Gateway到微服務\napi_gateway --&gt; auth_service\napi_gateway --&gt; user_service\napi_gateway --&gt; learning_service\napi_gateway --&gt; content_service\napi_gateway --&gt; rag_service\napi_gateway --&gt; character_service\napi_gateway --&gt; community_service\napi_gateway --&gt; file_service\n\n&#39; 微服務與資料庫連接\nauth_service --&gt; redis_session\nuser_service --&gt; postgres_user\nlearning_service --&gt; postgres_learning\nlearning_service --&gt; redis_learning\ncontent_service --&gt; postgres_content\ncontent_service --&gt; cdn\nrag_service --&gt; qdrant\nrag_service --&gt; knowledge_base\nrag_service --&gt; llm_api\ncharacter_service --&gt; neo4j\ncommunity_service --&gt; postgres_community\nfile_service --&gt; cloud_storage\nnotification_service --&gt; message_queue\n\n&#39; 微服務間的依賴關係\nauth_service ..&gt; user_service : 身份驗證\nlearning_service ..&gt; user_service : 用戶資料\nlearning_service ..&gt; content_service : 章節內容\nrag_service ..&gt; content_service : 文本內容\nrag_service ..&gt; character_service : 人物關係\ncommunity_service ..&gt; user_service : 用戶資料\nnotification_service ..&gt; user_service : 通知設定\n\n&#39; 外部服務連接\nauth_service --&gt; oauth_providers\nnotification_service --&gt; email_service\nnotification_service --&gt; push_service\n\n&#39; 監控連接\nmonitoring_sys ..&gt; auth_service\nmonitoring_sys ..&gt; user_service\nmonitoring_sys ..&gt; learning_service\nmonitoring_sys ..&gt; content_service\nmonitoring_sys ..&gt; rag_service\nmonitoring_sys ..&gt; character_service\nmonitoring_sys ..&gt; community_service\nmonitoring_sys ..&gt; file_service\n\nlogging_sys ..&gt; auth_service\nlogging_sys ..&gt; user_service\nlogging_sys ..&gt; learning_service\nlogging_sys ..&gt; content_service\nlogging_sys ..&gt; rag_service\nlogging_sys ..&gt; character_service\nlogging_sys ..&gt; community_service\nlogging_sys ..&gt; file_service\n\n@enduml&quot;,&quot;format&quot;:&quot;svg&quot;}" id="hVJc5ccS2RghskgDRZyA-1">
          <mxCell style="shape=image;noLabel=1;verticalAlign=top;aspect=fixed;imageAspect=0;image=data:image/svg+xml,PHN2ZyB4bWxucz0iaHR0cDovL3d3dy53My5vcmcvMjAwMC9zdmciIHhtbG5zOnhsaW5rPSJodHRwOi8vd3d3LnczLm9yZy8xOTk5L3hsaW5rIiBjb250ZW50U3R5bGVUeXBlPSJ0ZXh0L2NzcyIgZGF0YS1kaWFncmFtLXR5cGU9IkNMQVNTIiBoZWlnaHQ9Ijk5MHB4IiBwcmVzZXJ2ZUFzcGVjdFJhdGlvPSJub25lIiBzdHlsZT0id2lkdGg6MzgwMXB4O2hlaWdodDo5OTBweDtiYWNrZ3JvdW5kOiNGRkZGRkY7IiB2ZXJzaW9uPSIxLjEiIHZpZXdCb3g9IjAgMCAzODAxIDk5MCIgd2lkdGg9IjM4MDFweCIgem9vbUFuZFBhbj0ibWFnbmlmeSI+PHRpdGxlPiYjMzIwMDU7JiMyNzE1NTsmIzI0OTM1OyYjMzU3MTI7JiMzMTk5NTsmIzMyMTEzOyYjMjY1NTA7JiMyNzA4MzsmIzIyMjk0OyAtICYjMjQ0OTQ7JiMyNjM4MTsmIzIxMjA5OyYjMjkyNTY7JiMyNjQxMjs8L3RpdGxlPjxkZWZzLz48Zz48dGV4dCBmaWxsPSIjMDAwMDAwIiBmb250LWZhbWlseT0iVmVyZGFuYSIgZm9udC1zaXplPSIyMiIgZm9udC13ZWlnaHQ9ImJvbGQiIGxlbmd0aEFkanVzdD0ic3BhY2luZyIgdGV4dExlbmd0aD0iMzQxIiB4PSIxNzI1Ljg4NSIgeT0iMzUuNzk2OSI+JiMzMjAwNTsmIzI3MTU1OyYjMjQ5MzU7JiMzNTcxMjsmIzMxOTk1OyYjMzIxMTM7JiMyNjU1MDsmIzI3MDgzOyYjMjIyOTQ7IC0gJiMyNDQ5NDsmIzI2MzgxOyYjMjEyMDk7JiMyOTI1NjsmIzI2NDEyOzwvdGV4dD48IS0tY2x1c3RlciBmcm9udGVuZC0tPjxnIGNsYXNzPSJjbHVzdGVyIiBkYXRhLWVudGl0eT0iZnJvbnRlbmQiIGRhdGEtc291cmNlLWxpbmU9IjIwIiBkYXRhLXVpZD0iZW50MDAwMiIgaWQ9ImNsdXN0ZXJfZnJvbnRlbmQiPjxwYXRoIGQ9Ik0xMjMuODQsNTUuNTQ2OSBMMTY2Ljg0LDU1LjU0NjkgQTMuNzUsMy43NSAwIDAgMSAxNjkuMzQsNTguMDQ2OSBMMTc2LjM0LDc2LjUzMTMgTDk5MS44NCw3Ni41MzEzIEEyLjUsMi41IDAgMCAxIDk5NC4zNCw3OS4wMzEzIEw5OTQuMzQsNDI1LjA0NjkgQTIuNSwyLjUgMCAwIDEgOTkxLjg0LDQyNy41NDY5IEwxMjMuODQsNDI3LjU0NjkgQTIuNSwyLjUgMCAwIDEgMTIxLjM0LDQyNS4wNDY5IEwxMjEuMzQsNTguMDQ2OSBBMi41LDIuNSAwIDAgMSAxMjMuODQsNTUuNTQ2OSIgZmlsbD0iI0ZGRkZGRiIgc3R5bGU9InN0cm9rZTojMDAwMDAwO3N0cm9rZS13aWR0aDoxOyIvPjxsaW5lIHN0eWxlPSJzdHJva2U6IzAwMDAwMDtzdHJva2Utd2lkdGg6MTsiIHgxPSIxMjEuMzQiIHgyPSIxNzYuMzQiIHkxPSI3Ni41MzEzIiB5Mj0iNzYuNTMxMyIvPjx0ZXh0IGZpbGw9IiMwMDAwMDAiIGZvbnQtZmFtaWx5PSJWZXJkYW5hIiBmb250LXNpemU9IjE0IiBmb250LXdlaWdodD0iYm9sZCIgbGVuZ3RoQWRqdXN0PSJzcGFjaW5nIiB0ZXh0TGVuZ3RoPSI0MiIgeD0iMTI1LjM0IiB5PSI3MC43ODEzIj4mIzIxMDY5OyYjMzE0NzE7JiMyMzY1Mjs8L3RleHQ+PC9nPjwhLS1jbHVzdGVyIGdhdGV3YXlfbGF5ZXItLT48ZyBjbGFzcz0iY2x1c3RlciIgZGF0YS1lbnRpdHk9ImdhdGV3YXlfbGF5ZXIiIGRhdGEtc291cmNlLWxpbmU9IjMyIiBkYXRhLXVpZD0iZW50MDAxMiIgaWQ9ImNsdXN0ZXJfZ2F0ZXdheV9sYXllciI+PHBhdGggZD0iTTE5My44NCw0NjAuNTQ2OSBMMjg1Ljg0LDQ2MC41NDY5IEEzLjc1LDMuNzUgMCAwIDEgMjg4LjM0LDQ2My4wNDY5IEwyOTUuMzQsNDgxLjUzMTMgTDYyOS44NCw0ODEuNTMxMyBBMi41LDIuNSAwIDAgMSA2MzIuMzQsNDg0LjAzMTMgTDYzMi4zNCw3MDguMDQ2OSBBMi41LDIuNSAwIDAgMSA2MjkuODQsNzEwLjU0NjkgTDE5My44NCw3MTAuNTQ2OSBBMi41LDIuNSAwIDAgMSAxOTEuMzQsNzA4LjA0NjkgTDE5MS4zNCw0NjMuMDQ2OSBBMi41LDIuNSAwIDAgMSAxOTMuODQsNDYwLjU0NjkiIGZpbGw9IiNGRkZGRkYiIHN0eWxlPSJzdHJva2U6IzAwMDAwMDtzdHJva2Utd2lkdGg6MTsiLz48bGluZSBzdHlsZT0ic3Ryb2tlOiMwMDAwMDA7c3Ryb2tlLXdpZHRoOjE7IiB4MT0iMTkxLjM0IiB4Mj0iMjk1LjM0IiB5MT0iNDgxLjUzMTMiIHkyPSI0ODEuNTMxMyIvPjx0ZXh0IGZpbGw9IiMwMDAwMDAiIGZvbnQtZmFtaWx5PSJWZXJkYW5hIiBmb250LXNpemU9IjE0IiBmb250LXdlaWdodD0iYm9sZCIgbGVuZ3RoQWRqdXN0PSJzcGFjaW5nIiB0ZXh0TGVuZ3RoPSI5MSIgeD0iMTk1LjM0IiB5PSI0NzUuNzgxMyI+QVBJIEdhdGV3YXkmIzIzNjUyOzwvdGV4dD48L2c+PCEtLWNsdXN0ZXIgbWljcm9zZXJ2aWNlcy0tPjxnIGNsYXNzPSJjbHVzdGVyIiBkYXRhLWVudGl0eT0ibWljcm9zZXJ2aWNlcyIgZGF0YS1zb3VyY2UtbGluZT0iNDAiIGRhdGEtdWlkPSJlbnQwMDE4IiBpZD0iY2x1c3Rlcl9taWNyb3NlcnZpY2VzIj48cGF0aCBkPSJNNzU1Ljg0LDU4NS41NDY5IEw4MTIuODQsNTg1LjU0NjkgQTMuNzUsMy43NSAwIDAgMSA4MTUuMzQsNTg4LjA0NjkgTDgyMi4zNCw2MDYuNTMxMyBMMzYwNy44NCw2MDYuNTMxMyBBMi41LDIuNSAwIDAgMSAzNjEwLjM0LDYwOS4wMzEzIEwzNjEwLjM0LDk4MS4wNDY5IEEyLjUsMi41IDAgMCAxIDM2MDcuODQsOTgzLjU0NjkgTDc1NS44NCw5ODMuNTQ2OSBBMi41LDIuNSAwIDAgMSA3NTMuMzQsOTgxLjA0NjkgTDc1My4zNCw1ODguMDQ2OSBBMi41LDIuNSAwIDAgMSA3NTUuODQsNTg1LjU0NjkiIGZpbGw9IiNGRkZGRkYiIHN0eWxlPSJzdHJva2U6IzAwMDAwMDtzdHJva2Utd2lkdGg6MTsiLz48bGluZSBzdHlsZT0ic3Ryb2tlOiMwMDAwMDA7c3Ryb2tlLXdpZHRoOjE7IiB4MT0iNzUzLjM0IiB4Mj0iODIyLjM0IiB5MT0iNjA2LjUzMTMiIHkyPSI2MDYuNTMxMyIvPjx0ZXh0IGZpbGw9IiMwMDAwMDAiIGZvbnQtZmFtaWx5PSJWZXJkYW5hIiBmb250LXNpemU9IjE0IiBmb250LXdlaWdodD0iYm9sZCIgbGVuZ3RoQWRqdXN0PSJzcGFjaW5nIiB0ZXh0TGVuZ3RoPSI1NiIgeD0iNzU3LjM0IiB5PSI2MDAuNzgxMyI+JiMyNDQ5NDsmIzI2MzgxOyYjMjEyMDk7JiMyMzY1Mjs8L3RleHQ+PC9nPjwhLS1jbHVzdGVyIGF1dGhfcGFja2FnZS0tPjxnIGNsYXNzPSJjbHVzdGVyIiBkYXRhLWVudGl0eT0iYXV0aF9wYWNrYWdlIiBkYXRhLXNvdXJjZS1saW5lPSI0MiIgZGF0YS11aWQ9ImVudDAwMTkiIGlkPSJjbHVzdGVyX2F1dGhfcGFja2FnZSI+PHBhdGggZD0iTTk5NS44NCw2MjYuNTQ2OSBMMTA4MC44NCw2MjYuNTQ2OSBBMy43NSwzLjc1IDAgMCAxIDEwODMuMzQsNjI5LjA0NjkgTDEwOTAuMzQsNjQ3LjUzMTMgTDExOTYuODQsNjQ3LjUzMTMgQTIuNSwyLjUgMCAwIDEgMTE5OS4zNCw2NTAuMDMxMyBMMTE5OS4zNCw4NDguNTQ2OSBBMi41LDIuNSAwIDAgMSAxMTk2Ljg0LDg1MS4wNDY5IEw5OTUuODQsODUxLjA0NjkgQTIuNSwyLjUgMCAwIDEgOTkzLjM0LDg0OC41NDY5IEw5OTMuMzQsNjI5LjA0NjkgQTIuNSwyLjUgMCAwIDEgOTk1Ljg0LDYyNi41NDY5IiBmaWxsPSIjRkZGRkZGIiBzdHlsZT0ic3Ryb2tlOiMwMDAwMDA7c3Ryb2tlLXdpZHRoOjE7Ii8+PGxpbmUgc3R5bGU9InN0cm9rZTojMDAwMDAwO3N0cm9rZS13aWR0aDoxOyIgeDE9Ijk5My4zNCIgeDI9IjEwOTAuMzQiIHkxPSI2NDcuNTMxMyIgeTI9IjY0Ny41MzEzIi8+PHRleHQgZmlsbD0iIzAwMDAwMCIgZm9udC1mYW1pbHk9IlZlcmRhbmEiIGZvbnQtc2l6ZT0iMTQiIGZvbnQtd2VpZ2h0PSJib2xkIiBsZW5ndGhBZGp1c3Q9InNwYWNpbmciIHRleHRMZW5ndGg9Ijg0IiB4PSI5OTcuMzQiIHk9IjY0MS43ODEzIj4mIzM2NTIzOyYjMjAyMjE7JiMzOTUxMTsmIzM1NjU3OyYjMjYzODE7JiMyMTIwOTs8L3RleHQ+PC9nPjwhLS1jbHVzdGVyIHVzZXJfcGFja2FnZS0tPjxnIGNsYXNzPSJjbHVzdGVyIiBkYXRhLWVudGl0eT0idXNlcl9wYWNrYWdlIiBkYXRhLXNvdXJjZS1saW5lPSI0NyIgZGF0YS11aWQ9ImVudDAwMjIiIGlkPSJjbHVzdGVyX3VzZXJfcGFja2FnZSI+PHBhdGggZD0iTTEyMjUuODQsNzYyLjU0NjkgTDEzMTAuODQsNzYyLjU0NjkgQTMuNzUsMy43NSAwIDAgMSAxMzEzLjM0LDc2NS4wNDY5IEwxMzIwLjM0LDc4My41MzEzIEwxNDM0Ljg0LDc4My41MzEzIEEyLjUsMi41IDAgMCAxIDE0MzcuMzQsNzg2LjAzMTMgTDE0MzcuMzQsOTU2LjU0NjkgQTIuNSwyLjUgMCAwIDEgMTQzNC44NCw5NTkuMDQ2OSBMMTIyNS44NCw5NTkuMDQ2OSBBMi41LDIuNSAwIDAgMSAxMjIzLjM0LDk1Ni41NDY5IEwxMjIzLjM0LDc2NS4wNDY5IEEyLjUsMi41IDAgMCAxIDEyMjUuODQsNzYyLjU0NjkiIGZpbGw9IiNGRkZGRkYiIHN0eWxlPSJzdHJva2U6IzAwMDAwMDtzdHJva2Utd2lkdGg6MTsiLz48bGluZSBzdHlsZT0ic3Ryb2tlOiMwMDAwMDA7c3Ryb2tlLXdpZHRoOjE7IiB4MT0iMTIyMy4zNCIgeDI9IjEzMjAuMzQiIHkxPSI3ODMuNTMxMyIgeTI9Ijc4My41MzEzIi8+PHRleHQgZmlsbD0iIzAwMDAwMCIgZm9udC1mYW1pbHk9IlZlcmRhbmEiIGZvbnQtc2l6ZT0iMTQiIGZvbnQtd2VpZ2h0PSJib2xkIiBsZW5ndGhBZGp1c3Q9InNwYWNpbmciIHRleHRMZW5ndGg9Ijg0IiB4PSIxMjI3LjM0IiB5PSI3NzcuNzgxMyI+JiMyOTk5MjsmIzI1MTQyOyYjMzE2NDk7JiMyOTcwMjsmIzI2MzgxOyYjMjEyMDk7PC90ZXh0PjwvZz48IS0tY2x1c3RlciBsZWFybmluZ19wYWNrYWdlLS0+PGcgY2xhc3M9ImNsdXN0ZXIiIGRhdGEtZW50aXR5PSJsZWFybmluZ19wYWNrYWdlIiBkYXRhLXNvdXJjZS1saW5lPSI1MiIgZGF0YS11aWQ9ImVudDAwMjUiIGlkPSJjbHVzdGVyX2xlYXJuaW5nX3BhY2thZ2UiPjxwYXRoIGQ9Ik0xNDYzLjg0LDYyNi41NDY5IEwxNTIwLjg0LDYyNi41NDY5IEEzLjc1LDMuNzUgMCAwIDEgMTUyMy4zNCw2MjkuMDQ2OSBMMTUzMC4zNCw2NDcuNTMxMyBMMTg1OS44NCw2NDcuNTMxMyBBMi41LDIuNSAwIDAgMSAxODYyLjM0LDY1MC4wMzEzIEwxODYyLjM0LDg0OC41NDY5IEEyLjUsMi41IDAgMCAxIDE4NTkuODQsODUxLjA0NjkgTDE0NjMuODQsODUxLjA0NjkgQTIuNSwyLjUgMCAwIDEgMTQ2MS4zNCw4NDguNTQ2OSBMMTQ2MS4zNCw2MjkuMDQ2OSBBMi41LDIuNSAwIDAgMSAxNDYzLjg0LDYyNi41NDY5IiBmaWxsPSIjRkZGRkZGIiBzdHlsZT0ic3Ryb2tlOiMwMDAwMDA7c3Ryb2tlLXdpZHRoOjE7Ii8+PGxpbmUgc3R5bGU9InN0cm9rZTojMDAwMDAwO3N0cm9rZS13aWR0aDoxOyIgeDE9IjE0NjEuMzQiIHgyPSIxNTMwLjM0IiB5MT0iNjQ3LjUzMTMiIHkyPSI2NDcuNTMxMyIvPjx0ZXh0IGZpbGw9IiMwMDAwMDAiIGZvbnQtZmFtaWx5PSJWZXJkYW5hIiBmb250LXNpemU9IjE0IiBmb250LXdlaWdodD0iYm9sZCIgbGVuZ3RoQWRqdXN0PSJzcGFjaW5nIiB0ZXh0TGVuZ3RoPSI1NiIgeD0iMTQ2NS4zNCIgeT0iNjQxLjc4MTMiPiYjMjM0MTY7JiMzMjcyMjsmIzI2MzgxOyYjMjEyMDk7PC90ZXh0PjwvZz48IS0tY2x1c3RlciBjb250ZW50X3BhY2thZ2UtLT48ZyBjbGFzcz0iY2x1c3RlciIgZGF0YS1lbnRpdHk9ImNvbnRlbnRfcGFja2FnZSIgZGF0YS1zb3VyY2UtbGluZT0iNTgiIGRhdGEtdWlkPSJlbnQwMDI5IiBpZD0iY2x1c3Rlcl9jb250ZW50X3BhY2thZ2UiPjxwYXRoIGQ9Ik0xODg4Ljg0LDc2Mi41NDY5IEwxOTczLjg0LDc2Mi41NDY5IEEzLjc1LDMuNzUgMCAwIDEgMTk3Ni4zNCw3NjUuMDQ2OSBMMTk4My4zNCw3ODMuNTMxMyBMMjI2NS44NCw3ODMuNTMxMyBBMi41LDIuNSAwIDAgMSAyMjY4LjM0LDc4Ni4wMzEzIEwyMjY4LjM0LDk1Ny4wNDY5IEEyLjUsMi41IDAgMCAxIDIyNjUuODQsOTU5LjU0NjkgTDE4ODguODQsOTU5LjU0NjkgQTIuNSwyLjUgMCAwIDEgMTg4Ni4zNCw5NTcuMDQ2OSBMMTg4Ni4zNCw3NjUuMDQ2OSBBMi41LDIuNSAwIDAgMSAxODg4Ljg0LDc2Mi41NDY5IiBmaWxsPSIjRkZGRkZGIiBzdHlsZT0ic3Ryb2tlOiMwMDAwMDA7c3Ryb2tlLXdpZHRoOjE7Ii8+PGxpbmUgc3R5bGU9InN0cm9rZTojMDAwMDAwO3N0cm9rZS13aWR0aDoxOyIgeDE9IjE4ODYuMzQiIHgyPSIxOTgzLjM0IiB5MT0iNzgzLjUzMTMiIHkyPSI3ODMuNTMxMyIvPjx0ZXh0IGZpbGw9IiMwMDAwMDAiIGZvbnQtZmFtaWx5PSJWZXJkYW5hIiBmb250LXNpemU9IjE0IiBmb250LXdlaWdodD0iYm9sZCIgbGVuZ3RoQWRqdXN0PSJzcGFjaW5nIiB0ZXh0TGVuZ3RoPSI4NCIgeD0iMTg5MC4zNCIgeT0iNzc3Ljc4MTMiPiYjMjA4Mzk7JiMyMzQ4MTsmIzMxNjQ5OyYjMjk3MDI7JiMyNjM4MTsmIzIxMjA5OzwvdGV4dD48L2c+PCEtLWNsdXN0ZXIgcmFnX3BhY2thZ2UtLT48ZyBjbGFzcz0iY2x1c3RlciIgZGF0YS1lbnRpdHk9InJhZ19wYWNrYWdlIiBkYXRhLXNvdXJjZS1saW5lPSI2NCIgZGF0YS11aWQ9ImVudDAwMzMiIGlkPSJjbHVzdGVyX3JhZ19wYWNrYWdlIj48cGF0aCBkPSJNMjI5NC44NCw2MjYuNTQ2OSBMMjM2NS44NCw2MjYuNTQ2OSBBMy43NSwzLjc1IDAgMCAxIDIzNjguMzQsNjI5LjA0NjkgTDIzNzUuMzQsNjQ3LjUzMTMgTDI3MjAuODQsNjQ3LjUzMTMgQTIuNSwyLjUgMCAwIDEgMjcyMy4zNCw2NTAuMDMxMyBMMjcyMy4zNCw4NDkuMDQ2OSBBMi41LDIuNSAwIDAgMSAyNzIwLjg0LDg1MS41NDY5IEwyMjk0Ljg0LDg1MS41NDY5IEEyLjUsMi41IDAgMCAxIDIyOTIuMzQsODQ5LjA0NjkgTDIyOTIuMzQsNjI5LjA0NjkgQTIuNSwyLjUgMCAwIDEgMjI5NC44NCw2MjYuNTQ2OSIgZmlsbD0iI0ZGRkZGRiIgc3R5bGU9InN0cm9rZTojMDAwMDAwO3N0cm9rZS13aWR0aDoxOyIvPjxsaW5lIHN0eWxlPSJzdHJva2U6IzAwMDAwMDtzdHJva2Utd2lkdGg6MTsiIHgxPSIyMjkyLjM0IiB4Mj0iMjM3NS4zNCIgeTE9IjY0Ny41MzEzIiB5Mj0iNjQ3LjUzMTMiLz48dGV4dCBmaWxsPSIjMDAwMDAwIiBmb250LWZhbWlseT0iVmVyZGFuYSIgZm9udC1zaXplPSIxNCIgZm9udC13ZWlnaHQ9ImJvbGQiIGxlbmd0aEFkanVzdD0ic3BhY2luZyIgdGV4dExlbmd0aD0iNzAiIHg9IjIyOTYuMzQiIHk9IjY0MS43ODEzIj5BSSYjMjE4Mzk7JiMzMTU3MjsmIzI2MzgxOyYjMjEyMDk7PC90ZXh0PjwvZz48IS0tY2x1c3RlciBjaGFyYWN0ZXJfcGFja2FnZS0tPjxnIGNsYXNzPSJjbHVzdGVyIiBkYXRhLWVudGl0eT0iY2hhcmFjdGVyX3BhY2thZ2UiIGRhdGEtc291cmNlLWxpbmU9IjcxIiBkYXRhLXVpZD0iZW50MDAzOCIgaWQ9ImNsdXN0ZXJfY2hhcmFjdGVyX3BhY2thZ2UiPjxwYXRoIGQ9Ik0zNDE2Ljg0LDc2Mi41NDY5IEwzNTAxLjg0LDc2Mi41NDY5IEEzLjc1LDMuNzUgMCAwIDEgMzUwNC4zNCw3NjUuMDQ2OSBMMzUxMS4zNCw3ODMuNTMxMyBMMzU4My44NCw3ODMuNTMxMyBBMi41LDIuNSAwIDAgMSAzNTg2LjM0LDc4Ni4wMzEzIEwzNTg2LjM0LDk1Ni41NDY5IEEyLjUsMi41IDAgMCAxIDM1ODMuODQsOTU5LjA0NjkgTDM0MTYuODQsOTU5LjA0NjkgQTIuNSwyLjUgMCAwIDEgMzQxNC4zNCw5NTYuNTQ2OSBMMzQxNC4zNCw3NjUuMDQ2OSBBMi41LDIuNSAwIDAgMSAzNDE2Ljg0LDc2Mi41NDY5IiBmaWxsPSIjRkZGRkZGIiBzdHlsZT0ic3Ryb2tlOiMwMDAwMDA7c3Ryb2tlLXdpZHRoOjE7Ii8+PGxpbmUgc3R5bGU9InN0cm9rZTojMDAwMDAwO3N0cm9rZS13aWR0aDoxOyIgeDE9IjM0MTQuMzQiIHgyPSIzNTExLjM0IiB5MT0iNzgzLjUzMTMiIHkyPSI3ODMuNTMxMyIvPjx0ZXh0IGZpbGw9IiMwMDAwMDAiIGZvbnQtZmFtaWx5PSJWZXJkYW5hIiBmb250LXNpemU9IjE0IiBmb250LXdlaWdodD0iYm9sZCIgbGVuZ3RoQWRqdXN0PSJzcGFjaW5nIiB0ZXh0TGVuZ3RoPSI4NCIgeD0iMzQxOC4zNCIgeT0iNzc3Ljc4MTMiPiYjMjAxNTQ7JiMyOTI4OTsmIzM4MzY0OyYjMjA0MTg7JiMyNjM4MTsmIzIxMjA5OzwvdGV4dD48L2c+PCEtLWNsdXN0ZXIgY29tbXVuaXR5X3BhY2thZ2UtLT48ZyBjbGFzcz0iY2x1c3RlciIgZGF0YS1lbnRpdHk9ImNvbW11bml0eV9wYWNrYWdlIiBkYXRhLXNvdXJjZS1saW5lPSI3NiIgZGF0YS11aWQ9ImVudDAwNDEiIGlkPSJjbHVzdGVyX2NvbW11bml0eV9wYWNrYWdlIj48cGF0aCBkPSJNMjk0MC44NCw2MjYuNTQ2OSBMMjk5Ny44NCw2MjYuNTQ2OSBBMy43NSwzLjc1IDAgMCAxIDMwMDAuMzQsNjI5LjA0NjkgTDMwMDcuMzQsNjQ3LjUzMTMgTDMxNDkuODQsNjQ3LjUzMTMgQTIuNSwyLjUgMCAwIDEgMzE1Mi4zNCw2NTAuMDMxMyBMMzE1Mi4zNCw4NDguNTQ2OSBBMi41LDIuNSAwIDAgMSAzMTQ5Ljg0LDg1MS4wNDY5IEwyOTQwLjg0LDg1MS4wNDY5IEEyLjUsMi41IDAgMCAxIDI5MzguMzQsODQ4LjU0NjkgTDI5MzguMzQsNjI5LjA0NjkgQTIuNSwyLjUgMCAwIDEgMjk0MC44NCw2MjYuNTQ2OSIgZmlsbD0iI0ZGRkZGRiIgc3R5bGU9InN0cm9rZTojMDAwMDAwO3N0cm9rZS13aWR0aDoxOyIvPjxsaW5lIHN0eWxlPSJzdHJva2U6IzAwMDAwMDtzdHJva2Utd2lkdGg6MTsiIHgxPSIyOTM4LjM0IiB4Mj0iMzAwNy4zNCIgeTE9IjY0Ny41MzEzIiB5Mj0iNjQ3LjUzMTMiLz48dGV4dCBmaWxsPSIjMDAwMDAwIiBmb250LWZhbWlseT0iVmVyZGFuYSIgZm9udC1zaXplPSIxNCIgZm9udC13ZWlnaHQ9ImJvbGQiIGxlbmd0aEFkanVzdD0ic3BhY2luZyIgdGV4dExlbmd0aD0iNTYiIHg9IjI5NDIuMzQiIHk9IjY0MS43ODEzIj4mIzMxMDM4OyYjMzI2NzY7JiMyNjM4MTsmIzIxMjA5OzwvdGV4dD48L2c+PCEtLWNsdXN0ZXIgZmlsZV9wYWNrYWdlLS0+PGcgY2xhc3M9ImNsdXN0ZXIiIGRhdGEtZW50aXR5PSJmaWxlX3BhY2thZ2UiIGRhdGEtc291cmNlLWxpbmU9IjgxIiBkYXRhLXVpZD0iZW50MDA0NCIgaWQ9ImNsdXN0ZXJfZmlsZV9wYWNrYWdlIj48cGF0aCBkPSJNMzE3OC44NCw2MjYuNTQ2OSBMMzI2My44NCw2MjYuNTQ2OSBBMy43NSwzLjc1IDAgMCAxIDMyNjYuMzQsNjI5LjA0NjkgTDMyNzMuMzQsNjQ3LjUzMTMgTDMzODcuODQsNjQ3LjUzMTMgQTIuNSwyLjUgMCAwIDEgMzM5MC4zNCw2NTAuMDMxMyBMMzM5MC4zNCw4NDkuMDQ2OSBBMi41LDIuNSAwIDAgMSAzMzg3Ljg0LDg1MS41NDY5IEwzMTc4Ljg0LDg1MS41NDY5IEEyLjUsMi41IDAgMCAxIDMxNzYuMzQsODQ5LjA0NjkgTDMxNzYuMzQsNjI5LjA0NjkgQTIuNSwyLjUgMCAwIDEgMzE3OC44NCw2MjYuNTQ2OSIgZmlsbD0iI0ZGRkZGRiIgc3R5bGU9InN0cm9rZTojMDAwMDAwO3N0cm9rZS13aWR0aDoxOyIvPjxsaW5lIHN0eWxlPSJzdHJva2U6IzAwMDAwMDtzdHJva2Utd2lkdGg6MTsiIHgxPSIzMTc2LjM0IiB4Mj0iMzI3My4zNCIgeTE9IjY0Ny41MzEzIiB5Mj0iNjQ3LjUzMTMiLz48dGV4dCBmaWxsPSIjMDAwMDAwIiBmb250LWZhbWlseT0iVmVyZGFuYSIgZm9udC1zaXplPSIxNCIgZm9udC13ZWlnaHQ9ImJvbGQiIGxlbmd0aEFkanVzdD0ic3BhY2luZyIgdGV4dExlbmd0aD0iODQiIHg9IjMxODAuMzQiIHk9IjY0MS43ODEzIj4mIzI3Mjg0OyYjMjY2OTY7JiMzMTY0OTsmIzI5NzAyOyYjMjYzODE7JiMyMTIwOTs8L3RleHQ+PC9nPjwhLS1jbHVzdGVyIG5vdGlmaWNhdGlvbl9wYWNrYWdlLS0+PGcgY2xhc3M9ImNsdXN0ZXIiIGRhdGEtZW50aXR5PSJub3RpZmljYXRpb25fcGFja2FnZSIgZGF0YS1zb3VyY2UtbGluZT0iODYiIGRhdGEtdWlkPSJlbnQwMDQ3IiBpZD0iY2x1c3Rlcl9ub3RpZmljYXRpb25fcGFja2FnZSI+PHBhdGggZD0iTTc3OS44NCw2MjYuNTQ2OSBMODM2Ljg0LDYyNi41NDY5IEEzLjc1LDMuNzUgMCAwIDEgODM5LjM0LDYyOS4wNDY5IEw4NDYuMzQsNjQ3LjUzMTMgTDk2Ni44NCw2NDcuNTMxMyBBMi41LDIuNSAwIDAgMSA5NjkuMzQsNjUwLjAzMTMgTDk2OS4zNCw4NDguNTQ2OSBBMi41LDIuNSAwIDAgMSA5NjYuODQsODUxLjA0NjkgTDc3OS44NCw4NTEuMDQ2OSBBMi41LDIuNSAwIDAgMSA3NzcuMzQsODQ4LjU0NjkgTDc3Ny4zNCw2MjkuMDQ2OSBBMi41LDIuNSAwIDAgMSA3NzkuODQsNjI2LjU0NjkiIGZpbGw9IiNGRkZGRkYiIHN0eWxlPSJzdHJva2U6IzAwMDAwMDtzdHJva2Utd2lkdGg6MTsiLz48bGluZSBzdHlsZT0ic3Ryb2tlOiMwMDAwMDA7c3Ryb2tlLXdpZHRoOjE7IiB4MT0iNzc3LjM0IiB4Mj0iODQ2LjM0IiB5MT0iNjQ3LjUzMTMiIHkyPSI2NDcuNTMxMyIvPjx0ZXh0IGZpbGw9IiMwMDAwMDAiIGZvbnQtZmFtaWx5PSJWZXJkYW5hIiBmb250LXNpemU9IjE0IiBmb250LXdlaWdodD0iYm9sZCIgbGVuZ3RoQWRqdXN0PSJzcGFjaW5nIiB0ZXh0TGVuZ3RoPSI1NiIgeD0iNzgxLjM0IiB5PSI2NDEuNzgxMyI+JiMzNjg5MDsmIzMwNjkzOyYjMjYzODE7JiMyMTIwOTs8L3RleHQ+PC9nPjwhLS1jbHVzdGVyIGV4dGVybmFsLS0+PGcgY2xhc3M9ImNsdXN0ZXIiIGRhdGEtZW50aXR5PSJleHRlcm5hbCIgZGF0YS1zb3VyY2UtbGluZT0iOTIiIGRhdGEtdWlkPSJlbnQwMDUwIiBpZD0iY2x1c3Rlcl9leHRlcm5hbCI+PHBhdGggZD0iTTM1MC44NCw3NTcuNTQ2OSBMNDA3Ljg0LDc1Ny41NDY5IEEzLjc1LDMuNzUgMCAwIDEgNDEwLjM0LDc2MC4wNDY5IEw0MTcuMzQsNzc4LjUzMTMgTDcyNi44NCw3NzguNTMxMyBBMi41LDIuNSAwIDAgMSA3MjkuMzQsNzgxLjAzMTMgTDcyOS4zNCw4NDkuMDQ2OSBBMi41LDIuNSAwIDAgMSA3MjYuODQsODUxLjU0NjkgTDM1MC44NCw4NTEuNTQ2OSBBMi41LDIuNSAwIDAgMSAzNDguMzQsODQ5LjA0NjkgTDM0OC4zNCw3NjAuMDQ2OSBBMi41LDIuNSAwIDAgMSAzNTAuODQsNzU3LjU0NjkiIGZpbGw9IiNGRkZGRkYiIHN0eWxlPSJzdHJva2U6IzAwMDAwMDtzdHJva2Utd2lkdGg6MTsiLz48bGluZSBzdHlsZT0ic3Ryb2tlOiMwMDAwMDA7c3Ryb2tlLXdpZHRoOjE7IiB4MT0iMzQ4LjM0IiB4Mj0iNDE3LjM0IiB5MT0iNzc4LjUzMTMiIHkyPSI3NzguNTMxMyIvPjx0ZXh0IGZpbGw9IiMwMDAwMDAiIGZvbnQtZmFtaWx5PSJWZXJkYW5hIiBmb250LXNpemU9IjE0IiBmb250LXdlaWdodD0iYm9sZCIgbGVuZ3RoQWRqdXN0PSJzcGFjaW5nIiB0ZXh0TGVuZ3RoPSI1NiIgeD0iMzUyLjM0IiB5PSI3NzIuNzgxMyI+JiMyMjgwNjsmIzM3MDk2OyYjMjYzODE7JiMyMTIwOTs8L3RleHQ+PC9nPjwhLS1jbHVzdGVyIG1vbml0b3JpbmctLT48ZyBjbGFzcz0iY2x1c3RlciIgZGF0YS1lbnRpdHk9Im1vbml0b3JpbmciIGRhdGEtc291cmNlLWxpbmU9Ijk4IiBkYXRhLXVpZD0iZW50MDA1NCIgaWQ9ImNsdXN0ZXJfbW9uaXRvcmluZyI+PHBhdGggZD0iTTMxNDUuODQsNDY1LjU0NjkgTDMyMDIuODQsNDY1LjU0NjkgQTMuNzUsMy43NSAwIDAgMSAzMjA1LjM0LDQ2OC4wNDY5IEwzMjEyLjM0LDQ4Ni41MzEzIEwzNDcwLjg0LDQ4Ni41MzEzIEEyLjUsMi41IDAgMCAxIDM0NzMuMzQsNDg5LjAzMTMgTDM0NzMuMzQsNTQ3LjA0NjkgQTIuNSwyLjUgMCAwIDEgMzQ3MC44NCw1NDkuNTQ2OSBMMzE0NS44NCw1NDkuNTQ2OSBBMi41LDIuNSAwIDAgMSAzMTQzLjM0LDU0Ny4wNDY5IEwzMTQzLjM0LDQ2OC4wNDY5IEEyLjUsMi41IDAgMCAxIDMxNDUuODQsNDY1LjU0NjkiIGZpbGw9IiNGRkZGRkYiIHN0eWxlPSJzdHJva2U6IzAwMDAwMDtzdHJva2Utd2lkdGg6MTsiLz48bGluZSBzdHlsZT0ic3Ryb2tlOiMwMDAwMDA7c3Ryb2tlLXdpZHRoOjE7IiB4MT0iMzE0My4zNCIgeDI9IjMyMTIuMzQiIHkxPSI0ODYuNTMxMyIgeTI9IjQ4Ni41MzEzIi8+PHRleHQgZmlsbD0iIzAwMDAwMCIgZm9udC1mYW1pbHk9IlZlcmRhbmEiIGZvbnQtc2l6ZT0iMTQiIGZvbnQtd2VpZ2h0PSJib2xkIiBsZW5ndGhBZGp1c3Q9InNwYWNpbmciIHRleHRMZW5ndGg9IjU2IiB4PSIzMTQ3LjM0IiB5PSI0ODAuNzgxMyI+JiMzMDQzNTsmIzI1NTExOyYjMzY5Mzk7JiMzMjE3Mzs8L3RleHQ+PC9nPjwhLS1lbnRpdHkgd2VsY29tZV9wYWdlLS0+PGcgY2xhc3M9ImVudGl0eSIgZGF0YS1lbnRpdHk9IndlbGNvbWVfcGFnZSIgZGF0YS1zb3VyY2UtbGluZT0iMjEiIGRhdGEtdWlkPSJlbnQwMDAzIiBpZD0iZW50aXR5X3dlbGNvbWVfcGFnZSI+PHJlY3QgZmlsbD0iI0FERDhFNiIgaGVpZ2h0PSIzNC45ODQ0IiByeD0iMi41IiByeT0iMi41IiBzdHlsZT0ic3Ryb2tlOiMwMDAwMDA7c3Ryb2tlLXdpZHRoOjE7IiB3aWR0aD0iMTA0IiB4PSI3OTcuMzQiIHk9Ijg4LjU0NjkiLz48dGV4dCBmaWxsPSIjMDAwMDAwIiBmb250LWZhbWlseT0iVmVyZGFuYSIgZm9udC1zaXplPSIxNCIgbGVuZ3RoQWRqdXN0PSJzcGFjaW5nIiB0ZXh0TGVuZ3RoPSI4NCIgeD0iODA3LjM0IiB5PSIxMTEuNzgxMyI+JiMzNTM3MDsmIzIzNDU4OyYjMjAxNzE7JiMzMjA1NzsmIzM4OTEzOyYjMzg3NTQ7PC90ZXh0PjwvZz48IS0tZW50aXR5IGF1dGhfcGFnZS0tPjxnIGNsYXNzPSJlbnRpdHkiIGRhdGEtZW50aXR5PSJhdXRoX3BhZ2UiIGRhdGEtc291cmNlLWxpbmU9IjIyIiBkYXRhLXVpZD0iZW50MDAwNCIgaWQ9ImVudGl0eV9hdXRoX3BhZ2UiPjxyZWN0IGZpbGw9IiNBREQ4RTYiIGhlaWdodD0iMzQuOTg0NCIgcng9IjIuNSIgcnk9IjIuNSIgc3R5bGU9InN0cm9rZTojMDAwMDAwO3N0cm9rZS13aWR0aDoxOyIgd2lkdGg9IjEwNCIgeD0iNzk3LjM0IiB5PSIxODQuNTQ2OSIvPjx0ZXh0IGZpbGw9IiMwMDAwMDAiIGZvbnQtZmFtaWx5PSJWZXJkYW5hIiBmb250LXNpemU9IjE0IiBsZW5ndGhBZGp1c3Q9InNwYWNpbmciIHRleHRMZW5ndGg9Ijg0IiB4PSI4MDcuMzQiIHk9IjIwNy43ODEzIj4mIzMwMzMxOyYjMjA4Mzc7JiMzNTM4NzsmIzIwODc0OyYjMzg5MTM7JiMzODc1NDs8L3RleHQ+PC9nPjwhLS1lbnRpdHkgZGFzaGJvYXJkLS0+PGcgY2xhc3M9ImVudGl0eSIgZGF0YS1lbnRpdHk9ImRhc2hib2FyZCIgZGF0YS1zb3VyY2UtbGluZT0iMjMiIGRhdGEtdWlkPSJlbnQwMDA1IiBpZD0iZW50aXR5X2Rhc2hib2FyZCI+PHJlY3QgZmlsbD0iI0FERDhFNiIgaGVpZ2h0PSIzNC45ODQ0IiByeD0iMi41IiByeT0iMi41IiBzdHlsZT0ic3Ryb2tlOiMwMDAwMDA7c3Ryb2tlLXdpZHRoOjE7IiB3aWR0aD0iOTAiIHg9IjUxMy4zNCIgeT0iMjgwLjU0NjkiLz48dGV4dCBmaWxsPSIjMDAwMDAwIiBmb250LWZhbWlseT0iVmVyZGFuYSIgZm9udC1zaXplPSIxNCIgbGVuZ3RoQWRqdXN0PSJzcGFjaW5nIiB0ZXh0TGVuZ3RoPSI3MCIgeD0iNTIzLjM0IiB5PSIzMDMuNzgxMyI+JiMzOTMxODsmIzM4OTEzOyYjMjA3MzY7JiMzNDkyMDsmIzI2NDk1OzwvdGV4dD48L2c+PCEtLWVudGl0eSByZWFkaW5nX3BhZ2UtLT48ZyBjbGFzcz0iZW50aXR5IiBkYXRhLWVudGl0eT0icmVhZGluZ19wYWdlIiBkYXRhLXNvdXJjZS1saW5lPSIyNCIgZGF0YS11aWQ9ImVudDAwMDYiIGlkPSJlbnRpdHlfcmVhZGluZ19wYWdlIj48cmVjdCBmaWxsPSIjQUREOEU2IiBoZWlnaHQ9IjM0Ljk4NDQiIHJ4PSIyLjUiIHJ5PSIyLjUiIHN0eWxlPSJzdHJva2U6IzAwMDAwMDtzdHJva2Utd2lkdGg6MTsiIHdpZHRoPSI3NiIgeD0iOTAyLjM0IiB5PSIzNzYuNTQ2OSIvPjx0ZXh0IGZpbGw9IiMwMDAwMDAiIGZvbnQtZmFtaWx5PSJWZXJkYW5hIiBmb250LXNpemU9IjE0IiBsZW5ndGhBZGp1c3Q9InNwYWNpbmciIHRleHRMZW5ndGg9IjU2IiB4PSI5MTIuMzQiIHk9IjM5OS43ODEzIj4mIzIxODM5OyYjMzU3MTI7JiMzODkxMzsmIzM4NzU0OzwvdGV4dD48L2c+PCEtLWVudGl0eSBhaV9xYV9wYWdlLS0+PGcgY2xhc3M9ImVudGl0eSIgZGF0YS1lbnRpdHk9ImFpX3FhX3BhZ2UiIGRhdGEtc291cmNlLWxpbmU9IjI1IiBkYXRhLXVpZD0iZW50MDAwNyIgaWQ9ImVudGl0eV9haV9xYV9wYWdlIj48cmVjdCBmaWxsPSIjQUREOEU2IiBoZWlnaHQ9IjM0Ljk4NDQiIHJ4PSIyLjUiIHJ5PSIyLjUiIHN0eWxlPSJzdHJva2U6IzAwMDAwMDtzdHJva2Utd2lkdGg6MTsiIHdpZHRoPSIxMTgiIHg9IjEzNy4zNCIgeT0iMzc2LjU0NjkiLz48dGV4dCBmaWxsPSIjMDAwMDAwIiBmb250LWZhbWlseT0iVmVyZGFuYSIgZm9udC1zaXplPSIxNCIgbGVuZ3RoQWRqdXN0PSJzcGFjaW5nIiB0ZXh0TGVuZ3RoPSI5OCIgeD0iMTQ3LjM0IiB5PSIzOTkuNzgxMyI+QUkmIzI2MjM0OyYjMzMwMjE7JiMyMTgzOTsmIzMxNTcyOyYjMzg5MTM7JiMzODc1NDs8L3RleHQ+PC9nPjwhLS1lbnRpdHkgYWNoaWV2ZW1lbnRfcGFnZS0tPjxnIGNsYXNzPSJlbnRpdHkiIGRhdGEtZW50aXR5PSJhY2hpZXZlbWVudF9wYWdlIiBkYXRhLXNvdXJjZS1saW5lPSIyNiIgZGF0YS11aWQ9ImVudDAwMDgiIGlkPSJlbnRpdHlfYWNoaWV2ZW1lbnRfcGFnZSI+PHJlY3QgZmlsbD0iI0FERDhFNiIgaGVpZ2h0PSIzNC45ODQ0IiByeD0iMi41IiByeT0iMi41IiBzdHlsZT0ic3Ryb2tlOiMwMDAwMDA7c3Ryb2tlLXdpZHRoOjE7IiB3aWR0aD0iMTA0IiB4PSIyOTAuMzQiIHk9IjM3Ni41NDY5Ii8+PHRleHQgZmlsbD0iIzAwMDAwMCIgZm9udC1mYW1pbHk9IlZlcmRhbmEiIGZvbnQtc2l6ZT0iMTQiIGxlbmd0aEFkanVzdD0ic3BhY2luZyIgdGV4dExlbmd0aD0iODQiIHg9IjMwMC4zNCIgeT0iMzk5Ljc4MTMiPiYjMjUxMDQ7JiMyMzYwMTsmIzMxOTk1OyYjMzIxMTM7JiMzODkxMzsmIzM4NzU0OzwvdGV4dD48L2c+PCEtLWVudGl0eSBjb21tdW5pdHlfcGFnZS0tPjxnIGNsYXNzPSJlbnRpdHkiIGRhdGEtZW50aXR5PSJjb21tdW5pdHlfcGFnZSIgZGF0YS1zb3VyY2UtbGluZT0iMjciIGRhdGEtdWlkPSJlbnQwMDA5IiBpZD0iZW50aXR5X2NvbW11bml0eV9wYWdlIj48cmVjdCBmaWxsPSIjQUREOEU2IiBoZWlnaHQ9IjM0Ljk4NDQiIHJ4PSIyLjUiIHJ5PSIyLjUiIHN0eWxlPSJzdHJva2U6IzAwMDAwMDtzdHJva2Utd2lkdGg6MTsiIHdpZHRoPSIxMzIiIHg9IjQyOS4zNCIgeT0iMzc2LjU0NjkiLz48dGV4dCBmaWxsPSIjMDAwMDAwIiBmb250LWZhbWlseT0iVmVyZGFuYSIgZm9udC1zaXplPSIxNCIgbGVuZ3RoQWRqdXN0PSJzcGFjaW5nIiB0ZXh0TGVuZ3RoPSIxMTIiIHg9IjQzOS4zNCIgeT0iMzk5Ljc4MTMiPiYjMzUzNDI7JiMzNTU0MjsmIzIwMTE0OyYjMjEyMDU7JiMzMTAzODsmIzIxMzEyOyYjMzg5MTM7JiMzODc1NDs8L3RleHQ+PC9nPjwhLS1lbnRpdHkgY2hhcmFjdGVyX25ldHdvcmtfcGFnZS0tPjxnIGNsYXNzPSJlbnRpdHkiIGRhdGEtZW50aXR5PSJjaGFyYWN0ZXJfbmV0d29ya19wYWdlIiBkYXRhLXNvdXJjZS1saW5lPSIyOCIgZGF0YS11aWQ9ImVudDAwMTAiIGlkPSJlbnRpdHlfY2hhcmFjdGVyX25ldHdvcmtfcGFnZSI+PHJlY3QgZmlsbD0iI0FERDhFNiIgaGVpZ2h0PSIzNC45ODQ0IiByeD0iMi41IiByeT0iMi41IiBzdHlsZT0ic3Ryb2tlOiMwMDAwMDA7c3Ryb2tlLXdpZHRoOjE7IiB3aWR0aD0iMTMyIiB4PSI1OTYuMzQiIHk9IjM3Ni41NDY5Ii8+PHRleHQgZmlsbD0iIzAwMDAwMCIgZm9udC1mYW1pbHk9IlZlcmRhbmEiIGZvbnQtc2l6ZT0iMTQiIGxlbmd0aEFkanVzdD0ic3BhY2luZyIgdGV4dExlbmd0aD0iMTEyIiB4PSI2MDYuMzQiIHk9IjM5OS43ODEzIj4mIzIwMTU0OyYjMjkyODk7JiMzODM2NDsmIzIwNDE4OyYjMjIyOTQ7JiMzNTY3NjsmIzM4OTEzOyYjMzg3NTQ7PC90ZXh0PjwvZz48IS0tZW50aXR5IHNldHRpbmdzX3BhZ2UtLT48ZyBjbGFzcz0iZW50aXR5IiBkYXRhLWVudGl0eT0ic2V0dGluZ3NfcGFnZSIgZGF0YS1zb3VyY2UtbGluZT0iMjkiIGRhdGEtdWlkPSJlbnQwMDExIiBpZD0iZW50aXR5X3NldHRpbmdzX3BhZ2UiPjxyZWN0IGZpbGw9IiNBREQ4RTYiIGhlaWdodD0iMzQuOTg0NCIgcng9IjIuNSIgcnk9IjIuNSIgc3R5bGU9InN0cm9rZTojMDAwMDAwO3N0cm9rZS13aWR0aDoxOyIgd2lkdGg9IjEwNCIgeD0iNzYzLjM0IiB5PSIzNzYuNTQ2OSIvPjx0ZXh0IGZpbGw9IiMwMDAwMDAiIGZvbnQtZmFtaWx5PSJWZXJkYW5hIiBmb250LXNpemU9IjE0IiBsZW5ndGhBZGp1c3Q9InNwYWNpbmciIHRleHRMZW5ndGg9Ijg0IiB4PSI3NzMuMzQiIHk9IjM5OS43ODEzIj4mIzIwNDkxOyYjMjAxNTQ7JiMzNTM3MzsmIzIzNDUwOyYjMzg5MTM7JiMzODc1NDs8L3RleHQ+PC9nPjwhLS1lbnRpdHkgYXBpX2dhdGV3YXktLT48ZyBjbGFzcz0iZW50aXR5IiBkYXRhLWVudGl0eT0iYXBpX2dhdGV3YXkiIGRhdGEtc291cmNlLWxpbmU9IjMzIiBkYXRhLXVpZD0iZW50MDAxMyIgaWQ9ImVudGl0eV9hcGlfZ2F0ZXdheSI+PHBhdGggZD0iTTUxOC43NDYyLDUwMi40MDE2IEM1MjEuNjQ0Nyw0OTUuNjUwOCA1MjYuNTMyMiw0OTUuMTI3NSA1MzAuNjM0Myw1MDEuMjkzOCBDNTM0LjQwOTcsNDk2LjYwMDEgNTM3LjkwMjgsNDk3LjI0NyA1NDAuOTYzNCw1MDIuMDY5NiBDNTQ0LjExMTYsNDk2LjI5MTQgNTQ3LjkyODEsNDk2LjIxODggNTUyLjExNzYsNTAwLjk2NjEgQzU1NS44NzQsNDk1LjM3IDU2MC4yMDAxLDQ5NS42NTA0IDU2My42NzMsNTAxLjI1ODUgQzU2Ny4zNDkxLDQ5NS4zMzExIDU3Mi4wNjY4LDQ5NS42NjE3IDU3NC45MDQsNTAyLjAyNTEgQzU3OC41NzEzLDQ5NS44ODM2IDU4NC4xMDk3LDQ5Ny4xNTY4IDU4Ni44MzQyLDUwMi45NjYyIEM1ODkuOTY2Niw0OTcuODAyNyA1OTUuMDM5MSw0OTcuMjA2NSA1OTguMzEwMSw1MDIuODE4NSBDNjAxLjY4MDYsNDk2LjA0NDMgNjA2LjcyMTgsNDk2LjEzMzcgNjExLjAzNiw1MDEuODU3NiBDNjE5Ljg4MjYsNTA1LjM5NDEgNjE5LjczMSw1MTMuMTE4NSA2MTIuMzY3Myw1MTcuOTkyNSBDNjE3Ljg0NzYsNTIzLjQ2MjIgNjE3LjUyNyw1MjcuNDUzNyA2MTAuMzcxMyw1MzAuOTgxOCBDNjA4Ljc2MSw1MzcuOTA5NyA2MDQuNjcwMyw1MzguNjk0MyA1OTkuNTc0Nyw1MzQuMzA3NiBDNTk2LjI2NDIsNTQwLjIzMDEgNTkxLjcwOTUsNTQyLjA0MDggNTg2LjY5MzIsNTM2LjE3MSBDNTgzLjc4ODQsNTQyLjE5MSA1ODAuNDgyMyw1NDMuODc2NCA1NzUuMTQ2OCw1MzguNjcxMiBDNTcyLjcxNzcsNTQ0LjQyNyA1NjkuMzU0LDU0NS4yNjc0IDU2NC40MzI5LDU0MS40NjQxIEM1NTkuNTcxLDU0NS44MjMyIDU1NC41OTAzLDU0NS4xNzEgNTUyLjcxNjksNTM4LjMzNjIgQzU0OC42MDI2LDU0Mi43NTQ0IDU0My40Mzg5LDU0My4wNzUxIDU0MS4zNDIsNTM2LjI4ODMgQzUzNy4yOTMyLDU0MC4xNzgzIDUzMS42Njk2LDU0MC4wNTQ0IDUzMC4wNDc2LDUzMy42MzA4IEM1MjUuMTcxNSw1MzkuMzg1MyA1MjEuNTYxMiw1MzguNzU0IDUxOC4zMzEyLDUzMi4wNzkxIEM1MDguNDkyOCw1MzEuMDE5MiA1MDcuNDQwMiw1MjYuMDAxOSA1MTAuNzMwMyw1MTcuOTAyOCBDNTA2LjAwOTksNTA4Ljg1NTMgNTA5LjcyNzMsNTA0LjM0NDQgNTE4Ljc0NjIsNTAyLjQwMTYiIGZpbGw9IiNGRkZGRTAiIHN0eWxlPSJzdHJva2U6I0ZGQTUwMDtzdHJva2Utd2lkdGg6MTsiLz48dGV4dCBmaWxsPSIjMDAwMDAwIiBmb250LWZhbWlseT0iVmVyZGFuYSIgZm9udC1zaXplPSIxNCIgbGVuZ3RoQWRqdXN0PSJzcGFjaW5nIiB0ZXh0TGVuZ3RoPSI3NyIgeD0iNTI0Ljg0IiB5PSI1MjEuNzgxMyI+QVBJIEdhdGV3YXk8L3RleHQ+PC9nPjwhLS1lbnRpdHkgcm91dGluZy0tPjxnIGNsYXNzPSJlbnRpdHkiIGRhdGEtZW50aXR5PSJyb3V0aW5nIiBkYXRhLXNvdXJjZS1saW5lPSIzNCIgZGF0YS11aWQ9ImVudDAwMTQiIGlkPSJlbnRpdHlfcm91dGluZyI+PHJlY3QgZmlsbD0iI0FERDhFNiIgaGVpZ2h0PSIzNC45ODQ0IiByeD0iMi41IiByeT0iMi41IiBzdHlsZT0ic3Ryb2tlOiMwMDAwMDA7c3Ryb2tlLXdpZHRoOjE7IiB3aWR0aD0iNzYiIHg9IjIwNy4zNCIgeT0iNjU5LjU0NjkiLz48dGV4dCBmaWxsPSIjMDAwMDAwIiBmb250LWZhbWlseT0iVmVyZGFuYSIgZm9udC1zaXplPSIxNCIgbGVuZ3RoQWRqdXN0PSJzcGFjaW5nIiB0ZXh0TGVuZ3RoPSI1NiIgeD0iMjE3LjM0IiB5PSI2ODIuNzgxMyI+JiMzNjMzNTsmIzMwMDAxOyYjMzE2NDk7JiMyOTcwMjs8L3RleHQ+PC9nPjwhLS1lbnRpdHkgbG9hZF9iYWxhbmNlci0tPjxnIGNsYXNzPSJlbnRpdHkiIGRhdGEtZW50aXR5PSJsb2FkX2JhbGFuY2VyIiBkYXRhLXNvdXJjZS1saW5lPSIzNSIgZGF0YS11aWQ9ImVudDAwMTUiIGlkPSJlbnRpdHlfbG9hZF9iYWxhbmNlciI+PHJlY3QgZmlsbD0iI0FERDhFNiIgaGVpZ2h0PSIzNC45ODQ0IiByeD0iMi41IiByeT0iMi41IiBzdHlsZT0ic3Ryb2tlOiMwMDAwMDA7c3Ryb2tlLXdpZHRoOjE7IiB3aWR0aD0iNzYiIHg9IjMxOC4zNCIgeT0iNjU5LjU0NjkiLz48dGV4dCBmaWxsPSIjMDAwMDAwIiBmb250LWZhbWlseT0iVmVyZGFuYSIgZm9udC1zaXplPSIxNCIgbGVuZ3RoQWRqdXN0PSJzcGFjaW5nIiB0ZXh0TGVuZ3RoPSI1NiIgeD0iMzI4LjM0IiB5PSI2ODIuNzgxMyI+JiMzNjAwMDsmIzM2NjE3OyYjMjQxNzk7JiMzNDkxMzs8L3RleHQ+PC9nPjwhLS1lbnRpdHkgcmF0ZV9saW1pdC0tPjxnIGNsYXNzPSJlbnRpdHkiIGRhdGEtZW50aXR5PSJyYXRlX2xpbWl0IiBkYXRhLXNvdXJjZS1saW5lPSIzNiIgZGF0YS11aWQ9ImVudDAwMTYiIGlkPSJlbnRpdHlfcmF0ZV9saW1pdCI+PHJlY3QgZmlsbD0iI0FERDhFNiIgaGVpZ2h0PSIzNC45ODQ0IiByeD0iMi41IiByeT0iMi41IiBzdHlsZT0ic3Ryb2tlOiMwMDAwMDA7c3Ryb2tlLXdpZHRoOjE7IiB3aWR0aD0iNzYiIHg9IjQyOS4zNCIgeT0iNjU5LjU0NjkiLz48dGV4dCBmaWxsPSIjMDAwMDAwIiBmb250LWZhbWlseT0iVmVyZGFuYSIgZm9udC1zaXplPSIxNCIgbGVuZ3RoQWRqdXN0PSJzcGFjaW5nIiB0ZXh0TGVuZ3RoPSI1NiIgeD0iNDM5LjM0IiB5PSI2ODIuNzgxMyI+JiMzODQ4MDsmIzI3OTY5OyYjMjU1MTE7JiMyMTA0Njs8L3RleHQ+PC9nPjwhLS1lbnRpdHkgY29ycy0tPjxnIGNsYXNzPSJlbnRpdHkiIGRhdGEtZW50aXR5PSJjb3JzIiBkYXRhLXNvdXJjZS1saW5lPSIzNyIgZGF0YS11aWQ9ImVudDAwMTciIGlkPSJlbnRpdHlfY29ycyI+PHJlY3QgZmlsbD0iI0FERDhFNiIgaGVpZ2h0PSIzNC45ODQ0IiByeD0iMi41IiByeT0iMi41IiBzdHlsZT0ic3Ryb2tlOiMwMDAwMDA7c3Ryb2tlLXdpZHRoOjE7IiB3aWR0aD0iNzYiIHg9IjU0MC4zNCIgeT0iNjU5LjU0NjkiLz48dGV4dCBmaWxsPSIjMDAwMDAwIiBmb250LWZhbWlseT0iVmVyZGFuYSIgZm9udC1zaXplPSIxNCIgbGVuZ3RoQWRqdXN0PSJzcGFjaW5nIiB0ZXh0TGVuZ3RoPSI1NiIgeD0iNTUwLjM0IiB5PSI2ODIuNzgxMyI+Q09SUyYjMzQzODk7JiMyOTcwMjs8L3RleHQ+PC9nPjwhLS1lbnRpdHkgYXV0aF9zZXJ2aWNlLS0+PGcgY2xhc3M9ImVudGl0eSIgZGF0YS1lbnRpdHk9ImF1dGhfc2VydmljZSIgZGF0YS1zb3VyY2UtbGluZT0iNDMiIGRhdGEtdWlkPSJlbnQwMDIwIiBpZD0iZW50aXR5X2F1dGhfc2VydmljZSI+PHJlY3QgZmlsbD0iI0FERDhFNiIgaGVpZ2h0PSIzNC45ODQ0IiByeD0iMi41IiByeT0iMi41IiBzdHlsZT0ic3Ryb2tlOiMwMDAwMDA7c3Ryb2tlLXdpZHRoOjE7IiB3aWR0aD0iMTc0IiB4PSIxMDA5LjM0IiB5PSI2NTkuNTQ2OSIvPjx0ZXh0IGZpbGw9IiMwMDAwMDAiIGZvbnQtZmFtaWx5PSJWZXJkYW5hIiBmb250LXNpemU9IjE0IiBsZW5ndGhBZGp1c3Q9InNwYWNpbmciIHRleHRMZW5ndGg9IjE1NCIgeD0iMTAxOS4zNCIgeT0iNjgyLjc4MTMiPkF1dGhlbnRpY2F0aW9uIFNlcnZpY2U8L3RleHQ+PC9nPjwhLS1lbnRpdHkgcmVkaXNfc2Vzc2lvbi0tPjxnIGNsYXNzPSJlbnRpdHkiIGRhdGEtZW50aXR5PSJyZWRpc19zZXNzaW9uIiBkYXRhLXNvdXJjZS1saW5lPSI0NCIgZGF0YS11aWQ9ImVudDAwMjEiIGlkPSJlbnRpdHlfcmVkaXNfc2Vzc2lvbiI+PHBhdGggZD0iTTEwMTkuODQsODAxLjA0NjkgQzEwMTkuODQsNzkxLjA0NjkgMTA5Ni4zNCw3OTEuMDQ2OSAxMDk2LjM0LDc5MS4wNDY5IEMxMDk2LjM0LDc5MS4wNDY5IDExNzIuODQsNzkxLjA0NjkgMTE3Mi44NCw4MDEuMDQ2OSBMMTE3Mi44NCw4MjUuMDMxMyBDMTE3Mi44NCw4MzUuMDMxMyAxMDk2LjM0LDgzNS4wMzEzIDEwOTYuMzQsODM1LjAzMTMgQzEwOTYuMzQsODM1LjAzMTMgMTAxOS44NCw4MzUuMDMxMyAxMDE5Ljg0LDgyNS4wMzEzIEwxMDE5Ljg0LDgwMS4wNDY5IiBmaWxsPSIjRTBGRkZGIiBzdHlsZT0ic3Ryb2tlOiMwMDAwOEI7c3Ryb2tlLXdpZHRoOjE7Ii8+PHBhdGggZD0iTTEwMTkuODQsODAxLjA0NjkgQzEwMTkuODQsODExLjA0NjkgMTA5Ni4zNCw4MTEuMDQ2OSAxMDk2LjM0LDgxMS4wNDY5IEMxMDk2LjM0LDgxMS4wNDY5IDExNzIuODQsODExLjA0NjkgMTE3Mi44NCw4MDEuMDQ2OSIgZmlsbD0ibm9uZSIgc3R5bGU9InN0cm9rZTojMDAwMDhCO3N0cm9rZS13aWR0aDoxOyIvPjx0ZXh0IGZpbGw9IiMwMDAwMDAiIGZvbnQtZmFtaWx5PSJWZXJkYW5hIiBmb250LXNpemU9IjE0IiBsZW5ndGhBZGp1c3Q9InNwYWNpbmciIHRleHRMZW5ndGg9IjEzMyIgeD0iMTAyOS44NCIgeT0iODI4LjI4MTMiPlJlZGlzIFNlc3Npb24gU3RvcmU8L3RleHQ+PC9nPjwhLS1lbnRpdHkgdXNlcl9zZXJ2aWNlLS0+PGcgY2xhc3M9ImVudGl0eSIgZGF0YS1lbnRpdHk9InVzZXJfc2VydmljZSIgZGF0YS1zb3VyY2UtbGluZT0iNDgiIGRhdGEtdWlkPSJlbnQwMDIzIiBpZD0iZW50aXR5X3VzZXJfc2VydmljZSI+PHJlY3QgZmlsbD0iI0FERDhFNiIgaGVpZ2h0PSIzNC45ODQ0IiByeD0iMi41IiByeT0iMi41IiBzdHlsZT0ic3Ryb2tlOiMwMDAwMDA7c3Ryb2tlLXdpZHRoOjE7IiB3aWR0aD0iMTgxIiB4PSIxMjM5Ljg0IiB5PSI3OTUuNTQ2OSIvPjx0ZXh0IGZpbGw9IiMwMDAwMDAiIGZvbnQtZmFtaWx5PSJWZXJkYW5hIiBmb250LXNpemU9IjE0IiBsZW5ndGhBZGp1c3Q9InNwYWNpbmciIHRleHRMZW5ndGg9IjE2MSIgeD0iMTI0OS44NCIgeT0iODE4Ljc4MTMiPlVzZXIgTWFuYWdlbWVudCBTZXJ2aWNlPC90ZXh0PjwvZz48IS0tZW50aXR5IHBvc3RncmVzX3VzZXItLT48ZyBjbGFzcz0iZW50aXR5IiBkYXRhLWVudGl0eT0icG9zdGdyZXNfdXNlciIgZGF0YS1zb3VyY2UtbGluZT0iNDkiIGRhdGEtdWlkPSJlbnQwMDI0IiBpZD0iZW50aXR5X3Bvc3RncmVzX3VzZXIiPjxwYXRoIGQ9Ik0xMjU3LjM0LDkwOS4wNDY5IEMxMjU3LjM0LDg5OS4wNDY5IDEzMzAuMzQsODk5LjA0NjkgMTMzMC4zNCw4OTkuMDQ2OSBDMTMzMC4zNCw4OTkuMDQ2OSAxNDAzLjM0LDg5OS4wNDY5IDE0MDMuMzQsOTA5LjA0NjkgTDE0MDMuMzQsOTMzLjAzMTMgQzE0MDMuMzQsOTQzLjAzMTMgMTMzMC4zNCw5NDMuMDMxMyAxMzMwLjM0LDk0My4wMzEzIEMxMzMwLjM0LDk0My4wMzEzIDEyNTcuMzQsOTQzLjAzMTMgMTI1Ny4zNCw5MzMuMDMxMyBMMTI1Ny4zNCw5MDkuMDQ2OSIgZmlsbD0iI0UwRkZGRiIgc3R5bGU9InN0cm9rZTojMDAwMDhCO3N0cm9rZS13aWR0aDoxOyIvPjxwYXRoIGQ9Ik0xMjU3LjM0LDkwOS4wNDY5IEMxMjU3LjM0LDkxOS4wNDY5IDEzMzAuMzQsOTE5LjA0NjkgMTMzMC4zNCw5MTkuMDQ2OSBDMTMzMC4zNCw5MTkuMDQ2OSAxNDAzLjM0LDkxOS4wNDY5IDE0MDMuMzQsOTA5LjA0NjkiIGZpbGw9Im5vbmUiIHN0eWxlPSJzdHJva2U6IzAwMDA4QjtzdHJva2Utd2lkdGg6MTsiLz48dGV4dCBmaWxsPSIjMDAwMDAwIiBmb250LWZhbWlseT0iVmVyZGFuYSIgZm9udC1zaXplPSIxNCIgbGVuZ3RoQWRqdXN0PSJzcGFjaW5nIiB0ZXh0TGVuZ3RoPSIxMjYiIHg9IjEyNjcuMzQiIHk9IjkzNi4yODEzIj5Qb3N0Z3JlU1FMIFVzZXIgREI8L3RleHQ+PC9nPjwhLS1lbnRpdHkgbGVhcm5pbmdfc2VydmljZS0tPjxnIGNsYXNzPSJlbnRpdHkiIGRhdGEtZW50aXR5PSJsZWFybmluZ19zZXJ2aWNlIiBkYXRhLXNvdXJjZS1saW5lPSI1MyIgZGF0YS11aWQ9ImVudDAwMjYiIGlkPSJlbnRpdHlfbGVhcm5pbmdfc2VydmljZSI+PHJlY3QgZmlsbD0iI0FERDhFNiIgaGVpZ2h0PSIzNC45ODQ0IiByeD0iMi41IiByeT0iMi41IiBzdHlsZT0ic3Ryb2tlOiMwMDAwMDA7c3Ryb2tlLXdpZHRoOjE7IiB3aWR0aD0iMTMyIiB4PSIxNzAwLjM0IiB5PSI2NTkuNTQ2OSIvPjx0ZXh0IGZpbGw9IiMwMDAwMDAiIGZvbnQtZmFtaWx5PSJWZXJkYW5hIiBmb250LXNpemU9IjE0IiBsZW5ndGhBZGp1c3Q9InNwYWNpbmciIHRleHRMZW5ndGg9IjExMiIgeD0iMTcxMC4zNCIgeT0iNjgyLjc4MTMiPkxlYXJuaW5nIFNlcnZpY2U8L3RleHQ+PC9nPjwhLS1lbnRpdHkgcG9zdGdyZXNfbGVhcm5pbmctLT48ZyBjbGFzcz0iZW50aXR5IiBkYXRhLWVudGl0eT0icG9zdGdyZXNfbGVhcm5pbmciIGRhdGEtc291cmNlLWxpbmU9IjU0IiBkYXRhLXVpZD0iZW50MDAyNyIgaWQ9ImVudGl0eV9wb3N0Z3Jlc19sZWFybmluZyI+PHBhdGggZD0iTTE0NzcuMzQsODAxLjA0NjkgQzE0NzcuMzQsNzkxLjA0NjkgMTU2NC4zNCw3OTEuMDQ2OSAxNTY0LjM0LDc5MS4wNDY5IEMxNTY0LjM0LDc5MS4wNDY5IDE2NTEuMzQsNzkxLjA0NjkgMTY1MS4zNCw4MDEuMDQ2OSBMMTY1MS4zNCw4MjUuMDMxMyBDMTY1MS4zNCw4MzUuMDMxMyAxNTY0LjM0LDgzNS4wMzEzIDE1NjQuMzQsODM1LjAzMTMgQzE1NjQuMzQsODM1LjAzMTMgMTQ3Ny4zNCw4MzUuMDMxMyAxNDc3LjM0LDgyNS4wMzEzIEwxNDc3LjM0LDgwMS4wNDY5IiBmaWxsPSIjRTBGRkZGIiBzdHlsZT0ic3Ryb2tlOiMwMDAwOEI7c3Ryb2tlLXdpZHRoOjE7Ii8+PHBhdGggZD0iTTE0NzcuMzQsODAxLjA0NjkgQzE0NzcuMzQsODExLjA0NjkgMTU2NC4zNCw4MTEuMDQ2OSAxNTY0LjM0LDgxMS4wNDY5IEMxNTY0LjM0LDgxMS4wNDY5IDE2NTEuMzQsODExLjA0NjkgMTY1MS4zNCw4MDEuMDQ2OSIgZmlsbD0ibm9uZSIgc3R5bGU9InN0cm9rZTojMDAwMDhCO3N0cm9rZS13aWR0aDoxOyIvPjx0ZXh0IGZpbGw9IiMwMDAwMDAiIGZvbnQtZmFtaWx5PSJWZXJkYW5hIiBmb250LXNpemU9IjE0IiBsZW5ndGhBZGp1c3Q9InNwYWNpbmciIHRleHRMZW5ndGg9IjE1NCIgeD0iMTQ4Ny4zNCIgeT0iODI4LjI4MTMiPlBvc3RncmVTUUwgTGVhcm5pbmcgREI8L3RleHQ+PC9nPjwhLS1lbnRpdHkgcmVkaXNfbGVhcm5pbmctLT48ZyBjbGFzcz0iZW50aXR5IiBkYXRhLWVudGl0eT0icmVkaXNfbGVhcm5pbmciIGRhdGEtc291cmNlLWxpbmU9IjU1IiBkYXRhLXVpZD0iZW50MDAyOCIgaWQ9ImVudGl0eV9yZWRpc19sZWFybmluZyI+PHBhdGggZD0iTTE2ODYuMzQsODAxLjA0NjkgQzE2ODYuMzQsNzkxLjA0NjkgMTc2Ni4zNCw3OTEuMDQ2OSAxNzY2LjM0LDc5MS4wNDY5IEMxNzY2LjM0LDc5MS4wNDY5IDE4NDYuMzQsNzkxLjA0NjkgMTg0Ni4zNCw4MDEuMDQ2OSBMMTg0Ni4zNCw4MjUuMDMxMyBDMTg0Ni4zNCw4MzUuMDMxMyAxNzY2LjM0LDgzNS4wMzEzIDE3NjYuMzQsODM1LjAzMTMgQzE3NjYuMzQsODM1LjAzMTMgMTY4Ni4zNCw4MzUuMDMxMyAxNjg2LjM0LDgyNS4wMzEzIEwxNjg2LjM0LDgwMS4wNDY5IiBmaWxsPSIjRTBGRkZGIiBzdHlsZT0ic3Ryb2tlOiMwMDAwOEI7c3Ryb2tlLXdpZHRoOjE7Ii8+PHBhdGggZD0iTTE2ODYuMzQsODAxLjA0NjkgQzE2ODYuMzQsODExLjA0NjkgMTc2Ni4zNCw4MTEuMDQ2OSAxNzY2LjM0LDgxMS4wNDY5IEMxNzY2LjM0LDgxMS4wNDY5IDE4NDYuMzQsODExLjA0NjkgMTg0Ni4zNCw4MDEuMDQ2OSIgZmlsbD0ibm9uZSIgc3R5bGU9InN0cm9rZTojMDAwMDhCO3N0cm9rZS13aWR0aDoxOyIvPjx0ZXh0IGZpbGw9IiMwMDAwMDAiIGZvbnQtZmFtaWx5PSJWZXJkYW5hIiBmb250LXNpemU9IjE0IiBsZW5ndGhBZGp1c3Q9InNwYWNpbmciIHRleHRMZW5ndGg9IjE0MCIgeD0iMTY5Ni4zNCIgeT0iODI4LjI4MTMiPlJlZGlzIExlYXJuaW5nIENhY2hlPC90ZXh0PjwvZz48IS0tZW50aXR5IGNvbnRlbnRfc2VydmljZS0tPjxnIGNsYXNzPSJlbnRpdHkiIGRhdGEtZW50aXR5PSJjb250ZW50X3NlcnZpY2UiIGRhdGEtc291cmNlLWxpbmU9IjU5IiBkYXRhLXVpZD0iZW50MDAzMCIgaWQ9ImVudGl0eV9jb250ZW50X3NlcnZpY2UiPjxyZWN0IGZpbGw9IiNBREQ4RTYiIGhlaWdodD0iMzQuOTg0NCIgcng9IjIuNSIgcnk9IjIuNSIgc3R5bGU9InN0cm9rZTojMDAwMDAwO3N0cm9rZS13aWR0aDoxOyIgd2lkdGg9IjIwMiIgeD0iMjA1MC4zNCIgeT0iNzk1LjU0NjkiLz48dGV4dCBmaWxsPSIjMDAwMDAwIiBmb250LWZhbWlseT0iVmVyZGFuYSIgZm9udC1zaXplPSIxNCIgbGVuZ3RoQWRqdXN0PSJzcGFjaW5nIiB0ZXh0TGVuZ3RoPSIxODIiIHg9IjIwNjAuMzQiIHk9IjgxOC43ODEzIj5Db250ZW50IE1hbmFnZW1lbnQgU2VydmljZTwvdGV4dD48L2c+PCEtLWVudGl0eSBwb3N0Z3Jlc19jb250ZW50LS0+PGcgY2xhc3M9ImVudGl0eSIgZGF0YS1lbnRpdHk9InBvc3RncmVzX2NvbnRlbnQiIGRhdGEtc291cmNlLWxpbmU9IjYwIiBkYXRhLXVpZD0iZW50MDAzMSIgaWQ9ImVudGl0eV9wb3N0Z3Jlc19jb250ZW50Ij48cGF0aCBkPSJNMTkwMS44NCw5MDkuMDQ2OSBDMTkwMS44NCw4OTkuMDQ2OSAxOTg1LjM0LDg5OS4wNDY5IDE5ODUuMzQsODk5LjA0NjkgQzE5ODUuMzQsODk5LjA0NjkgMjA2OC44NCw4OTkuMDQ2OSAyMDY4Ljg0LDkwOS4wNDY5IEwyMDY4Ljg0LDkzMy4wMzEzIEMyMDY4Ljg0LDk0My4wMzEzIDE5ODUuMzQsOTQzLjAzMTMgMTk4NS4zNCw5NDMuMDMxMyBDMTk4NS4zNCw5NDMuMDMxMyAxOTAxLjg0LDk0My4wMzEzIDE5MDEuODQsOTMzLjAzMTMgTDE5MDEuODQsOTA5LjA0NjkiIGZpbGw9IiNFMEZGRkYiIHN0eWxlPSJzdHJva2U6IzAwMDA4QjtzdHJva2Utd2lkdGg6MTsiLz48cGF0aCBkPSJNMTkwMS44NCw5MDkuMDQ2OSBDMTkwMS44NCw5MTkuMDQ2OSAxOTg1LjM0LDkxOS4wNDY5IDE5ODUuMzQsOTE5LjA0NjkgQzE5ODUuMzQsOTE5LjA0NjkgMjA2OC44NCw5MTkuMDQ2OSAyMDY4Ljg0LDkwOS4wNDY5IiBmaWxsPSJub25lIiBzdHlsZT0ic3Ryb2tlOiMwMDAwOEI7c3Ryb2tlLXdpZHRoOjE7Ii8+PHRleHQgZmlsbD0iIzAwMDAwMCIgZm9udC1mYW1pbHk9IlZlcmRhbmEiIGZvbnQtc2l6ZT0iMTQiIGxlbmd0aEFkanVzdD0ic3BhY2luZyIgdGV4dExlbmd0aD0iMTQ3IiB4PSIxOTExLjg0IiB5PSI5MzYuMjgxMyI+UG9zdGdyZVNRTCBDb250ZW50IERCPC90ZXh0PjwvZz48IS0tZW50aXR5IGNkbi0tPjxnIGNsYXNzPSJlbnRpdHkiIGRhdGEtZW50aXR5PSJjZG4iIGRhdGEtc291cmNlLWxpbmU9IjYxIiBkYXRhLXVpZD0iZW50MDAzMiIgaWQ9ImVudGl0eV9jZG4iPjxwYXRoIGQ9Ik0yMTEyLjM1MjYsOTA4LjQ3MzEgQzIxMTUuMjY5NCw5MDIuMzcwNiAyMTE5LjE5MzYsOTAyLjM0OTYgMjEyMy44MDE4LDkwNi42MDMxIEMyMTI3LjEzODYsOTAwLjg2MTcgMjEzMi4xODQ1LDkwMi41ODkxIDIxMzQuODcyOSw5MDcuMjkwNSBDMjEzNy42MTI1LDkwMS4yNDM0IDIxNDEuMjc0Niw5MDIuMTY5NiAyMTQ1LjI1NTMsOTA1Ljk4MzkgQzIxNTAuMjU2Miw4OTkuMzg1MSAyMTU0LjM4NjUsODk5LjcxNyAyMTU4LjEzODEsOTA3LjEzMjMgQzIxNjAuOTQ4MSw5MDIuNTIzNyAyMTYzLjk4MzYsOTAxLjc0NzkgMjE2Ny42MzM3LDkwNi4yNTc0IEMyMTcxLjcwOTEsOTAwLjU1MDMgMjE3NS4xNzg4LDkwMS4xMzI5IDIxNzkuMDQ1Myw5MDYuNDczMiBDMjE4Mi45MTQ5LDkwMC40NzA0IDIxODguMzA5Niw5MDEuMjQ2NSAyMTkxLjQxOTcsOTA3LjI1NTYgQzIxOTQuOTc5NSw5MDMuMDY3OSAyMTk4LjE0NDIsOTAzLjE3NTggMjIwMS42MjIxLDkwNy4zNTU1IEMyMjA0LjM0NDQsOTAxLjA5NzQgMjIwOC45NTUyLDkwMi4xMzQ4IDIyMTIuNTczNSw5MDYuNDI1MiBDMjIxNi4yNSw5MDIuMjEyOSAyMjIxLjA1MjQsOTAyLjUxNzggMjIyMy4zLDkwOC4wMDUzIEMyMjI1LjYwMjgsOTAyLjk3MTcgMjIzMC41MDg1LDkwMS40MzM2IDIyMzMuOTMwNiw5MDYuODY4OCBDMjIzOC4zNTksOTAwLjgzNDMgMjI0Mi40MzEsOTAyLjI5NTEgMjI0Ni4zMDMyLDkwNy40ODIgQzIyNTQuNTM0MSw5MTAuNzQ3NCAyMjUzLjEzMzIsOTE4LjExMTUgMjI0Ny4xMDI3LDkyMi4xNTQgQzIyNTIuNjg0NCw5MjYuNjc5MiAyMjUxLjMxNCw5MzIuODIxNyAyMjQ1LjI3NjYsOTM1Ljc5MTEgQzIyNDIuNjcwNSw5NDEuMDQ1IDIyMzcuODEwNSw5NDEuNTc0NSAyMjM0LjEyOTEsOTM3LjAxMjEgQzIyMzIuNTYzLDk0MS44NjA4IDIyMjkuMDcwOSw5NDMuNjY2OCAyMjI0Ljc2MjQsOTQwLjA0NDYgQzIyMjEuMTUzMyw5NDYuMDMxNSAyMjE3LjAyMjcsOTQ1LjUyNjggMjIxMy4xNTUsOTQwLjMxMjcgQzIyMDkuNjA0OSw5NDcuMTE2OSAyMjA1LjA5MDksOTQ3LjE3ODEgMjIwMC42MTQsOTQxLjIyMzYgQzIxOTcuODIxLDk0Ni4xODcyIDIxOTMuNzk5Miw5NDcuMDUzMiAyMTkwLjA5MzQsOTQyLjIwMiBDMjE4OC4xNzgxLDk0Ny41NTI1IDIxODQuNTQwNiw5NDguMjY4IDIxODAuMjg2Nyw5NDQuODAzOCBDMjE3NS43MDE4LDk0OS40MTczIDIxNzAuODU0Miw5NDkuMjA5MyAyMTY4LjE2NzcsOTQyLjcyOTkgQzIxNjQuNzIzOCw5NDcuNDE4OCAyMTYwLjg0MDUsOTQ3LjEzMTkgMjE1OC4xMTQ4LDk0MS45OTQ5IEMyMTU0LjE0NDUsOTQ4LjAyODcgMjE0OC43Mjk3LDk0Ny40ODU5IDIxNDUuODM4MSw5NDAuOTQyIEMyMTQxLjcxNjEsOTQ1LjgwOTUgMjEzNi45OTE2LDk0NC4zNzM0IDIxMzUuMDY5OCw5MzguNjk1NCBDMjEzMC42Mjg2LDk0Mi43ODQxIDIxMjYuNDc4NCw5NDIuNDAyNSAyMTIzLjUxNDEsOTM2LjkxMzQgQzIxMjAuMjExNCw5NDIuNDEzOSAyMTE1Ljk5MDUsOTQzLjI5MjcgMjExMi4wNjY0LDkzNy41NDYgQzIxMDIuNjQxNyw5MzUuOTc5IDIxMDAuNTg4Miw5MzAuNTg1OSAyMTA2LjcwMTUsOTIzLjIwNiBDMjEwMC41NzgzLDkxNS4zMTMgMjEwMy41MjUxLDkxMC42MzE0IDIxMTIuMzUyNiw5MDguNDczMSIgZmlsbD0iI0ZGRkZFMCIgc3R5bGU9InN0cm9rZTojRkZBNTAwO3N0cm9rZS13aWR0aDoxOyIvPjx0ZXh0IGZpbGw9IiMwMDAwMDAiIGZvbnQtZmFtaWx5PSJWZXJkYW5hIiBmb250LXNpemU9IjE0IiBsZW5ndGhBZGp1c3Q9InNwYWNpbmciIHRleHRMZW5ndGg9IjExOSIgeD0iMjExOC44NCIgeT0iOTI2Ljc4MTMiPkNETiBTdGF0aWMgQXNzZXRzPC90ZXh0PjwvZz48IS0tZW50aXR5IHJhZ19zZXJ2aWNlLS0+PGcgY2xhc3M9ImVudGl0eSIgZGF0YS1lbnRpdHk9InJhZ19zZXJ2aWNlIiBkYXRhLXNvdXJjZS1saW5lPSI2NSIgZGF0YS11aWQ9ImVudDAwMzQiIGlkPSJlbnRpdHlfcmFnX3NlcnZpY2UiPjxyZWN0IGZpbGw9IiNBREQ4RTYiIGhlaWdodD0iMzQuOTg0NCIgcng9IjIuNSIgcnk9IjIuNSIgc3R5bGU9InN0cm9rZTojMDAwMDAwO3N0cm9rZS13aWR0aDoxOyIgd2lkdGg9IjkwIiB4PSIyNTQyLjM0IiB5PSI2NTkuNTQ2OSIvPjx0ZXh0IGZpbGw9IiMwMDAwMDAiIGZvbnQtZmFtaWx5PSJWZXJkYW5hIiBmb250LXNpemU9IjE0IiBsZW5ndGhBZGp1c3Q9InNwYWNpbmciIHRleHRMZW5ndGg9IjcwIiB4PSIyNTUyLjM0IiB5PSI2ODIuNzgxMyI+UkFHIEVuZ2luZTwvdGV4dD48L2c+PCEtLWVudGl0eSBxZHJhbnQtLT48ZyBjbGFzcz0iZW50aXR5IiBkYXRhLWVudGl0eT0icWRyYW50IiBkYXRhLXNvdXJjZS1saW5lPSI2NiIgZGF0YS11aWQ9ImVudDAwMzUiIGlkPSJlbnRpdHlfcWRyYW50Ij48cGF0aCBkPSJNMjMwOC4zNCw4MDEuMDQ2OSBDMjMwOC4zNCw3OTEuMDQ2OSAyMzc0LjM0LDc5MS4wNDY5IDIzNzQuMzQsNzkxLjA0NjkgQzIzNzQuMzQsNzkxLjA0NjkgMjQ0MC4zNCw3OTEuMDQ2OSAyNDQwLjM0LDgwMS4wNDY5IEwyNDQwLjM0LDgyNS4wMzEzIEMyNDQwLjM0LDgzNS4wMzEzIDIzNzQuMzQsODM1LjAzMTMgMjM3NC4zNCw4MzUuMDMxMyBDMjM3NC4zNCw4MzUuMDMxMyAyMzA4LjM0LDgzNS4wMzEzIDIzMDguMzQsODI1LjAzMTMgTDIzMDguMzQsODAxLjA0NjkiIGZpbGw9IiNFMEZGRkYiIHN0eWxlPSJzdHJva2U6IzAwMDA4QjtzdHJva2Utd2lkdGg6MTsiLz48cGF0aCBkPSJNMjMwOC4zNCw4MDEuMDQ2OSBDMjMwOC4zNCw4MTEuMDQ2OSAyMzc0LjM0LDgxMS4wNDY5IDIzNzQuMzQsODExLjA0NjkgQzIzNzQuMzQsODExLjA0NjkgMjQ0MC4zNCw4MTEuMDQ2OSAyNDQwLjM0LDgwMS4wNDY5IiBmaWxsPSJub25lIiBzdHlsZT0ic3Ryb2tlOiMwMDAwOEI7c3Ryb2tlLXdpZHRoOjE7Ii8+PHRleHQgZmlsbD0iIzAwMDAwMCIgZm9udC1mYW1pbHk9IlZlcmRhbmEiIGZvbnQtc2l6ZT0iMTQiIGxlbmd0aEFkanVzdD0ic3BhY2luZyIgdGV4dExlbmd0aD0iMTEyIiB4PSIyMzE4LjM0IiB5PSI4MjguMjgxMyI+UWRyYW50IFZlY3RvciBEQjwvdGV4dD48L2c+PCEtLWVudGl0eSBrbm93bGVkZ2VfYmFzZS0tPjxnIGNsYXNzPSJlbnRpdHkiIGRhdGEtZW50aXR5PSJrbm93bGVkZ2VfYmFzZSIgZGF0YS1zb3VyY2UtbGluZT0iNjciIGRhdGEtdWlkPSJlbnQwMDM2IiBpZD0iZW50aXR5X2tub3dsZWRnZV9iYXNlIj48cGF0aCBkPSJNMjQ3NS4zNCw4MDEuMDQ2OSBDMjQ3NS4zNCw3OTEuMDQ2OSAyNTIwLjM0LDc5MS4wNDY5IDI1MjAuMzQsNzkxLjA0NjkgQzI1MjAuMzQsNzkxLjA0NjkgMjU2NS4zNCw3OTEuMDQ2OSAyNTY1LjM0LDgwMS4wNDY5IEwyNTY1LjM0LDgyNS4wMzEzIEMyNTY1LjM0LDgzNS4wMzEzIDI1MjAuMzQsODM1LjAzMTMgMjUyMC4zNCw4MzUuMDMxMyBDMjUyMC4zNCw4MzUuMDMxMyAyNDc1LjM0LDgzNS4wMzEzIDI0NzUuMzQsODI1LjAzMTMgTDI0NzUuMzQsODAxLjA0NjkiIGZpbGw9IiNFMEZGRkYiIHN0eWxlPSJzdHJva2U6IzAwMDA4QjtzdHJva2Utd2lkdGg6MTsiLz48cGF0aCBkPSJNMjQ3NS4zNCw4MDEuMDQ2OSBDMjQ3NS4zNCw4MTEuMDQ2OSAyNTIwLjM0LDgxMS4wNDY5IDI1MjAuMzQsODExLjA0NjkgQzI1MjAuMzQsODExLjA0NjkgMjU2NS4zNCw4MTEuMDQ2OSAyNTY1LjM0LDgwMS4wNDY5IiBmaWxsPSJub25lIiBzdHlsZT0ic3Ryb2tlOiMwMDAwOEI7c3Ryb2tlLXdpZHRoOjE7Ii8+PHRleHQgZmlsbD0iIzAwMDAwMCIgZm9udC1mYW1pbHk9IlZlcmRhbmEiIGZvbnQtc2l6ZT0iMTQiIGxlbmd0aEFkanVzdD0ic3BhY2luZyIgdGV4dExlbmd0aD0iNzAiIHg9IjI0ODUuMzQiIHk9IjgyOC4yODEzIj4mIzMyMDA1OyYjMjM0MTY7JiMzMDY5MzsmIzM1NjcyOyYjMjQyMzU7PC90ZXh0PjwvZz48IS0tZW50aXR5IGxsbV9hcGktLT48ZyBjbGFzcz0iZW50aXR5IiBkYXRhLWVudGl0eT0ibGxtX2FwaSIgZGF0YS1zb3VyY2UtbGluZT0iNjgiIGRhdGEtdWlkPSJlbnQwMDM3IiBpZD0iZW50aXR5X2xsbV9hcGkiPjxwYXRoIGQ9Ik0yNjA5Ljc0NjIsNzk5LjQwMTYgQzI2MTIuNjQ0Nyw3OTIuNjUwOCAyNjE3LjUzMjIsNzkyLjEyNzUgMjYyMS42MzQzLDc5OC4yOTM4IEMyNjI1LjQwOTcsNzkzLjYwMDEgMjYyOC45MDI4LDc5NC4yNDcgMjYzMS45NjM0LDc5OS4wNjk2IEMyNjM1LjExMTYsNzkzLjI5MTQgMjYzOC45MjgxLDc5My4yMTg4IDI2NDMuMTE3Niw3OTcuOTY2MSBDMjY0Ni44NzQsNzkyLjM3IDI2NTEuMjAwMSw3OTIuNjUwNCAyNjU0LjY3Myw3OTguMjU4NSBDMjY1OC4zNDkxLDc5Mi4zMzExIDI2NjMuMDY2OCw3OTIuNjYxNyAyNjY1LjkwNCw3OTkuMDI1MSBDMjY2OS41NzEzLDc5Mi44ODM2IDI2NzUuMTA5Nyw3OTQuMTU2OCAyNjc3LjgzNDIsNzk5Ljk2NjIgQzI2ODAuOTY2Niw3OTQuODAyNyAyNjg2LjAzOTEsNzk0LjIwNjUgMjY4OS4zMTAxLDc5OS44MTg1IEMyNjkyLjY4MDYsNzkzLjA0NDMgMjY5Ny43MjE4LDc5My4xMzM3IDI3MDIuMDM2LDc5OC44NTc2IEMyNzEwLjg4MjYsODAyLjM5NDEgMjcxMC43MzEsODEwLjExODUgMjcwMy4zNjczLDgxNC45OTI1IEMyNzA4Ljg0NzYsODIwLjQ2MjIgMjcwOC41MjcsODI0LjQ1MzcgMjcwMS4zNzEzLDgyNy45ODE4IEMyNjk5Ljc2MSw4MzQuOTA5NyAyNjk1LjY3MDMsODM1LjY5NDMgMjY5MC41NzQ3LDgzMS4zMDc2IEMyNjg3LjI2NDIsODM3LjIzMDEgMjY4Mi43MDk1LDgzOS4wNDA4IDI2NzcuNjkzMiw4MzMuMTcxIEMyNjc0Ljc4ODQsODM5LjE5MSAyNjcxLjQ4MjMsODQwLjg3NjQgMjY2Ni4xNDY4LDgzNS42NzEyIEMyNjYzLjcxNzcsODQxLjQyNyAyNjYwLjM1NCw4NDIuMjY3NCAyNjU1LjQzMjksODM4LjQ2NDEgQzI2NTAuNTcxLDg0Mi44MjMyIDI2NDUuNTkwMyw4NDIuMTcxIDI2NDMuNzE2OSw4MzUuMzM2MiBDMjYzOS42MDI2LDgzOS43NTQ0IDI2MzQuNDM4OSw4NDAuMDc1MSAyNjMyLjM0Miw4MzMuMjg4MyBDMjYyOC4yOTMyLDgzNy4xNzgzIDI2MjIuNjY5Niw4MzcuMDU0NCAyNjIxLjA0NzYsODMwLjYzMDggQzI2MTYuMTcxNSw4MzYuMzg1MyAyNjEyLjU2MTIsODM1Ljc1NCAyNjA5LjMzMTIsODI5LjA3OTEgQzI1OTkuNDkyOCw4MjguMDE5MiAyNTk4LjQ0MDIsODIzLjAwMTkgMjYwMS43MzAzLDgxNC45MDI4IEMyNTk3LjAwOTksODA1Ljg1NTMgMjYwMC43MjczLDgwMS4zNDQ0IDI2MDkuNzQ2Miw3OTkuNDAxNiIgZmlsbD0iI0ZGRkZFMCIgc3R5bGU9InN0cm9rZTojRkZBNTAwO3N0cm9rZS13aWR0aDoxOyIvPjx0ZXh0IGZpbGw9IiMwMDAwMDAiIGZvbnQtZmFtaWx5PSJWZXJkYW5hIiBmb250LXNpemU9IjE0IiBsZW5ndGhBZGp1c3Q9InNwYWNpbmciIHRleHRMZW5ndGg9Ijc3IiB4PSIyNjE1Ljg0IiB5PSI4MTguNzgxMyI+JiMyMjgwNjsmIzM3MDk2O0xMTSBBUEk8L3RleHQ+PC9nPjwhLS1lbnRpdHkgY2hhcmFjdGVyX3NlcnZpY2UtLT48ZyBjbGFzcz0iZW50aXR5IiBkYXRhLWVudGl0eT0iY2hhcmFjdGVyX3NlcnZpY2UiIGRhdGEtc291cmNlLWxpbmU9IjcyIiBkYXRhLXVpZD0iZW50MDAzOSIgaWQ9ImVudGl0eV9jaGFyYWN0ZXJfc2VydmljZSI+PHJlY3QgZmlsbD0iI0FERDhFNiIgaGVpZ2h0PSIzNC45ODQ0IiByeD0iMi41IiByeT0iMi41IiBzdHlsZT0ic3Ryb2tlOiMwMDAwMDA7c3Ryb2tlLXdpZHRoOjE7IiB3aWR0aD0iMTM5IiB4PSIzNDMwLjg0IiB5PSI3OTUuNTQ2OSIvPjx0ZXh0IGZpbGw9IiMwMDAwMDAiIGZvbnQtZmFtaWx5PSJWZXJkYW5hIiBmb250LXNpemU9IjE0IiBsZW5ndGhBZGp1c3Q9InNwYWNpbmciIHRleHRMZW5ndGg9IjExOSIgeD0iMzQ0MC44NCIgeT0iODE4Ljc4MTMiPkNoYXJhY3RlciBTZXJ2aWNlPC90ZXh0PjwvZz48IS0tZW50aXR5IG5lbzRqLS0+PGcgY2xhc3M9ImVudGl0eSIgZGF0YS1lbnRpdHk9Im5lbzRqIiBkYXRhLXNvdXJjZS1saW5lPSI3MyIgZGF0YS11aWQ9ImVudDAwNDAiIGlkPSJlbnRpdHlfbmVvNGoiPjxwYXRoIGQ9Ik0zNDQxLjM0LDkwOS4wNDY5IEMzNDQxLjM0LDg5OS4wNDY5IDM1MDAuMzQsODk5LjA0NjkgMzUwMC4zNCw4OTkuMDQ2OSBDMzUwMC4zNCw4OTkuMDQ2OSAzNTU5LjM0LDg5OS4wNDY5IDM1NTkuMzQsOTA5LjA0NjkgTDM1NTkuMzQsOTMzLjAzMTMgQzM1NTkuMzQsOTQzLjAzMTMgMzUwMC4zNCw5NDMuMDMxMyAzNTAwLjM0LDk0My4wMzEzIEMzNTAwLjM0LDk0My4wMzEzIDM0NDEuMzQsOTQzLjAzMTMgMzQ0MS4zNCw5MzMuMDMxMyBMMzQ0MS4zNCw5MDkuMDQ2OSIgZmlsbD0iI0UwRkZGRiIgc3R5bGU9InN0cm9rZTojMDAwMDhCO3N0cm9rZS13aWR0aDoxOyIvPjxwYXRoIGQ9Ik0zNDQxLjM0LDkwOS4wNDY5IEMzNDQxLjM0LDkxOS4wNDY5IDM1MDAuMzQsOTE5LjA0NjkgMzUwMC4zNCw5MTkuMDQ2OSBDMzUwMC4zNCw5MTkuMDQ2OSAzNTU5LjM0LDkxOS4wNDY5IDM1NTkuMzQsOTA5LjA0NjkiIGZpbGw9Im5vbmUiIHN0eWxlPSJzdHJva2U6IzAwMDA4QjtzdHJva2Utd2lkdGg6MTsiLz48dGV4dCBmaWxsPSIjMDAwMDAwIiBmb250LWZhbWlseT0iVmVyZGFuYSIgZm9udC1zaXplPSIxNCIgbGVuZ3RoQWRqdXN0PSJzcGFjaW5nIiB0ZXh0TGVuZ3RoPSI5OCIgeD0iMzQ1MS4zNCIgeT0iOTM2LjI4MTMiPk5lbzRqIEdyYXBoIERCPC90ZXh0PjwvZz48IS0tZW50aXR5IGNvbW11bml0eV9zZXJ2aWNlLS0+PGcgY2xhc3M9ImVudGl0eSIgZGF0YS1lbnRpdHk9ImNvbW11bml0eV9zZXJ2aWNlIiBkYXRhLXNvdXJjZS1saW5lPSI3NyIgZGF0YS11aWQ9ImVudDAwNDIiIGlkPSJlbnRpdHlfY29tbXVuaXR5X3NlcnZpY2UiPjxyZWN0IGZpbGw9IiNBREQ4RTYiIGhlaWdodD0iMzQuOTg0NCIgcng9IjIuNSIgcnk9IjIuNSIgc3R5bGU9InN0cm9rZTojMDAwMDAwO3N0cm9rZS13aWR0aDoxOyIgd2lkdGg9IjEzOSIgeD0iMjk3NS44NCIgeT0iNjU5LjU0NjkiLz48dGV4dCBmaWxsPSIjMDAwMDAwIiBmb250LWZhbWlseT0iVmVyZGFuYSIgZm9udC1zaXplPSIxNCIgbGVuZ3RoQWRqdXN0PSJzcGFjaW5nIiB0ZXh0TGVuZ3RoPSIxMTkiIHg9IjI5ODUuODQiIHk9IjY4Mi43ODEzIj5Db21tdW5pdHkgU2VydmljZTwvdGV4dD48L2c+PCEtLWVudGl0eSBwb3N0Z3Jlc19jb21tdW5pdHktLT48ZyBjbGFzcz0iZW50aXR5IiBkYXRhLWVudGl0eT0icG9zdGdyZXNfY29tbXVuaXR5IiBkYXRhLXNvdXJjZS1saW5lPSI3OCIgZGF0YS11aWQ9ImVudDAwNDMiIGlkPSJlbnRpdHlfcG9zdGdyZXNfY29tbXVuaXR5Ij48cGF0aCBkPSJNMjk1NC44NCw4MDEuMDQ2OSBDMjk1NC44NCw3OTEuMDQ2OSAzMDQ1LjM0LDc5MS4wNDY5IDMwNDUuMzQsNzkxLjA0NjkgQzMwNDUuMzQsNzkxLjA0NjkgMzEzNS44NCw3OTEuMDQ2OSAzMTM1Ljg0LDgwMS4wNDY5IEwzMTM1Ljg0LDgyNS4wMzEzIEMzMTM1Ljg0LDgzNS4wMzEzIDMwNDUuMzQsODM1LjAzMTMgMzA0NS4zNCw4MzUuMDMxMyBDMzA0NS4zNCw4MzUuMDMxMyAyOTU0Ljg0LDgzNS4wMzEzIDI5NTQuODQsODI1LjAzMTMgTDI5NTQuODQsODAxLjA0NjkiIGZpbGw9IiNFMEZGRkYiIHN0eWxlPSJzdHJva2U6IzAwMDA4QjtzdHJva2Utd2lkdGg6MTsiLz48cGF0aCBkPSJNMjk1NC44NCw4MDEuMDQ2OSBDMjk1NC44NCw4MTEuMDQ2OSAzMDQ1LjM0LDgxMS4wNDY5IDMwNDUuMzQsODExLjA0NjkgQzMwNDUuMzQsODExLjA0NjkgMzEzNS44NCw4MTEuMDQ2OSAzMTM1Ljg0LDgwMS4wNDY5IiBmaWxsPSJub25lIiBzdHlsZT0ic3Ryb2tlOiMwMDAwOEI7c3Ryb2tlLXdpZHRoOjE7Ii8+PHRleHQgZmlsbD0iIzAwMDAwMCIgZm9udC1mYW1pbHk9IlZlcmRhbmEiIGZvbnQtc2l6ZT0iMTQiIGxlbmd0aEFkanVzdD0ic3BhY2luZyIgdGV4dExlbmd0aD0iMTYxIiB4PSIyOTY0Ljg0IiB5PSI4MjguMjgxMyI+UG9zdGdyZVNRTCBDb21tdW5pdHkgREI8L3RleHQ+PC9nPjwhLS1lbnRpdHkgZmlsZV9zZXJ2aWNlLS0+PGcgY2xhc3M9ImVudGl0eSIgZGF0YS1lbnRpdHk9ImZpbGVfc2VydmljZSIgZGF0YS1zb3VyY2UtbGluZT0iODIiIGRhdGEtdWlkPSJlbnQwMDQ1IiBpZD0iZW50aXR5X2ZpbGVfc2VydmljZSI+PHJlY3QgZmlsbD0iI0FERDhFNiIgaGVpZ2h0PSIzNC45ODQ0IiByeD0iMi41IiByeT0iMi41IiBzdHlsZT0ic3Ryb2tlOiMwMDAwMDA7c3Ryb2tlLXdpZHRoOjE7IiB3aWR0aD0iMTgxIiB4PSIzMTkyLjg0IiB5PSI2NTkuNTQ2OSIvPjx0ZXh0IGZpbGw9IiMwMDAwMDAiIGZvbnQtZmFtaWx5PSJWZXJkYW5hIiBmb250LXNpemU9IjE0IiBsZW5ndGhBZGp1c3Q9InNwYWNpbmciIHRleHRMZW5ndGg9IjE2MSIgeD0iMzIwMi44NCIgeT0iNjgyLjc4MTMiPkZpbGUgTWFuYWdlbWVudCBTZXJ2aWNlPC90ZXh0PjwvZz48IS0tZW50aXR5IGNsb3VkX3N0b3JhZ2UtLT48ZyBjbGFzcz0iZW50aXR5IiBkYXRhLWVudGl0eT0iY2xvdWRfc3RvcmFnZSIgZGF0YS1zb3VyY2UtbGluZT0iODMiIGRhdGEtdWlkPSJlbnQwMDQ2IiBpZD0iZW50aXR5X2Nsb3VkX3N0b3JhZ2UiPjxwYXRoIGQ9Ik0zMjMxLjkwODcsODAwLjU0MjggQzMyMzUuMTMxNyw3OTMuMTM5NiAzMjQxLjE2ODksNzk0LjI0NTkgMzI0NS4wNTUsNzk5Ljg3MzcgQzMyNDkuMDU4NSw3OTIuODQyMyAzMjUzLjA2NzYsNzkyLjc0MTYgMzI1OC4zMDU2LDc5OC42MDUxIEMzMjYxLjI3ODIsNzkyLjUxMyAzMjY3LjI1MjMsNzkyLjIwNDYgMzI3MC45NTA4LDc5Ny44MjExIEMzMjc0LjMwOTgsNzkxLjAyMTggMzI3OS44ODMxLDc5MS42NDM1IDMyODMuMzYxNSw3OTcuNzA1OCBDMzI4Ny40MzY2LDc5Mi4wMDU3IDMyOTIuODI4OSw3OTIuMDQ2NyAzMjk2LjU3NSw3OTguMDc2NSBDMzMwMi4zNjIxLDc5MC45MjIyIDMzMDYuNzAxOSw3OTIuNTg1NSAzMzExLjMyNzMsNzk5LjMxMTIgQzMzMTQuMTk4NCw3OTIuOTY4MyAzMzIwLjE1ODIsNzkzLjQwOTcgMzMyMy40NTg3LDc5OC44Njk3IEMzMzI3LjI4ODEsNzkyLjY3NjggMzMzMy44MjcyLDc5Mi41Nzc1IDMzMzcuNDA3Nyw3OTkuMTQxOSBDMzM0Ny4xNDA4LDgwMC4wNjk2IDMzNDguMjQ2Myw4MDYuOTQ3NyAzMzQzLjUyNyw4MTMuODc3MiBDMzM0OS4xNTQzLDgyMS4xMTk2IDMzNDYuMjM5LDgyNi4zNzk0IDMzMzcuOTUxLDgyOC4yMDcgQzMzMzQuNTg0Niw4MzYuMjg3NSAzMzMwLjMxNzgsODM3LjczMDQgMzMyMy44NDUxLDgzMS4yMDc3IEMzMzE5LjgxMTIsODM4LjE2MDYgMzMxNC4zNzIzLDgzOC41Njc0IDMzMTAuMzc5Niw4MzEuMTY5MSBDMzMwNi45MTc4LDgzNy42NjI5IDMzMDIuNzMwMSw4NDAuMDMyIDMyOTYuNjczOSw4MzQuMDEwMiBDMzI5My41NTM5LDg0MC44MTI0IDMyODguNzc1Myw4NDAuNzMzMyAzMjgzLjg5NTksODM1Ljk1MDggQzMyNzguMzMyMSw4NDEuMTU3NyAzMjczLjkyNzEsODM5LjU2NDYgMzI3MS42ODk2LDgzMi42MTE4IEMzMjY3Ljc2MzksODM4Ljk5MzggMzI2Mi42NjQ3LDgzOC40NTExIDMyNTkuMTY2OSw4MzIuMTg4MSBDMzI1NC45OTYsODM4LjMxNjQgMzI0OC40MzYsODM3LjY0NzkgMzI0NS4yNzQ0LDgzMS4wODM1IEMzMjM4Ljk0MDYsODM2LjAxMjkgMzIzNC44MTYyLDgzNC45MjA4IDMyMzEuNjUwOCw4MjcuNTY4OSBDMzIyNC44NDUsODI0LjU5NzEgMzIyNC43MTUsODE4Ljk4NTggMzIzMC40NzMsODE0Ljg1MDQgQzMyMjQuOTM0Myw4MDkuODQ5OSAzMjI0LjYzNDUsODA0LjI1NzcgMzIzMS45MDg3LDgwMC41NDI4IiBmaWxsPSIjRkZGRkUwIiBzdHlsZT0ic3Ryb2tlOiNGRkE1MDA7c3Ryb2tlLXdpZHRoOjE7Ii8+PHRleHQgZmlsbD0iIzAwMDAwMCIgZm9udC1mYW1pbHk9IlZlcmRhbmEiIGZvbnQtc2l6ZT0iMTQiIGxlbmd0aEFkanVzdD0ic3BhY2luZyIgdGV4dExlbmd0aD0iOTEiIHg9IjMyMzcuODQiIHk9IjgxOC43ODEzIj5DbG91ZCBTdG9yYWdlPC90ZXh0PjwvZz48IS0tZW50aXR5IG5vdGlmaWNhdGlvbl9zZXJ2aWNlLS0+PGcgY2xhc3M9ImVudGl0eSIgZGF0YS1lbnRpdHk9Im5vdGlmaWNhdGlvbl9zZXJ2aWNlIiBkYXRhLXNvdXJjZS1saW5lPSI4NyIgZGF0YS11aWQ9ImVudDAwNDgiIGlkPSJlbnRpdHlfbm90aWZpY2F0aW9uX3NlcnZpY2UiPjxyZWN0IGZpbGw9IiNBREQ4RTYiIGhlaWdodD0iMzQuOTg0NCIgcng9IjIuNSIgcnk9IjIuNSIgc3R5bGU9InN0cm9rZTojMDAwMDAwO3N0cm9rZS13aWR0aDoxOyIgd2lkdGg9IjE2MCIgeD0iNzkzLjM0IiB5PSI2NTkuNTQ2OSIvPjx0ZXh0IGZpbGw9IiMwMDAwMDAiIGZvbnQtZmFtaWx5PSJWZXJkYW5hIiBmb250LXNpemU9IjE0IiBsZW5ndGhBZGp1c3Q9InNwYWNpbmciIHRleHRMZW5ndGg9IjE0MCIgeD0iODAzLjM0IiB5PSI2ODIuNzgxMyI+Tm90aWZpY2F0aW9uIFNlcnZpY2U8L3RleHQ+PC9nPjwhLS1lbnRpdHkgbWVzc2FnZV9xdWV1ZS0tPjxnIGNsYXNzPSJlbnRpdHkiIGRhdGEtZW50aXR5PSJtZXNzYWdlX3F1ZXVlIiBkYXRhLXNvdXJjZS1saW5lPSI4OCIgZGF0YS11aWQ9ImVudDAwNDkiIGlkPSJlbnRpdHlfbWVzc2FnZV9xdWV1ZSI+PHBhdGggZD0iTTgxNy44NCw4MDEuMDQ2OSBDODE3Ljg0LDc5MS4wNDY5IDg3My4zNCw3OTEuMDQ2OSA4NzMuMzQsNzkxLjA0NjkgQzg3My4zNCw3OTEuMDQ2OSA5MjguODQsNzkxLjA0NjkgOTI4Ljg0LDgwMS4wNDY5IEw5MjguODQsODI1LjAzMTMgQzkyOC44NCw4MzUuMDMxMyA4NzMuMzQsODM1LjAzMTMgODczLjM0LDgzNS4wMzEzIEM4NzMuMzQsODM1LjAzMTMgODE3Ljg0LDgzNS4wMzEzIDgxNy44NCw4MjUuMDMxMyBMODE3Ljg0LDgwMS4wNDY5IiBmaWxsPSIjRTBGRkZGIiBzdHlsZT0ic3Ryb2tlOiMwMDAwOEI7c3Ryb2tlLXdpZHRoOjE7Ii8+PHBhdGggZD0iTTgxNy44NCw4MDEuMDQ2OSBDODE3Ljg0LDgxMS4wNDY5IDg3My4zNCw4MTEuMDQ2OSA4NzMuMzQsODExLjA0NjkgQzg3My4zNCw4MTEuMDQ2OSA5MjguODQsODExLjA0NjkgOTI4Ljg0LDgwMS4wNDY5IiBmaWxsPSJub25lIiBzdHlsZT0ic3Ryb2tlOiMwMDAwOEI7c3Ryb2tlLXdpZHRoOjE7Ii8+PHRleHQgZmlsbD0iIzAwMDAwMCIgZm9udC1mYW1pbHk9IlZlcmRhbmEiIGZvbnQtc2l6ZT0iMTQiIGxlbmd0aEFkanVzdD0ic3BhY2luZyIgdGV4dExlbmd0aD0iOTEiIHg9IjgyNy44NCIgeT0iODI4LjI4MTMiPk1lc3NhZ2UgUXVldWU8L3RleHQ+PC9nPjwhLS1lbnRpdHkgb2F1dGhfcHJvdmlkZXJzLS0+PGcgY2xhc3M9ImVudGl0eSIgZGF0YS1lbnRpdHk9Im9hdXRoX3Byb3ZpZGVycyIgZGF0YS1zb3VyY2UtbGluZT0iOTMiIGRhdGEtdWlkPSJlbnQwMDUxIiBpZD0iZW50aXR5X29hdXRoX3Byb3ZpZGVycyI+PHBhdGggZD0iTTYxNS43NDYyLDc5OS40MDE2IEM2MTguNjQ0Nyw3OTIuNjUwOCA2MjMuNTMyMiw3OTIuMTI3NSA2MjcuNjM0Myw3OTguMjkzOCBDNjMxLjQwOTcsNzkzLjYwMDEgNjM0LjkwMjgsNzk0LjI0NyA2MzcuOTYzNCw3OTkuMDY5NiBDNjQxLjExMTYsNzkzLjI5MTQgNjQ0LjkyODEsNzkzLjIxODggNjQ5LjExNzYsNzk3Ljk2NjEgQzY1Mi44NzQsNzkyLjM3IDY1Ny4yMDAxLDc5Mi42NTA0IDY2MC42NzMsNzk4LjI1ODUgQzY2NC4zNDkxLDc5Mi4zMzExIDY2OS4wNjY4LDc5Mi42NjE3IDY3MS45MDQsNzk5LjAyNTEgQzY3NS41NzEzLDc5Mi44ODM2IDY4MS4xMDk3LDc5NC4xNTY4IDY4My44MzQyLDc5OS45NjYyIEM2ODYuOTY2Niw3OTQuODAyNyA2OTIuMDM5MSw3OTQuMjA2NSA2OTUuMzEwMSw3OTkuODE4NSBDNjk4LjY4MDYsNzkzLjA0NDMgNzAzLjcyMTgsNzkzLjEzMzcgNzA4LjAzNiw3OTguODU3NiBDNzE2Ljg4MjYsODAyLjM5NDEgNzE2LjczMSw4MTAuMTE4NSA3MDkuMzY3Myw4MTQuOTkyNSBDNzE0Ljg0NzYsODIwLjQ2MjIgNzE0LjUyNyw4MjQuNDUzNyA3MDcuMzcxMyw4MjcuOTgxOCBDNzA1Ljc2MSw4MzQuOTA5NyA3MDEuNjcwMyw4MzUuNjk0MyA2OTYuNTc0Nyw4MzEuMzA3NiBDNjkzLjI2NDIsODM3LjIzMDEgNjg4LjcwOTUsODM5LjA0MDggNjgzLjY5MzIsODMzLjE3MSBDNjgwLjc4ODQsODM5LjE5MSA2NzcuNDgyMyw4NDAuODc2NCA2NzIuMTQ2OCw4MzUuNjcxMiBDNjY5LjcxNzcsODQxLjQyNyA2NjYuMzU0LDg0Mi4yNjc0IDY2MS40MzI5LDgzOC40NjQxIEM2NTYuNTcxLDg0Mi44MjMyIDY1MS41OTAzLDg0Mi4xNzEgNjQ5LjcxNjksODM1LjMzNjIgQzY0NS42MDI2LDgzOS43NTQ0IDY0MC40Mzg5LDg0MC4wNzUxIDYzOC4zNDIsODMzLjI4ODMgQzYzNC4yOTMyLDgzNy4xNzgzIDYyOC42Njk2LDgzNy4wNTQ0IDYyNy4wNDc2LDgzMC42MzA4IEM2MjIuMTcxNSw4MzYuMzg1MyA2MTguNTYxMiw4MzUuNzU0IDYxNS4zMzEyLDgyOS4wNzkxIEM2MDUuNDkyOCw4MjguMDE5MiA2MDQuNDQwMiw4MjMuMDAxOSA2MDcuNzMwMyw4MTQuOTAyOCBDNjAzLjAwOTksODA1Ljg1NTMgNjA2LjcyNzMsODAxLjM0NDQgNjE1Ljc0NjIsNzk5LjQwMTYiIGZpbGw9IiNGRkZGRTAiIHN0eWxlPSJzdHJva2U6I0ZGQTUwMDtzdHJva2Utd2lkdGg6MTsiLz48dGV4dCBmaWxsPSIjMDAwMDAwIiBmb250LWZhbWlseT0iVmVyZGFuYSIgZm9udC1zaXplPSIxNCIgbGVuZ3RoQWRqdXN0PSJzcGFjaW5nIiB0ZXh0TGVuZ3RoPSI3NyIgeD0iNjIxLjg0IiB5PSI4MTguNzgxMyI+T0F1dGgmIzI1NTUyOyYjMjAzNzk7JiMyMTgzMDs8L3RleHQ+PC9nPjwhLS1lbnRpdHkgZW1haWxfc2VydmljZS0tPjxnIGNsYXNzPSJlbnRpdHkiIGRhdGEtZW50aXR5PSJlbWFpbF9zZXJ2aWNlIiBkYXRhLXNvdXJjZS1saW5lPSI5NCIgZGF0YS11aWQ9ImVudDAwNTIiIGlkPSJlbnRpdHlfZW1haWxfc2VydmljZSI+PHBhdGggZD0iTTM3Mi45NDkyLDgwMC4wMDI4IEMzNzUuNjI3Nyw3OTQuNDQ3MyAzODAuMjU0Nyw3OTIuNTA4MyAzODQuNTU3Miw3OTguMzQ4NSBDMzg5LjE2OTMsNzkzLjI5MTQgMzkzLjU3MjEsNzkyLjkwMTIgMzk2LjkzMDgsNzk5LjY2MSBDNDAwLjMxNzksNzk0LjM1NjUgNDA0Ljg4MDYsNzkzLjc1MSA0MDguNjA0Miw3OTkuMjk5IEM0MTIuMTE4OSw3OTQuNzk3OSA0MTUuODU4LDc5NC41Nzc5IDQxOS4yMzg4LDc5OS40NTA5IEM0MjMuMDkyNyw3OTIuODYgNDI3LjE4MjUsNzkyLjg0MjMgNDMxLjc1MjksNzk4LjczMjQgQzQzNC43NDksNzkzLjMyNSA0NDAuMTI5OCw3OTQuMDI0NSA0NDIuNzc3OSw3OTkuMDk4NCBDNDUyLjE5ODcsODAxLjA0OTcgNDU2LjMxNzQsODA1Ljc0MzEgNDUwLjkyODksODE1LjE5NCBDNDU1LjczOTgsODIyLjkyODIgNDUxLjM3NDgsODI5LjEzNjQgNDQyLjY0NjIsODI4LjMzOTkgQzQ0MS40ODMsODM1LjAyNDIgNDM1Ljk0Myw4MzYuMzQyOSA0MzEuNTIyMyw4MzEuNDc3MyBDNDI5LjEwMzcsODM2LjYwMzQgNDIzLjQzNzksODM3Ljc2MTIgNDE5Ljg1NTYsODMyLjgyNjkgQzQxNy4xMjY5LDgzOC4xOTc3IDQxMi4yNjQ2LDgzOS45OTQ5IDQwNy45ODU1LDgzNC41MjQ1IEM0MDMuMjg2LDgzOS4wNTg1IDM5OS40MTU2LDgzOS4xMTY1IDM5Ni40OTA4LDgzMi42NjcyIEMzOTIuMjUwNCw4MzguMjIyMyAzODcuNzg2Myw4MzcuNDk4MiAzODUuMTg3Myw4MzEuMTEzMyBDMzgxLjI0MDYsODM1Ljc5NzYgMzc2LjE3MjEsODM0LjI3NzQgMzc0LjUzMjUsODI4LjcxNDUgQzM2NC4yMzk2LDgyOC41MDAyIDM2MS4zODUyLDgyMS44MTQ0IDM2Ni43NTE5LDgxMy41NjAxIEMzNjIuMzE2Niw4MDUuOTI5NSAzNjQuMzc3OSw4MDEuNjg3OCAzNzIuOTQ5Miw4MDAuMDAyOCIgZmlsbD0iI0ZGRkZFMCIgc3R5bGU9InN0cm9rZTojRkZBNTAwO3N0cm9rZS13aWR0aDoxOyIvPjx0ZXh0IGZpbGw9IiMwMDAwMDAiIGZvbnQtZmFtaWx5PSJWZXJkYW5hIiBmb250LXNpemU9IjE0IiBsZW5ndGhBZGp1c3Q9InNwYWNpbmciIHRleHRMZW5ndGg9IjU2IiB4PSIzNzkuMzQiIHk9IjgxOC43ODEzIj4mIzM3MTA5OyYjMjAyMTQ7JiMyNjM4MTsmIzIxMjA5OzwvdGV4dD48L2c+PCEtLWVudGl0eSBwdXNoX3NlcnZpY2UtLT48ZyBjbGFzcz0iZW50aXR5IiBkYXRhLWVudGl0eT0icHVzaF9zZXJ2aWNlIiBkYXRhLXNvdXJjZS1saW5lPSI5NSIgZGF0YS11aWQ9ImVudDAwNTMiIGlkPSJlbnRpdHlfcHVzaF9zZXJ2aWNlIj48cGF0aCBkPSJNNDkzLjk0OTIsODAwLjAwMjggQzQ5Ni42Mjc3LDc5NC40NDczIDUwMS4yNTQ3LDc5Mi41MDgzIDUwNS41NTcyLDc5OC4zNDg1IEM1MTAuMTY5Myw3OTMuMjkxNCA1MTQuNTcyMSw3OTIuOTAxMiA1MTcuOTMwOCw3OTkuNjYxIEM1MjEuMzE3OSw3OTQuMzU2NSA1MjUuODgwNiw3OTMuNzUxIDUyOS42MDQyLDc5OS4yOTkgQzUzMy4xMTg5LDc5NC43OTc5IDUzNi44NTgsNzk0LjU3NzkgNTQwLjIzODgsNzk5LjQ1MDkgQzU0NC4wOTI3LDc5Mi44NiA1NDguMTgyNSw3OTIuODQyMyA1NTIuNzUyOSw3OTguNzMyNCBDNTU1Ljc0OSw3OTMuMzI1IDU2MS4xMjk4LDc5NC4wMjQ1IDU2My43Nzc5LDc5OS4wOTg0IEM1NzMuMTk4Nyw4MDEuMDQ5NyA1NzcuMzE3NCw4MDUuNzQzMSA1NzEuOTI4OSw4MTUuMTk0IEM1NzYuNzM5OCw4MjIuOTI4MiA1NzIuMzc0OCw4MjkuMTM2NCA1NjMuNjQ2Miw4MjguMzM5OSBDNTYyLjQ4Myw4MzUuMDI0MiA1NTYuOTQzLDgzNi4zNDI5IDU1Mi41MjIzLDgzMS40NzczIEM1NTAuMTAzNyw4MzYuNjAzNCA1NDQuNDM3OSw4MzcuNzYxMiA1NDAuODU1Niw4MzIuODI2OSBDNTM4LjEyNjksODM4LjE5NzcgNTMzLjI2NDYsODM5Ljk5NDkgNTI4Ljk4NTUsODM0LjUyNDUgQzUyNC4yODYsODM5LjA1ODUgNTIwLjQxNTYsODM5LjExNjUgNTE3LjQ5MDgsODMyLjY2NzIgQzUxMy4yNTA0LDgzOC4yMjIzIDUwOC43ODYzLDgzNy40OTgyIDUwNi4xODczLDgzMS4xMTMzIEM1MDIuMjQwNiw4MzUuNzk3NiA0OTcuMTcyMSw4MzQuMjc3NCA0OTUuNTMyNSw4MjguNzE0NSBDNDg1LjIzOTYsODI4LjUwMDIgNDgyLjM4NTIsODIxLjgxNDQgNDg3Ljc1MTksODEzLjU2MDEgQzQ4My4zMTY2LDgwNS45Mjk1IDQ4NS4zNzc5LDgwMS42ODc4IDQ5My45NDkyLDgwMC4wMDI4IiBmaWxsPSIjRkZGRkUwIiBzdHlsZT0ic3Ryb2tlOiNGRkE1MDA7c3Ryb2tlLXdpZHRoOjE7Ii8+PHRleHQgZmlsbD0iIzAwMDAwMCIgZm9udC1mYW1pbHk9IlZlcmRhbmEiIGZvbnQtc2l6ZT0iMTQiIGxlbmd0aEFkanVzdD0ic3BhY2luZyIgdGV4dExlbmd0aD0iNTYiIHg9IjUwMC4zNCIgeT0iODE4Ljc4MTMiPiYjMjU1MTI7JiMyNTc3MzsmIzI2MzgxOyYjMjEyMDk7PC90ZXh0PjwvZz48IS0tZW50aXR5IG1vbml0b3Jpbmdfc3lzLS0+PGcgY2xhc3M9ImVudGl0eSIgZGF0YS1lbnRpdHk9Im1vbml0b3Jpbmdfc3lzIiBkYXRhLXNvdXJjZS1saW5lPSI5OSIgZGF0YS11aWQ9ImVudDAwNTUiIGlkPSJlbnRpdHlfbW9uaXRvcmluZ19zeXMiPjxyZWN0IGZpbGw9IiNBREQ4RTYiIGhlaWdodD0iMzQuOTg0NCIgcng9IjIuNSIgcnk9IjIuNSIgc3R5bGU9InN0cm9rZTojMDAwMDAwO3N0cm9rZS13aWR0aDoxOyIgd2lkdGg9Ijc2IiB4PSIzMzgxLjM0IiB5PSI0OTguNTQ2OSIvPjx0ZXh0IGZpbGw9IiMwMDAwMDAiIGZvbnQtZmFtaWx5PSJWZXJkYW5hIiBmb250LXNpemU9IjE0IiBsZW5ndGhBZGp1c3Q9InNwYWNpbmciIHRleHRMZW5ndGg9IjU2IiB4PSIzMzkxLjM0IiB5PSI1MjEuNzgxMyI+JiMzMDQzNTsmIzI1NTExOyYjMzE5OTU7JiMzMjExMzs8L3RleHQ+PC9nPjwhLS1lbnRpdHkgbG9nZ2luZ19zeXMtLT48ZyBjbGFzcz0iZW50aXR5IiBkYXRhLWVudGl0eT0ibG9nZ2luZ19zeXMiIGRhdGEtc291cmNlLWxpbmU9IjEwMCIgZGF0YS11aWQ9ImVudDAwNTYiIGlkPSJlbnRpdHlfbG9nZ2luZ19zeXMiPjxyZWN0IGZpbGw9IiNBREQ4RTYiIGhlaWdodD0iMzQuOTg0NCIgcng9IjIuNSIgcnk9IjIuNSIgc3R5bGU9InN0cm9rZTojMDAwMDAwO3N0cm9rZS13aWR0aDoxOyIgd2lkdGg9Ijc2IiB4PSIzMjcwLjM0IiB5PSI0OTguNTQ2OSIvPjx0ZXh0IGZpbGw9IiMwMDAwMDAiIGZvbnQtZmFtaWx5PSJWZXJkYW5hIiBmb250LXNpemU9IjE0IiBsZW5ndGhBZGp1c3Q9InNwYWNpbmciIHRleHRMZW5ndGg9IjU2IiB4PSIzMjgwLjM0IiB5PSI1MjEuNzgxMyI+JiMyNjA4NTsmIzM1NDY4OyYjMzE5OTU7JiMzMjExMzs8L3RleHQ+PC9nPjwhLS1lbnRpdHkgZXJyb3JfdHJhY2tpbmctLT48ZyBjbGFzcz0iZW50aXR5IiBkYXRhLWVudGl0eT0iZXJyb3JfdHJhY2tpbmciIGRhdGEtc291cmNlLWxpbmU9IjEwMSIgZGF0YS11aWQ9ImVudDAwNTciIGlkPSJlbnRpdHlfZXJyb3JfdHJhY2tpbmciPjxyZWN0IGZpbGw9IiNBREQ4RTYiIGhlaWdodD0iMzQuOTg0NCIgcng9IjIuNSIgcnk9IjIuNSIgc3R5bGU9InN0cm9rZTojMDAwMDAwO3N0cm9rZS13aWR0aDoxOyIgd2lkdGg9Ijc2IiB4PSIzMTU5LjM0IiB5PSI0OTguNTQ2OSIvPjx0ZXh0IGZpbGw9IiMwMDAwMDAiIGZvbnQtZmFtaWx5PSJWZXJkYW5hIiBmb250LXNpemU9IjE0IiBsZW5ndGhBZGp1c3Q9InNwYWNpbmciIHRleHRMZW5ndGg9IjU2IiB4PSIzMTY5LjM0IiB5PSI1MjEuNzgxMyI+JiMzNzY3OTsmIzM1NDkyOyYjMzY4NjE7JiMzNjQ1Mjs8L3RleHQ+PC9nPjwhLS1saW5rIHdlbGNvbWVfcGFnZSB0byBhdXRoX3BhZ2UtLT48ZyBjbGFzcz0ibGluayIgZGF0YS1lbnRpdHktMT0id2VsY29tZV9wYWdlIiBkYXRhLWVudGl0eS0yPSJhdXRoX3BhZ2UiIGRhdGEtc291cmNlLWxpbmU9IjEwNSIgZGF0YS11aWQ9ImxuazU4IiBpZD0ibGlua193ZWxjb21lX3BhZ2VfYXV0aF9wYWdlIj48cGF0aCBjb2RlTGluZT0iMTA1IiBkPSJNODQ5LjM0LDEyMy44NTY5IEM4NDkuMzQsMTQwLjk2NjkgODQ5LjM0LDE2MS4zMjY5IDg0OS4zNCwxNzguMzg2OSIgZmlsbD0ibm9uZSIgaWQ9IndlbGNvbWVfcGFnZS10by1hdXRoX3BhZ2UiIHN0eWxlPSJzdHJva2U6IzAwMDAwMDtzdHJva2Utd2lkdGg6MTsiLz48cG9seWdvbiBmaWxsPSIjMDAwMDAwIiBwb2ludHM9Ijg0OS4zNCwxODQuMzg2OSw4NTMuMzQsMTc1LjM4NjksODQ5LjM0LDE3OS4zODY5LDg0NS4zNCwxNzUuMzg2OSw4NDkuMzQsMTg0LjM4NjkiIHN0eWxlPSJzdHJva2U6IzAwMDAwMDtzdHJva2Utd2lkdGg6MTsiLz48L2c+PCEtLWxpbmsgYXV0aF9wYWdlIHRvIGRhc2hib2FyZC0tPjxnIGNsYXNzPSJsaW5rIiBkYXRhLWVudGl0eS0xPSJhdXRoX3BhZ2UiIGRhdGEtZW50aXR5LTI9ImRhc2hib2FyZCIgZGF0YS1zb3VyY2UtbGluZT0iMTA2IiBkYXRhLXVpZD0ibG5rNTkiIGlkPSJsaW5rX2F1dGhfcGFnZV9kYXNoYm9hcmQiPjxwYXRoIGNvZGVMaW5lPSIxMDYiIGQ9Ik03OTcuOTgsMjE5LjYzNjkgQzc0Mi44MywyMzcuNDQ2OSA2NjEuNzY5MywyNjMuNjMyIDYwOS4xNTkzLDI4MC42MzIiIGZpbGw9Im5vbmUiIGlkPSJhdXRoX3BhZ2UtdG8tZGFzaGJvYXJkIiBzdHlsZT0ic3Ryb2tlOiMwMDAwMDA7c3Ryb2tlLXdpZHRoOjE7Ii8+PHBvbHlnb24gZmlsbD0iIzAwMDAwMCIgcG9pbnRzPSI2MDMuNDUsMjgyLjQ3NjksNjEzLjI0MzksMjgzLjUxNTgsNjA4LjIwNzgsMjgwLjkzOTUsNjEwLjc4NDEsMjc1LjkwMzMsNjAzLjQ1LDI4Mi40NzY5IiBzdHlsZT0ic3Ryb2tlOiMwMDAwMDA7c3Ryb2tlLXdpZHRoOjE7Ii8+PC9nPjwhLS1saW5rIGRhc2hib2FyZCB0byByZWFkaW5nX3BhZ2UtLT48ZyBjbGFzcz0ibGluayIgZGF0YS1lbnRpdHktMT0iZGFzaGJvYXJkIiBkYXRhLWVudGl0eS0yPSJyZWFkaW5nX3BhZ2UiIGRhdGEtc291cmNlLWxpbmU9IjEwNyIgZGF0YS11aWQ9ImxuazYwIiBpZD0ibGlua19kYXNoYm9hcmRfcmVhZGluZ19wYWdlIj48cGF0aCBjb2RlTGluZT0iMTA3IiBkPSJNNjAzLjUxLDMwOC44NjY5IEM2NjYuNzksMzIyLjgzNjkgNzg1LjMxLDM0OS43MTY5IDg4NS4zNCwzNzYuNTQ2OSBDODkwLjgzLDM3OC4wMTY5IDg5MC44NDA2LDM3Ny45NzQ5IDg5Ni40OTA2LDM3OS42MjQ5IiBmaWxsPSJub25lIiBpZD0iZGFzaGJvYXJkLXRvLXJlYWRpbmdfcGFnZSIgc3R5bGU9InN0cm9rZTojMDAwMDAwO3N0cm9rZS13aWR0aDoxOyIvPjxwb2x5Z29uIGZpbGw9IiMwMDAwMDAiIHBvaW50cz0iOTAyLjI1LDM4MS4zMDY5LDg5NC43MzIyLDM3NC45NDQzLDg5Ny40NTA1LDM3OS45MDUyLDg5Mi40ODk2LDM4Mi42MjM2LDkwMi4yNSwzODEuMzA2OSIgc3R5bGU9InN0cm9rZTojMDAwMDAwO3N0cm9rZS13aWR0aDoxOyIvPjwvZz48IS0tbGluayBkYXNoYm9hcmQgdG8gYWlfcWFfcGFnZS0tPjxnIGNsYXNzPSJsaW5rIiBkYXRhLWVudGl0eS0xPSJkYXNoYm9hcmQiIGRhdGEtZW50aXR5LTI9ImFpX3FhX3BhZ2UiIGRhdGEtc291cmNlLWxpbmU9IjEwOCIgZGF0YS11aWQ9ImxuazYxIiBpZD0ibGlua19kYXNoYm9hcmRfYWlfcWFfcGFnZSI+PHBhdGggY29kZUxpbmU9IjEwOCIgZD0iTTUxMy4yMiwzMTAuNzY2OSBDNDQ4LjEyLDMyNy42NjY5IDMzMy41NDc1LDM1Ny40MTkxIDI2MS4zNjc1LDM3Ni4xNTkxIiBmaWxsPSJub25lIiBpZD0iZGFzaGJvYXJkLXRvLWFpX3FhX3BhZ2UiIHN0eWxlPSJzdHJva2U6IzAwMDAwMDtzdHJva2Utd2lkdGg6MTsiLz48cG9seWdvbiBmaWxsPSIjMDAwMDAwIiBwb2ludHM9IjI1NS41NiwzNzcuNjY2OSwyNjUuMjc2NCwzNzkuMjc2OCwyNjAuMzk5NSwzNzYuNDEwNCwyNjMuMjY2LDM3MS41MzM2LDI1NS41NiwzNzcuNjY2OSIgc3R5bGU9InN0cm9rZTojMDAwMDAwO3N0cm9rZS13aWR0aDoxOyIvPjwvZz48IS0tbGluayBkYXNoYm9hcmQgdG8gYWNoaWV2ZW1lbnRfcGFnZS0tPjxnIGNsYXNzPSJsaW5rIiBkYXRhLWVudGl0eS0xPSJkYXNoYm9hcmQiIGRhdGEtZW50aXR5LTI9ImFjaGlldmVtZW50X3BhZ2UiIGRhdGEtc291cmNlLWxpbmU9IjEwOSIgZGF0YS11aWQ9ImxuazYyIiBpZD0ibGlua19kYXNoYm9hcmRfYWNoaWV2ZW1lbnRfcGFnZSI+PHBhdGggY29kZUxpbmU9IjEwOSIgZD0iTTUyMC4yMiwzMTUuNjM2OSBDNDgwLjg2LDMzMi43NjY5IDQyNS4yOTEzLDM1Ni45NDIgMzg1Ljk0MTMsMzc0LjA3MiIgZmlsbD0ibm9uZSIgaWQ9ImRhc2hib2FyZC10by1hY2hpZXZlbWVudF9wYWdlIiBzdHlsZT0ic3Ryb2tlOiMwMDAwMDA7c3Ryb2tlLXdpZHRoOjE7Ii8+PHBvbHlnb24gZmlsbD0iIzAwMDAwMCIgcG9pbnRzPSIzODAuNDQsMzc2LjQ2NjksMzkwLjI4ODYsMzc2LjU0MjEsMzg1LjAyNDQsMzc0LjQ3MTIsMzg3LjA5NTQsMzY5LjIwNywzODAuNDQsMzc2LjQ2NjkiIHN0eWxlPSJzdHJva2U6IzAwMDAwMDtzdHJva2Utd2lkdGg6MTsiLz48L2c+PCEtLWxpbmsgZGFzaGJvYXJkIHRvIGNvbW11bml0eV9wYWdlLS0+PGcgY2xhc3M9ImxpbmsiIGRhdGEtZW50aXR5LTE9ImRhc2hib2FyZCIgZGF0YS1lbnRpdHktMj0iY29tbXVuaXR5X3BhZ2UiIGRhdGEtc291cmNlLWxpbmU9IjExMCIgZGF0YS11aWQ9ImxuazYzIiBpZD0ibGlua19kYXNoYm9hcmRfY29tbXVuaXR5X3BhZ2UiPjxwYXRoIGNvZGVMaW5lPSIxMTAiIGQ9Ik01NDcuMDcsMzE1Ljg1NjkgQzUzNS42MSwzMzIuOTY2OSA1MjEuMjY5NywzNTQuMzQyMiA1MDkuODM5NywzNzEuNDAyMiIgZmlsbD0ibm9uZSIgaWQ9ImRhc2hib2FyZC10by1jb21tdW5pdHlfcGFnZSIgc3R5bGU9InN0cm9rZTojMDAwMDAwO3N0cm9rZS13aWR0aDoxOyIvPjxwb2x5Z29uIGZpbGw9IiMwMDAwMDAiIHBvaW50cz0iNTA2LjUsMzc2LjM4NjksNTE0LjgzMjYsMzcxLjEzNjMsNTA5LjI4MywzNzIuMjMzLDUwOC4xODY0LDM2Ni42ODM1LDUwNi41LDM3Ni4zODY5IiBzdHlsZT0ic3Ryb2tlOiMwMDAwMDA7c3Ryb2tlLXdpZHRoOjE7Ii8+PC9nPjwhLS1saW5rIGRhc2hib2FyZCB0byBjaGFyYWN0ZXJfbmV0d29ya19wYWdlLS0+PGcgY2xhc3M9ImxpbmsiIGRhdGEtZW50aXR5LTE9ImRhc2hib2FyZCIgZGF0YS1lbnRpdHktMj0iY2hhcmFjdGVyX25ldHdvcmtfcGFnZSIgZGF0YS1zb3VyY2UtbGluZT0iMTExIiBkYXRhLXVpZD0ibG5rNjQiIGlkPSJsaW5rX2Rhc2hib2FyZF9jaGFyYWN0ZXJfbmV0d29ya19wYWdlIj48cGF0aCBjb2RlTGluZT0iMTExIiBkPSJNNTc2LjkzLDMxNS44NTY5IEM1OTUuODYsMzMyLjk2NjkgNjIwLjU3ODIsMzU1LjMwNDIgNjM5LjQ1ODIsMzcyLjM2NDIiIGZpbGw9Im5vbmUiIGlkPSJkYXNoYm9hcmQtdG8tY2hhcmFjdGVyX25ldHdvcmtfcGFnZSIgc3R5bGU9InN0cm9rZTojMDAwMDAwO3N0cm9rZS13aWR0aDoxOyIvPjxwb2x5Z29uIGZpbGw9IiMwMDAwMDAiIHBvaW50cz0iNjQzLjkxLDM3Ni4zODY5LDYzOS45MTQxLDM2Ny4zODUxLDY0MC4yMDAyLDM3My4wMzQ3LDYzNC41NTA2LDM3My4zMjA4LDY0My45MSwzNzYuMzg2OSIgc3R5bGU9InN0cm9rZTojMDAwMDAwO3N0cm9rZS13aWR0aDoxOyIvPjwvZz48IS0tbGluayBkYXNoYm9hcmQgdG8gc2V0dGluZ3NfcGFnZS0tPjxnIGNsYXNzPSJsaW5rIiBkYXRhLWVudGl0eS0xPSJkYXNoYm9hcmQiIGRhdGEtZW50aXR5LTI9InNldHRpbmdzX3BhZ2UiIGRhdGEtc291cmNlLWxpbmU9IjExMiIgZGF0YS11aWQ9ImxuazY1IiBpZD0ibGlua19kYXNoYm9hcmRfc2V0dGluZ3NfcGFnZSI+PHBhdGggY29kZUxpbmU9IjExMiIgZD0iTTYwMy40LDMxNS41MjY5IEM2NTAuMTgsMzMyLjYzNjkgNzE3LjMzNDksMzU3LjIwNjQgNzY0LjI2NDksMzc0LjM2NjQiIGZpbGw9Im5vbmUiIGlkPSJkYXNoYm9hcmQtdG8tc2V0dGluZ3NfcGFnZSIgc3R5bGU9InN0cm9rZTojMDAwMDAwO3N0cm9rZS13aWR0aDoxOyIvPjxwb2x5Z29uIGZpbGw9IiMwMDAwMDAiIHBvaW50cz0iNzY5LjksMzc2LjQyNjksNzYyLjgyMSwzNjkuNTc5NCw3NjUuMjA0MSwzNzQuNzA5OCw3NjAuMDczNywzNzcuMDkyOSw3NjkuOSwzNzYuNDI2OSIgc3R5bGU9InN0cm9rZTojMDAwMDAwO3N0cm9rZS13aWR0aDoxOyIvPjwvZz48IS0tbGluayBhcGlfZ2F0ZXdheSB0byByb3V0aW5nLS0+PGcgY2xhc3M9ImxpbmsiIGRhdGEtZW50aXR5LTE9ImFwaV9nYXRld2F5IiBkYXRhLWVudGl0eS0yPSJyb3V0aW5nIiBkYXRhLXNvdXJjZS1saW5lPSIxMTUiIGRhdGEtdWlkPSJsbms2NiIgaWQ9ImxpbmtfYXBpX2dhdGV3YXlfcm91dGluZyI+PHBhdGggY29kZUxpbmU9IjExNSIgZD0iTTUwOS42Nyw1MTcuMTU2OSBDNDUyLjcxLDUxOS44NzY5IDM2Mi42Myw1MzEuODY2OSAzMDEuMzQsNTc3LjU0NjkgQzI3My41OCw1OTguMjM2OSAyNTkuMzk4OSw2MzEuMzM4NyAyNTIuMDY4OSw2NTMuNTY4NyIgZmlsbD0ibm9uZSIgaWQ9ImFwaV9nYXRld2F5LXRvLXJvdXRpbmciIHN0eWxlPSJzdHJva2U6IzAwMDAwMDtzdHJva2Utd2lkdGg6MTsiLz48cG9seWdvbiBmaWxsPSIjMDAwMDAwIiBwb2ludHM9IjI1MC4xOSw2NTkuMjY2OSwyNTYuODA3Miw2NTEuOTcyMSwyNTEuNzU1OCw2NTQuNTE4NCwyNDkuMjA5NSw2NDkuNDY2OSwyNTAuMTksNjU5LjI2NjkiIHN0eWxlPSJzdHJva2U6IzAwMDAwMDtzdHJva2Utd2lkdGg6MTsiLz48L2c+PCEtLWxpbmsgYXBpX2dhdGV3YXkgdG8gbG9hZF9iYWxhbmNlci0tPjxnIGNsYXNzPSJsaW5rIiBkYXRhLWVudGl0eS0xPSJhcGlfZ2F0ZXdheSIgZGF0YS1lbnRpdHktMj0ibG9hZF9iYWxhbmNlciIgZGF0YS1zb3VyY2UtbGluZT0iMTE2IiBkYXRhLXVpZD0ibG5rNjciIGlkPSJsaW5rX2FwaV9nYXRld2F5X2xvYWRfYmFsYW5jZXIiPjxwYXRoIGNvZGVMaW5lPSIxMTYiIGQ9Ik01MDkuNzEsNTI5LjA0NjkgQzQ3OC41MSw1MzguMTg2OSA0NDAsNTUzLjQwNjkgNDEyLjM0LDU3Ny41NDY5IEMzODYuNCw2MDAuMTc2OSAzNzEuODE3OCw2MzIuMjY0NSAzNjMuODg3OCw2NTMuODY0NSIgZmlsbD0ibm9uZSIgaWQ9ImFwaV9nYXRld2F5LXRvLWxvYWRfYmFsYW5jZXIiIHN0eWxlPSJzdHJva2U6IzAwMDAwMDtzdHJva2Utd2lkdGg6MTsiLz48cG9seWdvbiBmaWxsPSIjMDAwMDAwIiBwb2ludHM9IjM2MS44Miw2NTkuNDk2OSwzNjguNjc2Nyw2NTIuNDI2OCwzNjMuNTQzMiw2NTQuODAzMiwzNjEuMTY2OCw2NDkuNjY5NywzNjEuODIsNjU5LjQ5NjkiIHN0eWxlPSJzdHJva2U6IzAwMDAwMDtzdHJva2Utd2lkdGg6MTsiLz48L2c+PCEtLWxpbmsgYXBpX2dhdGV3YXkgdG8gcmF0ZV9saW1pdC0tPjxnIGNsYXNzPSJsaW5rIiBkYXRhLWVudGl0eS0xPSJhcGlfZ2F0ZXdheSIgZGF0YS1lbnRpdHktMj0icmF0ZV9saW1pdCIgZGF0YS1zb3VyY2UtbGluZT0iMTE3IiBkYXRhLXVpZD0ibG5rNjgiIGlkPSJsaW5rX2FwaV9nYXRld2F5X3JhdGVfbGltaXQiPjxwYXRoIGNvZGVMaW5lPSIxMTciIGQ9Ik01NDguNTQsNTM4LjY1NjkgQzU0MC44NCw1NTAuMDk2OSA1MzEuMzcsNTY0LjQ1NjkgNTIzLjM0LDU3Ny41NDY5IEM1MDUuOTQsNjA1Ljg3NjkgNDg5Ljk4NzgsNjM0LjQ2MjEgNDc5LjE5NzgsNjU0LjIwMjEiIGZpbGw9Im5vbmUiIGlkPSJhcGlfZ2F0ZXdheS10by1yYXRlX2xpbWl0IiBzdHlsZT0ic3Ryb2tlOiMwMDAwMDA7c3Ryb2tlLXdpZHRoOjE7Ii8+PHBvbHlnb24gZmlsbD0iIzAwMDAwMCIgcG9pbnRzPSI0NzYuMzIsNjU5LjQ2NjksNDg0LjE0NjYsNjUzLjQ4ODIsNDc4LjcxODIsNjU1LjA3OTUsNDc3LjEyNjgsNjQ5LjY1MTEsNDc2LjMyLDY1OS40NjY5IiBzdHlsZT0ic3Ryb2tlOiMwMDAwMDA7c3Ryb2tlLXdpZHRoOjE7Ii8+PC9nPjwhLS1saW5rIGFwaV9nYXRld2F5IHRvIGNvcnMtLT48ZyBjbGFzcz0ibGluayIgZGF0YS1lbnRpdHktMT0iYXBpX2dhdGV3YXkiIGRhdGEtZW50aXR5LTI9ImNvcnMiIGRhdGEtc291cmNlLWxpbmU9IjExOCIgZGF0YS11aWQ9ImxuazY5IiBpZD0ibGlua19hcGlfZ2F0ZXdheV9jb3JzIj48cGF0aCBjb2RlTGluZT0iMTE4IiBkPSJNNTY1LjM5LDUzOC44MTY5IEM1NjguNDIsNTcwLjk2NjkgNTczLjQ3ODQsNjI0LjQ3MzIgNTc2LjE5ODQsNjUzLjQwMzIiIGZpbGw9Im5vbmUiIGlkPSJhcGlfZ2F0ZXdheS10by1jb3JzIiBzdHlsZT0ic3Ryb2tlOiMwMDAwMDA7c3Ryb2tlLXdpZHRoOjE7Ii8+PHBvbHlnb24gZmlsbD0iIzAwMDAwMCIgcG9pbnRzPSI1NzYuNzYsNjU5LjM3NjksNTc5LjksNjUwLjA0Miw1NzYuMjkyLDY1NC4zOTg4LDU3MS45MzUxLDY1MC43OTA4LDU3Ni43Niw2NTkuMzc2OSIgc3R5bGU9InN0cm9rZTojMDAwMDAwO3N0cm9rZS13aWR0aDoxOyIvPjwvZz48IS0tbGluayBkYXNoYm9hcmQgdG8gYXBpX2dhdGV3YXktLT48ZyBjbGFzcz0ibGluayIgZGF0YS1lbnRpdHktMT0iZGFzaGJvYXJkIiBkYXRhLWVudGl0eS0yPSJhcGlfZ2F0ZXdheSIgZGF0YS1zb3VyY2UtbGluZT0iMTIxIiBkYXRhLXVpZD0ibG5rNzAiIGlkPSJsaW5rX2Rhc2hib2FyZF9hcGlfZ2F0ZXdheSI+PHBhdGggY29kZUxpbmU9IjEyMSIgZD0iTTUxMy4zMywyOTguMjQ2OSBDMzgxLjMyLDI5Ny4zNjY5IDExLDMwNi4wODY5IDExOS4zNCw0MzUuNTQ2OSBDMTY4LjU5LDQ5NC4zOTY5IDM5Ni42OTQxLDUwOS41MTU2IDUwMy43MjQxLDUxMy40NjU2IiBmaWxsPSJub25lIiBpZD0iZGFzaGJvYXJkLXRvLWFwaV9nYXRld2F5IiBzdHlsZT0ic3Ryb2tlOiMwMDAwMDA7c3Ryb2tlLXdpZHRoOjE7Ii8+PHBvbHlnb24gZmlsbD0iIzAwMDAwMCIgcG9pbnRzPSI1MDkuNzIsNTEzLjY4NjksNTAwLjg3MzYsNTA5LjM1NzcsNTA0LjcyMzQsNTEzLjUwMjUsNTAwLjU3ODYsNTE3LjM1MjIsNTA5LjcyLDUxMy42ODY5IiBzdHlsZT0ic3Ryb2tlOiMwMDAwMDA7c3Ryb2tlLXdpZHRoOjE7Ii8+PC9nPjwhLS1saW5rIHJlYWRpbmdfcGFnZSB0byBhcGlfZ2F0ZXdheS0tPjxnIGNsYXNzPSJsaW5rIiBkYXRhLWVudGl0eS0xPSJyZWFkaW5nX3BhZ2UiIGRhdGEtZW50aXR5LTI9ImFwaV9nYXRld2F5IiBkYXRhLXNvdXJjZS1saW5lPSIxMjIiIGRhdGEtdWlkPSJsbms3MSIgaWQ9ImxpbmtfcmVhZGluZ19wYWdlX2FwaV9nYXRld2F5Ij48cGF0aCBjb2RlTGluZT0iMTIyIiBkPSJNOTIxLjY3LDQxMS42NzY5IEM5MTEuNTQsNDE5LjkxNjkgODk4LjQ0LDQyOS40MDY5IDg4NS4zNCw0MzUuNTQ2OSBDNzk2LjMxLDQ3Ny4yNzY5IDY4OC43MzY0LDQ5Ny44MzU1IDYyMi45OTY0LDUwNy40ODU1IiBmaWxsPSJub25lIiBpZD0icmVhZGluZ19wYWdlLXRvLWFwaV9nYXRld2F5IiBzdHlsZT0ic3Ryb2tlOiMwMDAwMDA7c3Ryb2tlLXdpZHRoOjE7Ii8+PHBvbHlnb24gZmlsbD0iIzAwMDAwMCIgcG9pbnRzPSI2MTcuMDYsNTA4LjM1NjksNjI2LjU0NTUsNTExLjAwNzQsNjIyLjAwNyw1MDcuNjMwNyw2MjUuMzgzNiw1MDMuMDkyMiw2MTcuMDYsNTA4LjM1NjkiIHN0eWxlPSJzdHJva2U6IzAwMDAwMDtzdHJva2Utd2lkdGg6MTsiLz48L2c+PCEtLWxpbmsgYWlfcWFfcGFnZSB0byBhcGlfZ2F0ZXdheS0tPjxnIGNsYXNzPSJsaW5rIiBkYXRhLWVudGl0eS0xPSJhaV9xYV9wYWdlIiBkYXRhLWVudGl0eS0yPSJhcGlfZ2F0ZXdheSIgZGF0YS1zb3VyY2UtbGluZT0iMTIzIiBkYXRhLXVpZD0ibG5rNzIiIGlkPSJsaW5rX2FpX3FhX3BhZ2VfYXBpX2dhdGV3YXkiPjxwYXRoIGNvZGVMaW5lPSIxMjMiIGQ9Ik0yMjQuMTcsNDExLjU1NjkgQzIzOC41LDQxOS41NzY5IDI1Ni40OCw0MjguODk2OSAyNzMuMzQsNDM1LjU0NjkgQzM1My40Niw0NjcuMTY2OSA0NDQuOTA5OSw0ODkuNzY5IDUwMy45Njk5LDUwMi43NDkiIGZpbGw9Im5vbmUiIGlkPSJhaV9xYV9wYWdlLXRvLWFwaV9nYXRld2F5IiBzdHlsZT0ic3Ryb2tlOiMwMDAwMDA7c3Ryb2tlLXdpZHRoOjE7Ii8+PHBvbHlnb24gZmlsbD0iIzAwMDAwMCIgcG9pbnRzPSI1MDkuODMsNTA0LjAzNjksNTAxLjg5ODQsNDk4LjE5ODIsNTA0Ljk0NjUsNTAyLjk2MzYsNTAwLjE4MTIsNTA2LjAxMTgsNTA5LjgzLDUwNC4wMzY5IiBzdHlsZT0ic3Ryb2tlOiMwMDAwMDA7c3Ryb2tlLXdpZHRoOjE7Ii8+PC9nPjwhLS1saW5rIGFjaGlldmVtZW50X3BhZ2UgdG8gYXBpX2dhdGV3YXktLT48ZyBjbGFzcz0ibGluayIgZGF0YS1lbnRpdHktMT0iYWNoaWV2ZW1lbnRfcGFnZSIgZGF0YS1lbnRpdHktMj0iYXBpX2dhdGV3YXkiIGRhdGEtc291cmNlLWxpbmU9IjEyNCIgZGF0YS11aWQ9ImxuazczIiBpZD0ibGlua19hY2hpZXZlbWVudF9wYWdlX2FwaV9nYXRld2F5Ij48cGF0aCBjb2RlTGluZT0iMTI0IiBkPSJNMzcwLjQ2LDQxMS42NTY5IEMzODMuMTgsNDE5LjA4NjkgMzk4LjQ1LDQyNy44NzY5IDQxMi4zNCw0MzUuNTQ2OSBDNDQ4Ljc4LDQ1NS42NjY5IDQ4NS4zNzE1LDQ3NC44ODg5IDUxNS43ODE1LDQ5MC42Mjg5IiBmaWxsPSJub25lIiBpZD0iYWNoaWV2ZW1lbnRfcGFnZS10by1hcGlfZ2F0ZXdheSIgc3R5bGU9InN0cm9rZTojMDAwMDAwO3N0cm9rZS13aWR0aDoxOyIvPjxwb2x5Z29uIGZpbGw9IiMwMDAwMDAiIHBvaW50cz0iNTIxLjExLDQ5My4zODY5LDUxNC45NTU5LDQ4NS42OTc1LDUxNi42Njk1LDQ5MS4wODg1LDUxMS4yNzg1LDQ5Mi44MDIyLDUyMS4xMSw0OTMuMzg2OSIgc3R5bGU9InN0cm9rZTojMDAwMDAwO3N0cm9rZS13aWR0aDoxOyIvPjwvZz48IS0tbGluayBjb21tdW5pdHlfcGFnZSB0byBhcGlfZ2F0ZXdheS0tPjxnIGNsYXNzPSJsaW5rIiBkYXRhLWVudGl0eS0xPSJjb21tdW5pdHlfcGFnZSIgZGF0YS1lbnRpdHktMj0iYXBpX2dhdGV3YXkiIGRhdGEtc291cmNlLWxpbmU9IjEyNSIgZGF0YS11aWQ9Imxuazc0IiBpZD0ibGlua19jb21tdW5pdHlfcGFnZV9hcGlfZ2F0ZXdheSI+PHBhdGggY29kZUxpbmU9IjEyNSIgZD0iTTUwNC43OSw0MTEuNzM2OSBDNTE2Ljg0LDQzMi45ODY5IDUzNC43MTA5LDQ2NC41MzczIDU0OC4wMTA5LDQ4Ny45OTczIiBmaWxsPSJub25lIiBpZD0iY29tbXVuaXR5X3BhZ2UtdG8tYXBpX2dhdGV3YXkiIHN0eWxlPSJzdHJva2U6IzAwMDAwMDtzdHJva2Utd2lkdGg6MTsiLz48cG9seWdvbiBmaWxsPSIjMDAwMDAwIiBwb2ludHM9IjU1MC45Nyw0OTMuMjE2OSw1NTAuMDExMSw0ODMuNDE0OCw1NDguNTA0MSw0ODguODY3Miw1NDMuMDUxNyw0ODcuMzYwMyw1NTAuOTcsNDkzLjIxNjkiIHN0eWxlPSJzdHJva2U6IzAwMDAwMDtzdHJva2Utd2lkdGg6MTsiLz48L2c+PCEtLWxpbmsgY2hhcmFjdGVyX25ldHdvcmtfcGFnZSB0byBhcGlfZ2F0ZXdheS0tPjxnIGNsYXNzPSJsaW5rIiBkYXRhLWVudGl0eS0xPSJjaGFyYWN0ZXJfbmV0d29ya19wYWdlIiBkYXRhLWVudGl0eS0yPSJhcGlfZ2F0ZXdheSIgZGF0YS1zb3VyY2UtbGluZT0iMTI2IiBkYXRhLXVpZD0ibG5rNzUiIGlkPSJsaW5rX2NoYXJhY3Rlcl9uZXR3b3JrX3BhZ2VfYXBpX2dhdGV3YXkiPjxwYXRoIGNvZGVMaW5lPSIxMjYiIGQ9Ik02NDguNTcsNDExLjczNjkgQzYzMS4wNCw0MzIuOTg2OSA2MDQuNTE4OSw0NjUuMTI5MiA1ODUuMTU4OSw0ODguNTg5MiIgZmlsbD0ibm9uZSIgaWQ9ImNoYXJhY3Rlcl9uZXR3b3JrX3BhZ2UtdG8tYXBpX2dhdGV3YXkiIHN0eWxlPSJzdHJva2U6IzAwMDAwMDtzdHJva2Utd2lkdGg6MTsiLz48cG9seWdvbiBmaWxsPSIjMDAwMDAwIiBwb2ludHM9IjU4MS4zNCw0OTMuMjE2OSw1OTAuMTUzNiw0ODguODIxMyw1ODQuNTIyNSw0ODkuMzYwNSw1ODMuOTgzMyw0ODMuNzI5NCw1ODEuMzQsNDkzLjIxNjkiIHN0eWxlPSJzdHJva2U6IzAwMDAwMDtzdHJva2Utd2lkdGg6MTsiLz48L2c+PCEtLWxpbmsgYXV0aF9wYWdlIHRvIGFwaV9nYXRld2F5LS0+PGcgY2xhc3M9ImxpbmsiIGRhdGEtZW50aXR5LTE9ImF1dGhfcGFnZSIgZGF0YS1lbnRpdHktMj0iYXBpX2dhdGV3YXkiIGRhdGEtc291cmNlLWxpbmU9IjEyNyIgZGF0YS11aWQ9Imxuazc2IiBpZD0ibGlua19hdXRoX3BhZ2VfYXBpX2dhdGV3YXkiPjxwYXRoIGNvZGVMaW5lPSIxMjciIGQ9Ik04NzQuNDQsMjE5LjgyNjkgQzkzMC44NiwyNTkuNTE2OSAxMDU4LjA4LDM2MS40MjY5IDk5Ni4zNCw0MzUuNTQ2OSBDOTQ4LjU4LDQ5Mi44NzY5IDcyNy43ODQ3LDUwOC43NDM4IDYyMi44NDQ3LDUxMy4xNzM4IiBmaWxsPSJub25lIiBpZD0iYXV0aF9wYWdlLXRvLWFwaV9nYXRld2F5IiBzdHlsZT0ic3Ryb2tlOiMwMDAwMDA7c3Ryb2tlLXdpZHRoOjE7Ii8+PHBvbHlnb24gZmlsbD0iIzAwMDAwMCIgcG9pbnRzPSI2MTYuODUsNTEzLjQyNjksNjI2LjAxMDcsNTE3LjA0MzcsNjIxLjg0NTYsNTEzLjIxNiw2MjUuNjczMyw1MDkuMDUwOCw2MTYuODUsNTEzLjQyNjkiIHN0eWxlPSJzdHJva2U6IzAwMDAwMDtzdHJva2Utd2lkdGg6MTsiLz48L2c+PCEtLWxpbmsgc2V0dGluZ3NfcGFnZSB0byBhcGlfZ2F0ZXdheS0tPjxnIGNsYXNzPSJsaW5rIiBkYXRhLWVudGl0eS0xPSJzZXR0aW5nc19wYWdlIiBkYXRhLWVudGl0eS0yPSJhcGlfZ2F0ZXdheSIgZGF0YS1zb3VyY2UtbGluZT0iMTI4IiBkYXRhLXVpZD0ibG5rNzciIGlkPSJsaW5rX3NldHRpbmdzX3BhZ2VfYXBpX2dhdGV3YXkiPjxwYXRoIGNvZGVMaW5lPSIxMjgiIGQ9Ik03ODguODksNDExLjU4NjkgQzc3Ni4yMSw0MTkuMjQ2OSA3NjAuNyw0MjguMjQ2OSA3NDYuMzQsNDM1LjU0NjkgQzcwMy43Miw0NTcuMjA2OSA2NTkuNDMwOSw0NzYuMzM5MyA2MjIuNTMwOSw0OTEuNDc5MyIgZmlsbD0ibm9uZSIgaWQ9InNldHRpbmdzX3BhZ2UtdG8tYXBpX2dhdGV3YXkiIHN0eWxlPSJzdHJva2U6IzAwMDAwMDtzdHJva2Utd2lkdGg6MTsiLz48cG9seWdvbiBmaWxsPSIjMDAwMDAwIiBwb2ludHM9IjYxNi45OCw0OTMuNzU2OSw2MjYuODI0OCw0OTQuMDQxMiw2MjEuNjA1OCw0OTEuODU4OSw2MjMuNzg4LDQ4Ni42NCw2MTYuOTgsNDkzLjc1NjkiIHN0eWxlPSJzdHJva2U6IzAwMDAwMDtzdHJva2Utd2lkdGg6MTsiLz48L2c+PCEtLWxpbmsgYXBpX2dhdGV3YXkgdG8gYXV0aF9zZXJ2aWNlLS0+PGcgY2xhc3M9ImxpbmsiIGRhdGEtZW50aXR5LTE9ImFwaV9nYXRld2F5IiBkYXRhLWVudGl0eS0yPSJhdXRoX3NlcnZpY2UiIGRhdGEtc291cmNlLWxpbmU9IjEzMSIgZGF0YS11aWQ9Imxuazc4IiBpZD0ibGlua19hcGlfZ2F0ZXdheV9hdXRoX3NlcnZpY2UiPjxwYXRoIGNvZGVMaW5lPSIxMzEiIGQ9Ik02MTYuOTQsNTI1LjQ4NjkgQzY4NC45LDUzNi4xMTY5IDgwNS43Myw1NTQuNzc2OSA5MDkuMzQsNTY5LjU0NjkgQzkzNS45Nyw1NzMuMzQ2OSA5NDQuNTIsNTY3LjE2NjkgOTY5LjM0LDU3Ny41NDY5IEMxMDE1LjE2LDU5Ni43MDY5IDEwNTQuNDU4Miw2MzIuNTYzOCAxMDc2LjcwODIsNjU1LjI0MzgiIGZpbGw9Im5vbmUiIGlkPSJhcGlfZ2F0ZXdheS10by1hdXRoX3NlcnZpY2UiIHN0eWxlPSJzdHJva2U6IzAwMDAwMDtzdHJva2Utd2lkdGg6MTsiLz48cG9seWdvbiBmaWxsPSIjMDAwMDAwIiBwb2ludHM9IjEwODAuOTEsNjU5LjUyNjksMTA3Ny40NjI2LDY1MC4zMDExLDEwNzcuNDA4NSw2NTUuOTU3NywxMDcxLjc1MTksNjU1LjkwMzUsMTA4MC45MSw2NTkuNTI2OSIgc3R5bGU9InN0cm9rZTojMDAwMDAwO3N0cm9rZS13aWR0aDoxOyIvPjwvZz48IS0tbGluayBhcGlfZ2F0ZXdheSB0byB1c2VyX3NlcnZpY2UtLT48ZyBjbGFzcz0ibGluayIgZGF0YS1lbnRpdHktMT0iYXBpX2dhdGV3YXkiIGRhdGEtZW50aXR5LTI9InVzZXJfc2VydmljZSIgZGF0YS1zb3VyY2UtbGluZT0iMTMyIiBkYXRhLXVpZD0ibG5rNzkiIGlkPSJsaW5rX2FwaV9nYXRld2F5X3VzZXJfc2VydmljZSI+PHBhdGggY29kZUxpbmU9IjEzMiIgZD0iTTU5NC4yLDUzOC43NzY5IEM2MDcuNzEsNTQ5LjM2NjkgNjIzLjAzLDU2Mi45NTY5IDYzNC4zNCw1NzcuNTQ2OSBDNjg0LjAzLDY0MS42MzY5IDY0NS45Miw2OTguMDA2OSA3MTQuMzQsNzQxLjU0NjkgQzczNy4wNyw3NTYuMDE2OSAxMTczLjEsNzQzLjM3NjkgMTE5OS4zNCw3NDkuNTQ2OSBDMTIzNy44NSw3NTguNTk2OSAxMjczLjI0NDQsNzc2Ljk4NzcgMTI5OC44NDQ0LDc5Mi4yMjc3IiBmaWxsPSJub25lIiBpZD0iYXBpX2dhdGV3YXktdG8tdXNlcl9zZXJ2aWNlIiBzdHlsZT0ic3Ryb2tlOiMwMDAwMDA7c3Ryb2tlLXdpZHRoOjE7Ii8+PHBvbHlnb24gZmlsbD0iIzAwMDAwMCIgcG9pbnRzPSIxMzA0LDc5NS4yOTY5LDEyOTguMzEyNyw3ODcuMjU2LDEyOTkuNzAzNyw3OTIuNzM5MiwxMjk0LjIyMDUsNzk0LjEzMDIsMTMwNCw3OTUuMjk2OSIgc3R5bGU9InN0cm9rZTojMDAwMDAwO3N0cm9rZS13aWR0aDoxOyIvPjwvZz48IS0tbGluayBhcGlfZ2F0ZXdheSB0byBsZWFybmluZ19zZXJ2aWNlLS0+PGcgY2xhc3M9ImxpbmsiIGRhdGEtZW50aXR5LTE9ImFwaV9nYXRld2F5IiBkYXRhLWVudGl0eS0yPSJsZWFybmluZ19zZXJ2aWNlIiBkYXRhLXNvdXJjZS1saW5lPSIxMzMiIGRhdGEtdWlkPSJsbms4MCIgaWQ9ImxpbmtfYXBpX2dhdGV3YXlfbGVhcm5pbmdfc2VydmljZSI+PHBhdGggY29kZUxpbmU9IjEzMyIgZD0iTTYxNy4wMiw1MjUuNjE2OSBDNjk0LjU3LDUzNy42MzY5IDg0Mi41NCw1NTkuMTY2OSA5NjkuMzQsNTY5LjU0NjkgQzEwNzEuMjgsNTc3Ljg5NjkgMTA5Ny42LDU2Ni45ODY5IDExOTkuMzQsNTc3LjU0NjkgQzEzODEuOTUsNTk2LjQ5NjkgMTU4OC42NjE5LDYzNy43MzU5IDE2OTQuMTExOSw2NjAuMjE1OSIgZmlsbD0ibm9uZSIgaWQ9ImFwaV9nYXRld2F5LXRvLWxlYXJuaW5nX3NlcnZpY2UiIHN0eWxlPSJzdHJva2U6IzAwMDAwMDtzdHJva2Utd2lkdGg6MTsiLz48cG9seWdvbiBmaWxsPSIjMDAwMDAwIiBwb2ludHM9IjE2OTkuOTgsNjYxLjQ2NjksMTY5Mi4wMTE4LDY1NS42NzgzLDE2OTUuMDg5OSw2NjAuNDI0NCwxNjkwLjM0MzgsNjYzLjUwMjUsMTY5OS45OCw2NjEuNDY2OSIgc3R5bGU9InN0cm9rZTojMDAwMDAwO3N0cm9rZS13aWR0aDoxOyIvPjwvZz48IS0tbGluayBhcGlfZ2F0ZXdheSB0byBjb250ZW50X3NlcnZpY2UtLT48ZyBjbGFzcz0ibGluayIgZGF0YS1lbnRpdHktMT0iYXBpX2dhdGV3YXkiIGRhdGEtZW50aXR5LTI9ImNvbnRlbnRfc2VydmljZSIgZGF0YS1zb3VyY2UtbGluZT0iMTM0IiBkYXRhLXVpZD0ibG5rODEiIGlkPSJsaW5rX2FwaV9nYXRld2F5X2NvbnRlbnRfc2VydmljZSI+PHBhdGggY29kZUxpbmU9IjEzNCIgZD0iTTUwOS44LDUxNy41NzY5IEM0MTYuNjMsNTE5Ljc0NjkgMjMwLjcyLDUzMC4wNzY5IDE5MC4zNCw1NzcuNTQ2OSBDMTQ5LjczLDYyNS4yNzY5IDE0Ny4wMSw2NzMuMjc2OSAxOTAuMzQsNzE4LjU0NjkgQzIzMC42Myw3NjAuNjQ2OSA2NTYuMDgsNzQwLjA2NjkgNzE0LjM0LDc0MS41NDY5IEM3NzguMSw3NDMuMTY2OSAxNzk4Ljk0LDc0Mi41NDY5IDE4NjIuMzQsNzQ5LjU0NjkgQzE5NDIuOTUsNzU4LjQ0NjkgMjAyOC4zNDkyLDc3OC42MzM3IDIwODYuMzQ5Miw3OTMuOTYzNyIgZmlsbD0ibm9uZSIgaWQ9ImFwaV9nYXRld2F5LXRvLWNvbnRlbnRfc2VydmljZSIgc3R5bGU9InN0cm9rZTojMDAwMDAwO3N0cm9rZS13aWR0aDoxOyIvPjxwb2x5Z29uIGZpbGw9IiMwMDAwMDAiIHBvaW50cz0iMjA5Mi4xNSw3OTUuNDk2OSwyMDg0LjQ3MDksNzg5LjMyOTksMjA4Ny4zMTYsNzk0LjIxOTIsMjA4Mi40MjY3LDc5Ny4wNjQzLDIwOTIuMTUsNzk1LjQ5NjkiIHN0eWxlPSJzdHJva2U6IzAwMDAwMDtzdHJva2Utd2lkdGg6MTsiLz48L2c+PCEtLWxpbmsgYXBpX2dhdGV3YXkgdG8gcmFnX3NlcnZpY2UtLT48ZyBjbGFzcz0ibGluayIgZGF0YS1lbnRpdHktMT0iYXBpX2dhdGV3YXkiIGRhdGEtZW50aXR5LTI9InJhZ19zZXJ2aWNlIiBkYXRhLXNvdXJjZS1saW5lPSIxMzUiIGRhdGEtdWlkPSJsbms4MiIgaWQ9ImxpbmtfYXBpX2dhdGV3YXlfcmFnX3NlcnZpY2UiPjxwYXRoIGNvZGVMaW5lPSIxMzUiIGQ9Ik02MTYuODgsNTI1LjA1NjkgQzcwMS45MSw1MzcuMzc2OSA4NzMuMTksNTYwLjQ2NjkgMTAxOS4zNCw1NjkuNTQ2OSBDMTIwNi4zMiw1ODEuMTY2OSAxNjc1LjQ4LDU2NC4wMTY5IDE4NjIuMzQsNTc3LjU0NjkgQzIxMjEuMTEsNTk2LjI3NjkgMjQyMi41NjE0LDY0Ni43ODM4IDI1MzYuMjUxNCw2NjYuODUzOCIgZmlsbD0ibm9uZSIgaWQ9ImFwaV9nYXRld2F5LXRvLXJhZ19zZXJ2aWNlIiBzdHlsZT0ic3Ryb2tlOiMwMDAwMDA7c3Ryb2tlLXdpZHRoOjE7Ii8+PHBvbHlnb24gZmlsbD0iIzAwMDAwMCIgcG9pbnRzPSIyNTQyLjE2LDY2Ny44OTY5LDI1MzMuOTkyNCw2NjIuMzkzMiwyNTM3LjIzNjEsNjY3LjAyNzcsMjUzMi42MDE3LDY3MC4yNzE0LDI1NDIuMTYsNjY3Ljg5NjkiIHN0eWxlPSJzdHJva2U6IzAwMDAwMDtzdHJva2Utd2lkdGg6MTsiLz48L2c+PCEtLWxpbmsgYXBpX2dhdGV3YXkgdG8gY2hhcmFjdGVyX3NlcnZpY2UtLT48ZyBjbGFzcz0ibGluayIgZGF0YS1lbnRpdHktMT0iYXBpX2dhdGV3YXkiIGRhdGEtZW50aXR5LTI9ImNoYXJhY3Rlcl9zZXJ2aWNlIiBkYXRhLXNvdXJjZS1saW5lPSIxMzYiIGRhdGEtdWlkPSJsbms4MyIgaWQ9ImxpbmtfYXBpX2dhdGV3YXlfY2hhcmFjdGVyX3NlcnZpY2UiPjxwYXRoIGNvZGVMaW5lPSIxMzYiIGQ9Ik02MTcuMSw1MzUuOTg2OSBDNjQwLjE3LDU0NS45MDY5IDY2Ni4zNCw1NTkuNzQ2OSA2ODYuMzQsNTc3LjU0NjkgQzc0Mi4wNSw2MjcuMTM2OSA3MTMuNjEsNjc5LjgwNjkgNzc3LjM0LDcxOC41NDY5IEM4NjkuNjYsNzc0LjY2NjkgOTExLjQzLDczNi4yNDY5IDEwMTkuMzQsNzQxLjU0NjkgQzEwNTIuMjMsNzQzLjE2NjkgMzM1OC41MSw3NDEuMDc2OSAzMzkwLjM0LDc0OS41NDY5IEMzNDIzLjg3LDc1OC40NjY5IDM0NTMuMDYxNiw3NzYuNjY2IDM0NzQuMjAxNiw3OTEuOTg2IiBmaWxsPSJub25lIiBpZD0iYXBpX2dhdGV3YXktdG8tY2hhcmFjdGVyX3NlcnZpY2UiIHN0eWxlPSJzdHJva2U6IzAwMDAwMDtzdHJva2Utd2lkdGg6MTsiLz48cG9seWdvbiBmaWxsPSIjMDAwMDAwIiBwb2ludHM9IjM0NzkuMDYsNzk1LjUwNjksMzQ3NC4xMTk3LDc4Ni45ODY3LDM0NzUuMDExNCw3OTIuNTcyOSwzNDY5LjQyNTIsNzkzLjQ2NDYsMzQ3OS4wNiw3OTUuNTA2OSIgc3R5bGU9InN0cm9rZTojMDAwMDAwO3N0cm9rZS13aWR0aDoxOyIvPjwvZz48IS0tbGluayBhcGlfZ2F0ZXdheSB0byBjb21tdW5pdHlfc2VydmljZS0tPjxnIGNsYXNzPSJsaW5rIiBkYXRhLWVudGl0eS0xPSJhcGlfZ2F0ZXdheSIgZGF0YS1lbnRpdHktMj0iY29tbXVuaXR5X3NlcnZpY2UiIGRhdGEtc291cmNlLWxpbmU9IjEzNyIgZGF0YS11aWQ9Imxuazg0IiBpZD0ibGlua19hcGlfZ2F0ZXdheV9jb21tdW5pdHlfc2VydmljZSI+PHBhdGggY29kZUxpbmU9IjEzNyIgZD0iTTYxNy4wMSw1MTcuNjg2OSBDOTI5LjcyLDUyMS41MzY5IDI1MTAsNTQyLjU4NjkgMjcyMy4zNCw1NzcuNTQ2OSBDMjgyNi44OSw1OTQuNTE2OSAyOTM3Ljk0MjksNjMzLjk1NTIgMjk5OC40MDI5LDY1Ny4zMDUyIiBmaWxsPSJub25lIiBpZD0iYXBpX2dhdGV3YXktdG8tY29tbXVuaXR5X3NlcnZpY2UiIHN0eWxlPSJzdHJva2U6IzAwMDAwMDtzdHJva2Utd2lkdGg6MTsiLz48cG9seWdvbiBmaWxsPSIjMDAwMDAwIiBwb2ludHM9IjMwMDQsNjU5LjQ2NjksMjk5Ny4wNDU1LDY1Mi40OTMsMjk5OS4zMzU4LDY1Ny42NjU1LDI5OTQuMTYzMyw2NTkuOTU1OCwzMDA0LDY1OS40NjY5IiBzdHlsZT0ic3Ryb2tlOiMwMDAwMDA7c3Ryb2tlLXdpZHRoOjE7Ii8+PC9nPjwhLS1saW5rIGFwaV9nYXRld2F5IHRvIGZpbGVfc2VydmljZS0tPjxnIGNsYXNzPSJsaW5rIiBkYXRhLWVudGl0eS0xPSJhcGlfZ2F0ZXdheSIgZGF0YS1lbnRpdHktMj0iZmlsZV9zZXJ2aWNlIiBkYXRhLXNvdXJjZS1saW5lPSIxMzgiIGRhdGEtdWlkPSJsbms4NSIgaWQ9ImxpbmtfYXBpX2dhdGV3YXlfZmlsZV9zZXJ2aWNlIj48cGF0aCBjb2RlTGluZT0iMTM4IiBkPSJNNjE2Ljk1LDUxNy4zNjY5IEM5NzYuNjQsNTE5LjY0NjkgMzAyOC4zNiw1MzQuNTI2OSAzMTUyLjM0LDU3Ny41NDY5IEMzMjAwLjQ2LDU5NC4yNDY5IDMyNDEuMTYzNSw2MzEuNDI5NSAzMjYzLjgwMzUsNjU0Ljg4OTUiIGZpbGw9Im5vbmUiIGlkPSJhcGlfZ2F0ZXdheS10by1maWxlX3NlcnZpY2UiIHN0eWxlPSJzdHJva2U6IzAwMDAwMDtzdHJva2Utd2lkdGg6MTsiLz48cG9seWdvbiBmaWxsPSIjMDAwMDAwIiBwb2ludHM9IjMyNjcuOTcsNjU5LjIwNjksMzI2NC41OTg1LDY0OS45NTMxLDMyNjQuNDk3OSw2NTUuNjA5LDMyNTguODQxOSw2NTUuNTA4NCwzMjY3Ljk3LDY1OS4yMDY5IiBzdHlsZT0ic3Ryb2tlOiMwMDAwMDA7c3Ryb2tlLXdpZHRoOjE7Ii8+PC9nPjwhLS1saW5rIGF1dGhfc2VydmljZSB0byByZWRpc19zZXNzaW9uLS0+PGcgY2xhc3M9ImxpbmsiIGRhdGEtZW50aXR5LTE9ImF1dGhfc2VydmljZSIgZGF0YS1lbnRpdHktMj0icmVkaXNfc2Vzc2lvbiIgZGF0YS1zb3VyY2UtbGluZT0iMTQxIiBkYXRhLXVpZD0ibG5rODYiIGlkPSJsaW5rX2F1dGhfc2VydmljZV9yZWRpc19zZXNzaW9uIj48cGF0aCBjb2RlTGluZT0iMTQxIiBkPSJNMTA5Ni4zNCw2OTQuNzQ2OSBDMTA5Ni4zNCw3MTkuMDI2OSAxMDk2LjM0LDc1OC4wNTY5IDEwOTYuMzQsNzg0LjcwNjkiIGZpbGw9Im5vbmUiIGlkPSJhdXRoX3NlcnZpY2UtdG8tcmVkaXNfc2Vzc2lvbiIgc3R5bGU9InN0cm9rZTojMDAwMDAwO3N0cm9rZS13aWR0aDoxOyIvPjxwb2x5Z29uIGZpbGw9IiMwMDAwMDAiIHBvaW50cz0iMTA5Ni4zNCw3OTAuNzA2OSwxMTAwLjM0LDc4MS43MDY5LDEwOTYuMzQsNzg1LjcwNjksMTA5Mi4zNCw3ODEuNzA2OSwxMDk2LjM0LDc5MC43MDY5IiBzdHlsZT0ic3Ryb2tlOiMwMDAwMDA7c3Ryb2tlLXdpZHRoOjE7Ii8+PC9nPjwhLS1saW5rIHVzZXJfc2VydmljZSB0byBwb3N0Z3Jlc191c2VyLS0+PGcgY2xhc3M9ImxpbmsiIGRhdGEtZW50aXR5LTE9InVzZXJfc2VydmljZSIgZGF0YS1lbnRpdHktMj0icG9zdGdyZXNfdXNlciIgZGF0YS1zb3VyY2UtbGluZT0iMTQyIiBkYXRhLXVpZD0ibG5rODciIGlkPSJsaW5rX3VzZXJfc2VydmljZV9wb3N0Z3Jlc191c2VyIj48cGF0aCBjb2RlTGluZT0iMTQyIiBkPSJNMTMzMC4zNCw4MzAuNjA2OSBDMTMzMC4zNCw4NDkuMDA2OSAxMzMwLjM0LDg3Mi43NjY5IDEzMzAuMzQsODkyLjg0NjkiIGZpbGw9Im5vbmUiIGlkPSJ1c2VyX3NlcnZpY2UtdG8tcG9zdGdyZXNfdXNlciIgc3R5bGU9InN0cm9rZTojMDAwMDAwO3N0cm9rZS13aWR0aDoxOyIvPjxwb2x5Z29uIGZpbGw9IiMwMDAwMDAiIHBvaW50cz0iMTMzMC4zNCw4OTguODQ2OSwxMzM0LjM0LDg4OS44NDY5LDEzMzAuMzQsODkzLjg0NjksMTMyNi4zNCw4ODkuODQ2OSwxMzMwLjM0LDg5OC44NDY5IiBzdHlsZT0ic3Ryb2tlOiMwMDAwMDA7c3Ryb2tlLXdpZHRoOjE7Ii8+PC9nPjwhLS1saW5rIGxlYXJuaW5nX3NlcnZpY2UgdG8gcG9zdGdyZXNfbGVhcm5pbmctLT48ZyBjbGFzcz0ibGluayIgZGF0YS1lbnRpdHktMT0ibGVhcm5pbmdfc2VydmljZSIgZGF0YS1lbnRpdHktMj0icG9zdGdyZXNfbGVhcm5pbmciIGRhdGEtc291cmNlLWxpbmU9IjE0MyIgZGF0YS11aWQ9Imxuazg4IiBpZD0ibGlua19sZWFybmluZ19zZXJ2aWNlX3Bvc3RncmVzX2xlYXJuaW5nIj48cGF0aCBjb2RlTGluZT0iMTQzIiBkPSJNMTc0MS4xNiw2OTQuNzQ2OSBDMTcwNC40Niw3MTkuMDk2OSAxNjQxLjI5LDc2MS4wMDAyIDE2MDEuMTYsNzg3LjYyMDIiIGZpbGw9Im5vbmUiIGlkPSJsZWFybmluZ19zZXJ2aWNlLXRvLXBvc3RncmVzX2xlYXJuaW5nIiBzdHlsZT0ic3Ryb2tlOiMwMDAwMDA7c3Ryb2tlLXdpZHRoOjE7Ii8+PHBvbHlnb24gZmlsbD0iIzAwMDAwMCIgcG9pbnRzPSIxNTk2LjE2LDc5MC45MzY5LDE2MDUuODcxMSw3ODkuMjk1MSwxNjAwLjMyNjYsNzg4LjE3MywxNjAxLjQ0ODgsNzgyLjYyODUsMTU5Ni4xNiw3OTAuOTM2OSIgc3R5bGU9InN0cm9rZTojMDAwMDAwO3N0cm9rZS13aWR0aDoxOyIvPjwvZz48IS0tbGluayBsZWFybmluZ19zZXJ2aWNlIHRvIHJlZGlzX2xlYXJuaW5nLS0+PGcgY2xhc3M9ImxpbmsiIGRhdGEtZW50aXR5LTE9ImxlYXJuaW5nX3NlcnZpY2UiIGRhdGEtZW50aXR5LTI9InJlZGlzX2xlYXJuaW5nIiBkYXRhLXNvdXJjZS1saW5lPSIxNDQiIGRhdGEtdWlkPSJsbms4OSIgaWQ9ImxpbmtfbGVhcm5pbmdfc2VydmljZV9yZWRpc19sZWFybmluZyI+PHBhdGggY29kZUxpbmU9IjE0NCIgZD0iTTE3NjYuMzQsNjk0Ljc0NjkgQzE3NjYuMzQsNzE5LjAyNjkgMTc2Ni4zNCw3NTguMDU2OSAxNzY2LjM0LDc4NC43MDY5IiBmaWxsPSJub25lIiBpZD0ibGVhcm5pbmdfc2VydmljZS10by1yZWRpc19sZWFybmluZyIgc3R5bGU9InN0cm9rZTojMDAwMDAwO3N0cm9rZS13aWR0aDoxOyIvPjxwb2x5Z29uIGZpbGw9IiMwMDAwMDAiIHBvaW50cz0iMTc2Ni4zNCw3OTAuNzA2OSwxNzcwLjM0LDc4MS43MDY5LDE3NjYuMzQsNzg1LjcwNjksMTc2Mi4zNCw3ODEuNzA2OSwxNzY2LjM0LDc5MC43MDY5IiBzdHlsZT0ic3Ryb2tlOiMwMDAwMDA7c3Ryb2tlLXdpZHRoOjE7Ii8+PC9nPjwhLS1saW5rIGNvbnRlbnRfc2VydmljZSB0byBwb3N0Z3Jlc19jb250ZW50LS0+PGcgY2xhc3M9ImxpbmsiIGRhdGEtZW50aXR5LTE9ImNvbnRlbnRfc2VydmljZSIgZGF0YS1lbnRpdHktMj0icG9zdGdyZXNfY29udGVudCIgZGF0YS1zb3VyY2UtbGluZT0iMTQ1IiBkYXRhLXVpZD0ibG5rOTAiIGlkPSJsaW5rX2NvbnRlbnRfc2VydmljZV9wb3N0Z3Jlc19jb250ZW50Ij48cGF0aCBjb2RlTGluZT0iMTQ1IiBkPSJNMjEyNS40LDgzMC42MDY5IEMyMDk2LjQ5LDg0OS4wNjY5IDIwNTQuNzQ3Niw4NzUuNzI4OCAyMDIzLjI4NzYsODk1LjgwODgiIGZpbGw9Im5vbmUiIGlkPSJjb250ZW50X3NlcnZpY2UtdG8tcG9zdGdyZXNfY29udGVudCIgc3R5bGU9InN0cm9rZTojMDAwMDAwO3N0cm9rZS13aWR0aDoxOyIvPjxwb2x5Z29uIGZpbGw9IiMwMDAwMDAiIHBvaW50cz0iMjAxOC4yMyw4OTkuMDM2OSwyMDI3Ljk2ODUsODk3LjU2NjQsMjAyMi40NDQ3LDg5Ni4zNDY4LDIwMjMuNjY0Myw4OTAuODIzLDIwMTguMjMsODk5LjAzNjkiIHN0eWxlPSJzdHJva2U6IzAwMDAwMDtzdHJva2Utd2lkdGg6MTsiLz48L2c+PCEtLWxpbmsgY29udGVudF9zZXJ2aWNlIHRvIGNkbi0tPjxnIGNsYXNzPSJsaW5rIiBkYXRhLWVudGl0eS0xPSJjb250ZW50X3NlcnZpY2UiIGRhdGEtZW50aXR5LTI9ImNkbiIgZGF0YS1zb3VyY2UtbGluZT0iMTQ2IiBkYXRhLXVpZD0ibG5rOTEiIGlkPSJsaW5rX2NvbnRlbnRfc2VydmljZV9jZG4iPjxwYXRoIGNvZGVMaW5lPSIxNDYiIGQ9Ik0yMTU1LjU2LDgzMC42MDY5IEMyMTYwLjIxLDg0OC44OTY5IDIxNjYuMjUwMyw4NzIuNTcyMiAyMTcxLjM2MDMsODkyLjY1MjIiIGZpbGw9Im5vbmUiIGlkPSJjb250ZW50X3NlcnZpY2UtdG8tY2RuIiBzdHlsZT0ic3Ryb2tlOiMwMDAwMDA7c3Ryb2tlLXdpZHRoOjE7Ii8+PHBvbHlnb24gZmlsbD0iIzAwMDAwMCIgcG9pbnRzPSIyMTcyLjg0LDg5OC40NjY5LDIxNzQuNDk2OSw4ODguNzU4NCwyMTcxLjYwNjksODkzLjYyMTMsMjE2Ni43NDQsODkwLjczMTQsMjE3Mi44NCw4OTguNDY2OSIgc3R5bGU9InN0cm9rZTojMDAwMDAwO3N0cm9rZS13aWR0aDoxOyIvPjwvZz48IS0tbGluayByYWdfc2VydmljZSB0byBxZHJhbnQtLT48ZyBjbGFzcz0ibGluayIgZGF0YS1lbnRpdHktMT0icmFnX3NlcnZpY2UiIGRhdGEtZW50aXR5LTI9InFkcmFudCIgZGF0YS1zb3VyY2UtbGluZT0iMTQ3IiBkYXRhLXVpZD0ibG5rOTIiIGlkPSJsaW5rX3JhZ19zZXJ2aWNlX3FkcmFudCI+PHBhdGggY29kZUxpbmU9IjE0NyIgZD0iTTI1NTQuNTcsNjk0LjY1NjkgQzI1MjguMDcsNzA4LjQ1NjkgMjQ5MC4wOCw3MjkuMDc2OSAyNDU4LjM0LDc0OS41NDY5IEMyNDM4LjQ4LDc2Mi4zNTY5IDI0MjEuODcyOSw3NzQuNjAxOSAyNDA1LjY2MjksNzg3LjE2MTkiIGZpbGw9Im5vbmUiIGlkPSJyYWdfc2VydmljZS10by1xZHJhbnQiIHN0eWxlPSJzdHJva2U6IzAwMDAwMDtzdHJva2Utd2lkdGg6MTsiLz48cG9seWdvbiBmaWxsPSIjMDAwMDAwIiBwb2ludHM9IjI0MDAuOTIsNzkwLjgzNjksMjQxMC40ODQzLDc4OC40ODY0LDI0MDQuODcyNCw3ODcuNzc0NCwyNDA1LjU4NDQsNzgyLjE2MjYsMjQwMC45Miw3OTAuODM2OSIgc3R5bGU9InN0cm9rZTojMDAwMDAwO3N0cm9rZS13aWR0aDoxOyIvPjwvZz48IS0tbGluayByYWdfc2VydmljZSB0byBrbm93bGVkZ2VfYmFzZS0tPjxnIGNsYXNzPSJsaW5rIiBkYXRhLWVudGl0eS0xPSJyYWdfc2VydmljZSIgZGF0YS1lbnRpdHktMj0ia25vd2xlZGdlX2Jhc2UiIGRhdGEtc291cmNlLWxpbmU9IjE0OCIgZGF0YS11aWQ9ImxuazkzIiBpZD0ibGlua19yYWdfc2VydmljZV9rbm93bGVkZ2VfYmFzZSI+PHBhdGggY29kZUxpbmU9IjE0OCIgZD0iTTI1NzguOTksNjk0Ljc0NjkgQzI1NjYuODUsNzE5LjAyNjkgMjU0Ny4wMTI1LDc1OC42ODk5IDI1MzMuNjkyNSw3ODUuMzM5OSIgZmlsbD0ibm9uZSIgaWQ9InJhZ19zZXJ2aWNlLXRvLWtub3dsZWRnZV9iYXNlIiBzdHlsZT0ic3Ryb2tlOiMwMDAwMDA7c3Ryb2tlLXdpZHRoOjE7Ii8+PHBvbHlnb24gZmlsbD0iIzAwMDAwMCIgcG9pbnRzPSIyNTMxLjAxLDc5MC43MDY5LDI1MzguNjExNyw3ODQuNDQ0NywyNTMzLjI0NTQsNzg2LjIzNDQsMjUzMS40NTU3LDc4MC44NjgxLDI1MzEuMDEsNzkwLjcwNjkiIHN0eWxlPSJzdHJva2U6IzAwMDAwMDtzdHJva2Utd2lkdGg6MTsiLz48L2c+PCEtLWxpbmsgcmFnX3NlcnZpY2UgdG8gbGxtX2FwaS0tPjxnIGNsYXNzPSJsaW5rIiBkYXRhLWVudGl0eS0xPSJyYWdfc2VydmljZSIgZGF0YS1lbnRpdHktMj0ibGxtX2FwaSIgZGF0YS1zb3VyY2UtbGluZT0iMTQ5IiBkYXRhLXVpZD0ibG5rOTQiIGlkPSJsaW5rX3JhZ19zZXJ2aWNlX2xsbV9hcGkiPjxwYXRoIGNvZGVMaW5lPSIxNDkiIGQ9Ik0yNTk1LjY5LDY5NC43NDY5IEMyNjA3Ljc1LDcxOC44NzY5IDI2MjcuMzk1OSw3NTguMTcwNyAyNjQwLjc1NTksNzg0Ljg4MDciIGZpbGw9Im5vbmUiIGlkPSJyYWdfc2VydmljZS10by1sbG1fYXBpIiBzdHlsZT0ic3Ryb2tlOiMwMDAwMDA7c3Ryb2tlLXdpZHRoOjE7Ii8+PHBvbHlnb24gZmlsbD0iIzAwMDAwMCIgcG9pbnRzPSIyNjQzLjQ0LDc5MC4yNDY5LDI2NDIuOTkxMyw3ODAuNDA4MiwyNjQxLjIwMzMsNzg1Ljc3NTEsMjYzNS44MzY0LDc4My45ODcsMjY0My40NCw3OTAuMjQ2OSIgc3R5bGU9InN0cm9rZTojMDAwMDAwO3N0cm9rZS13aWR0aDoxOyIvPjwvZz48IS0tbGluayBjaGFyYWN0ZXJfc2VydmljZSB0byBuZW80ai0tPjxnIGNsYXNzPSJsaW5rIiBkYXRhLWVudGl0eS0xPSJjaGFyYWN0ZXJfc2VydmljZSIgZGF0YS1lbnRpdHktMj0ibmVvNGoiIGRhdGEtc291cmNlLWxpbmU9IjE1MCIgZGF0YS11aWQ9Imxuazk1IiBpZD0ibGlua19jaGFyYWN0ZXJfc2VydmljZV9uZW80aiI+PHBhdGggY29kZUxpbmU9IjE1MCIgZD0iTTM1MDAuMzQsODMwLjYwNjkgQzM1MDAuMzQsODQ5LjAwNjkgMzUwMC4zNCw4NzIuNzY2OSAzNTAwLjM0LDg5Mi44NDY5IiBmaWxsPSJub25lIiBpZD0iY2hhcmFjdGVyX3NlcnZpY2UtdG8tbmVvNGoiIHN0eWxlPSJzdHJva2U6IzAwMDAwMDtzdHJva2Utd2lkdGg6MTsiLz48cG9seWdvbiBmaWxsPSIjMDAwMDAwIiBwb2ludHM9IjM1MDAuMzQsODk4Ljg0NjksMzUwNC4zNCw4ODkuODQ2OSwzNTAwLjM0LDg5My44NDY5LDM0OTYuMzQsODg5Ljg0NjksMzUwMC4zNCw4OTguODQ2OSIgc3R5bGU9InN0cm9rZTojMDAwMDAwO3N0cm9rZS13aWR0aDoxOyIvPjwvZz48IS0tbGluayBjb21tdW5pdHlfc2VydmljZSB0byBwb3N0Z3Jlc19jb21tdW5pdHktLT48ZyBjbGFzcz0ibGluayIgZGF0YS1lbnRpdHktMT0iY29tbXVuaXR5X3NlcnZpY2UiIGRhdGEtZW50aXR5LTI9InBvc3RncmVzX2NvbW11bml0eSIgZGF0YS1zb3VyY2UtbGluZT0iMTUxIiBkYXRhLXVpZD0ibG5rOTYiIGlkPSJsaW5rX2NvbW11bml0eV9zZXJ2aWNlX3Bvc3RncmVzX2NvbW11bml0eSI+PHBhdGggY29kZUxpbmU9IjE1MSIgZD0iTTMwNDUuMzQsNjk0Ljc0NjkgQzMwNDUuMzQsNzE5LjAyNjkgMzA0NS4zNCw3NTguMDU2OSAzMDQ1LjM0LDc4NC43MDY5IiBmaWxsPSJub25lIiBpZD0iY29tbXVuaXR5X3NlcnZpY2UtdG8tcG9zdGdyZXNfY29tbXVuaXR5IiBzdHlsZT0ic3Ryb2tlOiMwMDAwMDA7c3Ryb2tlLXdpZHRoOjE7Ii8+PHBvbHlnb24gZmlsbD0iIzAwMDAwMCIgcG9pbnRzPSIzMDQ1LjM0LDc5MC43MDY5LDMwNDkuMzQsNzgxLjcwNjksMzA0NS4zNCw3ODUuNzA2OSwzMDQxLjM0LDc4MS43MDY5LDMwNDUuMzQsNzkwLjcwNjkiIHN0eWxlPSJzdHJva2U6IzAwMDAwMDtzdHJva2Utd2lkdGg6MTsiLz48L2c+PCEtLWxpbmsgZmlsZV9zZXJ2aWNlIHRvIGNsb3VkX3N0b3JhZ2UtLT48ZyBjbGFzcz0ibGluayIgZGF0YS1lbnRpdHktMT0iZmlsZV9zZXJ2aWNlIiBkYXRhLWVudGl0eS0yPSJjbG91ZF9zdG9yYWdlIiBkYXRhLXNvdXJjZS1saW5lPSIxNTIiIGRhdGEtdWlkPSJsbms5NyIgaWQ9ImxpbmtfZmlsZV9zZXJ2aWNlX2Nsb3VkX3N0b3JhZ2UiPjxwYXRoIGNvZGVMaW5lPSIxNTIiIGQ9Ik0zMjgzLjM0LDY5NC43NDY5IEMzMjgzLjM0LDcxOC44NzY5IDMyODMuMzQsNzU3LjUzNjkgMzI4My4zNCw3ODQuMjQ2OSIgZmlsbD0ibm9uZSIgaWQ9ImZpbGVfc2VydmljZS10by1jbG91ZF9zdG9yYWdlIiBzdHlsZT0ic3Ryb2tlOiMwMDAwMDA7c3Ryb2tlLXdpZHRoOjE7Ii8+PHBvbHlnb24gZmlsbD0iIzAwMDAwMCIgcG9pbnRzPSIzMjgzLjM0LDc5MC4yNDY5LDMyODcuMzQsNzgxLjI0NjksMzI4My4zNCw3ODUuMjQ2OSwzMjc5LjM0LDc4MS4yNDY5LDMyODMuMzQsNzkwLjI0NjkiIHN0eWxlPSJzdHJva2U6IzAwMDAwMDtzdHJva2Utd2lkdGg6MTsiLz48L2c+PCEtLWxpbmsgbm90aWZpY2F0aW9uX3NlcnZpY2UgdG8gbWVzc2FnZV9xdWV1ZS0tPjxnIGNsYXNzPSJsaW5rIiBkYXRhLWVudGl0eS0xPSJub3RpZmljYXRpb25fc2VydmljZSIgZGF0YS1lbnRpdHktMj0ibWVzc2FnZV9xdWV1ZSIgZGF0YS1zb3VyY2UtbGluZT0iMTUzIiBkYXRhLXVpZD0ibG5rOTgiIGlkPSJsaW5rX25vdGlmaWNhdGlvbl9zZXJ2aWNlX21lc3NhZ2VfcXVldWUiPjxwYXRoIGNvZGVMaW5lPSIxNTMiIGQ9Ik04NzMuMzQsNjk0Ljc0NjkgQzg3My4zNCw3MTkuMDI2OSA4NzMuMzQsNzU4LjA1NjkgODczLjM0LDc4NC43MDY5IiBmaWxsPSJub25lIiBpZD0ibm90aWZpY2F0aW9uX3NlcnZpY2UtdG8tbWVzc2FnZV9xdWV1ZSIgc3R5bGU9InN0cm9rZTojMDAwMDAwO3N0cm9rZS13aWR0aDoxOyIvPjxwb2x5Z29uIGZpbGw9IiMwMDAwMDAiIHBvaW50cz0iODczLjM0LDc5MC43MDY5LDg3Ny4zNCw3ODEuNzA2OSw4NzMuMzQsNzg1LjcwNjksODY5LjM0LDc4MS43MDY5LDg3My4zNCw3OTAuNzA2OSIgc3R5bGU9InN0cm9rZTojMDAwMDAwO3N0cm9rZS13aWR0aDoxOyIvPjwvZz48IS0tbGluayBhdXRoX3NlcnZpY2UgdG8gdXNlcl9zZXJ2aWNlLS0+PGcgY2xhc3M9ImxpbmsiIGRhdGEtZW50aXR5LTE9ImF1dGhfc2VydmljZSIgZGF0YS1lbnRpdHktMj0idXNlcl9zZXJ2aWNlIiBkYXRhLXNvdXJjZS1saW5lPSIxNTYiIGRhdGEtdWlkPSJsbms5OSIgaWQ9ImxpbmtfYXV0aF9zZXJ2aWNlX3VzZXJfc2VydmljZSI+PHBhdGggY29kZUxpbmU9IjE1NiIgZD0iTTExMjUuNSw2OTQuNzQ2OSBDMTE3MC40Niw3MjAuNDk2OSAxMjUxLjAwMzIsNzY2LjYxNTQgMTI5NS45NzMyLDc5Mi4zNjU0IiBmaWxsPSJub25lIiBpZD0iYXV0aF9zZXJ2aWNlLXRvLXVzZXJfc2VydmljZSIgc3R5bGU9InN0cm9rZTojMDAwMDAwO3N0cm9rZS13aWR0aDoxO3N0cm9rZS1kYXNoYXJyYXk6Ny4wLDcuMDsiLz48cG9seWdvbiBmaWxsPSIjMDAwMDAwIiBwb2ludHM9IjEzMDEuMTgsNzk1LjM0NjksMTI5NS4zNTc0LDc4Ny40MDM1LDEyOTYuODQxLDc5Mi44NjIzLDEyOTEuMzgyMSw3OTQuMzQ1OSwxMzAxLjE4LDc5NS4zNDY5IiBzdHlsZT0ic3Ryb2tlOiMwMDAwMDA7c3Ryb2tlLXdpZHRoOjE7Ii8+PHRleHQgZmlsbD0iIzAwMDAwMCIgZm9udC1mYW1pbHk9IlZlcmRhbmEiIGZvbnQtc2l6ZT0iMTMiIGxlbmd0aEFkanVzdD0ic3BhY2luZyIgdGV4dExlbmd0aD0iNTIiIHg9IjEyMDYuMzQiIHk9IjczOS44MzU5Ij4mIzM2NTIzOyYjMjAyMjE7JiMzOTUxMTsmIzM1NjU3OzwvdGV4dD48L2c+PCEtLWxpbmsgbGVhcm5pbmdfc2VydmljZSB0byB1c2VyX3NlcnZpY2UtLT48ZyBjbGFzcz0ibGluayIgZGF0YS1lbnRpdHktMT0ibGVhcm5pbmdfc2VydmljZSIgZGF0YS1lbnRpdHktMj0idXNlcl9zZXJ2aWNlIiBkYXRhLXNvdXJjZS1saW5lPSIxNTciIGRhdGEtdWlkPSJsbmsxMDAiIGlkPSJsaW5rX2xlYXJuaW5nX3NlcnZpY2VfdXNlcl9zZXJ2aWNlIj48cGF0aCBjb2RlTGluZT0iMTU3IiBkPSJNMTcwMC4zMiw2ODkuMjc2OSBDMTYzNy43NSw3MDAuOTA2OSAxNTQxLjY1LDcyMS4zNDY5IDE0NjEuMzQsNzQ5LjU0NjkgQzE0MjUuNDQsNzYyLjE1NjkgMTM5MS42MDgyLDc3OC44MjExIDEzNjUuNTQ4Miw3OTIuNjcxMSIgZmlsbD0ibm9uZSIgaWQ9ImxlYXJuaW5nX3NlcnZpY2UtdG8tdXNlcl9zZXJ2aWNlIiBzdHlsZT0ic3Ryb2tlOiMwMDAwMDA7c3Ryb2tlLXdpZHRoOjE7c3Ryb2tlLWRhc2hhcnJheTo3LjAsNy4wOyIvPjxwb2x5Z29uIGZpbGw9IiMwMDAwMDAiIHBvaW50cz0iMTM2MC4yNSw3OTUuNDg2OSwxMzcwLjA3NDUsNzk0Ljc5NTMsMTM2NC42NjUyLDc5My4xNDA0LDEzNjYuMzIwMSw3ODcuNzMxLDEzNjAuMjUsNzk1LjQ4NjkiIHN0eWxlPSJzdHJva2U6IzAwMDAwMDtzdHJva2Utd2lkdGg6MTsiLz48dGV4dCBmaWxsPSIjMDAwMDAwIiBmb250LWZhbWlseT0iVmVyZGFuYSIgZm9udC1zaXplPSIxMyIgbGVuZ3RoQWRqdXN0PSJzcGFjaW5nIiB0ZXh0TGVuZ3RoPSI1MiIgeD0iMTUzNS4zNCIgeT0iNzM5LjgzNTkiPiYjMjk5OTI7JiMyNTE0MjsmIzM2MDM5OyYjMjYwMDk7PC90ZXh0PjwvZz48IS0tbGluayBsZWFybmluZ19zZXJ2aWNlIHRvIGNvbnRlbnRfc2VydmljZS0tPjxnIGNsYXNzPSJsaW5rIiBkYXRhLWVudGl0eS0xPSJsZWFybmluZ19zZXJ2aWNlIiBkYXRhLWVudGl0eS0yPSJjb250ZW50X3NlcnZpY2UiIGRhdGEtc291cmNlLWxpbmU9IjE1OCIgZGF0YS11aWQ9ImxuazEwMSIgaWQ9ImxpbmtfbGVhcm5pbmdfc2VydmljZV9jb250ZW50X3NlcnZpY2UiPjxwYXRoIGNvZGVMaW5lPSIxNTgiIGQ9Ik0xODEzLjkzLDY5NC42MTY5IEMxODg3Ljk3LDcyMC4zNzY5IDIwMjQuMjEzMyw3NjcuODA1IDIwOTguMTgzMyw3OTMuNTQ1IiBmaWxsPSJub25lIiBpZD0ibGVhcm5pbmdfc2VydmljZS10by1jb250ZW50X3NlcnZpY2UiIHN0eWxlPSJzdHJva2U6IzAwMDAwMDtzdHJva2Utd2lkdGg6MTtzdHJva2UtZGFzaGFycmF5OjcuMCw3LjA7Ii8+PHBvbHlnb24gZmlsbD0iIzAwMDAwMCIgcG9pbnRzPSIyMTAzLjg1LDc5NS41MTY5LDIwOTYuNjY0NSw3ODguNzgxMiwyMDk5LjEyNzcsNzkzLjg3MzYsMjA5NC4wMzUzLDc5Ni4zMzY4LDIxMDMuODUsNzk1LjUxNjkiIHN0eWxlPSJzdHJva2U6IzAwMDAwMDtzdHJva2Utd2lkdGg6MTsiLz48dGV4dCBmaWxsPSIjMDAwMDAwIiBmb250LWZhbWlseT0iVmVyZGFuYSIgZm9udC1zaXplPSIxMyIgbGVuZ3RoQWRqdXN0PSJzcGFjaW5nIiB0ZXh0TGVuZ3RoPSI1MiIgeD0iMTk0Ny4zNCIgeT0iNzM5LjgzNTkiPiYjMzE0NTY7JiMzMTY4MDsmIzIwODM5OyYjMjM0ODE7PC90ZXh0PjwvZz48IS0tbGluayByYWdfc2VydmljZSB0byBjb250ZW50X3NlcnZpY2UtLT48ZyBjbGFzcz0ibGluayIgZGF0YS1lbnRpdHktMT0icmFnX3NlcnZpY2UiIGRhdGEtZW50aXR5LTI9ImNvbnRlbnRfc2VydmljZSIgZGF0YS1zb3VyY2UtbGluZT0iMTU5IiBkYXRhLXVpZD0ibG5rMTAyIiBpZD0ibGlua19yYWdfc2VydmljZV9jb250ZW50X3NlcnZpY2UiPjxwYXRoIGNvZGVMaW5lPSIxNTkiIGQ9Ik0yNTQyLjE0LDY4Ni4zNzY5IEMyNDgzLjY0LDY5Ny43NDY5IDIzNzguOTEsNzIwLjEzNjkgMjI5Mi4zNCw3NDkuNTQ2OSBDMjI1NC4zMSw3NjIuNDY2OSAyMjE3LjgzNDYsNzc5LjA4MDQgMjE4OS42NzQ2LDc5Mi43OTA0IiBmaWxsPSJub25lIiBpZD0icmFnX3NlcnZpY2UtdG8tY29udGVudF9zZXJ2aWNlIiBzdHlsZT0ic3Ryb2tlOiMwMDAwMDA7c3Ryb2tlLXdpZHRoOjE7c3Ryb2tlLWRhc2hhcnJheTo3LjAsNy4wOyIvPjxwb2x5Z29uIGZpbGw9IiMwMDAwMDAiIHBvaW50cz0iMjE4NC4yOCw3OTUuNDE2OSwyMTk0LjEyMjksNzk1LjA3MzYsMjE4OC43NzU1LDc5My4yMjgyLDIxOTAuNjIxLDc4Ny44ODA4LDIxODQuMjgsNzk1LjQxNjkiIHN0eWxlPSJzdHJva2U6IzAwMDAwMDtzdHJva2Utd2lkdGg6MTsiLz48dGV4dCBmaWxsPSIjMDAwMDAwIiBmb250LWZhbWlseT0iVmVyZGFuYSIgZm9udC1zaXplPSIxMyIgbGVuZ3RoQWRqdXN0PSJzcGFjaW5nIiB0ZXh0TGVuZ3RoPSI1MiIgeD0iMjM2NC4zNCIgeT0iNzM5LjgzNTkiPiYjMjU5OTE7JiMyNjQxMjsmIzIwODM5OyYjMjM0ODE7PC90ZXh0PjwvZz48IS0tbGluayByYWdfc2VydmljZSB0byBjaGFyYWN0ZXJfc2VydmljZS0tPjxnIGNsYXNzPSJsaW5rIiBkYXRhLWVudGl0eS0xPSJyYWdfc2VydmljZSIgZGF0YS1lbnRpdHktMj0iY2hhcmFjdGVyX3NlcnZpY2UiIGRhdGEtc291cmNlLWxpbmU9IjE2MCIgZGF0YS11aWQ9ImxuazEwMyIgaWQ9ImxpbmtfcmFnX3NlcnZpY2VfY2hhcmFjdGVyX3NlcnZpY2UiPjxwYXRoIGNvZGVMaW5lPSIxNjAiIGQ9Ik0yNjMyLjQzLDY4My45MjY5IEMyNjk5LjE3LDY5Mi40NzY5IDI4MjguMjMsNzA4LjQyNjkgMjkzOC4zNCw3MTguNTQ2OSBDMzEzOC44NSw3MzYuOTc2OSAzMTk3LjUzLDY5MS40NjY5IDMzOTAuMzQsNzQ5LjU0NjkgQzM0MjMuMTUsNzU5LjQyNjkgMzQ1MS45MDc1LDc3Ny4wMzE5IDM0NzMuMTk3NSw3OTEuOTYxOSIgZmlsbD0ibm9uZSIgaWQ9InJhZ19zZXJ2aWNlLXRvLWNoYXJhY3Rlcl9zZXJ2aWNlIiBzdHlsZT0ic3Ryb2tlOiMwMDAwMDA7c3Ryb2tlLXdpZHRoOjE7c3Ryb2tlLWRhc2hhcnJheTo3LjAsNy4wOyIvPjxwb2x5Z29uIGZpbGw9IiMwMDAwMDAiIHBvaW50cz0iMzQ3OC4xMSw3OTUuNDA2OSwzNDczLjAzNzksNzg2Ljk2NDUsMzQ3NC4wMTYzLDc5Mi41MzYxLDM0NjguNDQ0Nyw3OTMuNTE0NCwzNDc4LjExLDc5NS40MDY5IiBzdHlsZT0ic3Ryb2tlOiMwMDAwMDA7c3Ryb2tlLXdpZHRoOjE7Ii8+PHRleHQgZmlsbD0iIzAwMDAwMCIgZm9udC1mYW1pbHk9IlZlcmRhbmEiIGZvbnQtc2l6ZT0iMTMiIGxlbmd0aEFkanVzdD0ic3BhY2luZyIgdGV4dExlbmd0aD0iNTIiIHg9IjMzNTcuMzQiIHk9IjczOS44MzU5Ij4mIzIwMTU0OyYjMjkyODk7JiMzODM2NDsmIzIwNDE4OzwvdGV4dD48L2c+PCEtLWxpbmsgY29tbXVuaXR5X3NlcnZpY2UgdG8gdXNlcl9zZXJ2aWNlLS0+PGcgY2xhc3M9ImxpbmsiIGRhdGEtZW50aXR5LTE9ImNvbW11bml0eV9zZXJ2aWNlIiBkYXRhLWVudGl0eS0yPSJ1c2VyX3NlcnZpY2UiIGRhdGEtc291cmNlLWxpbmU9IjE2MSIgZGF0YS11aWQ9ImxuazEwNCIgaWQ9ImxpbmtfY29tbXVuaXR5X3NlcnZpY2VfdXNlcl9zZXJ2aWNlIj48cGF0aCBjb2RlTGluZT0iMTYxIiBkPSJNMjk4MC41MSw2OTQuNTc2OSBDMjkxNS44Niw3MTAuMTU2OSAyODEzLjQ4LDczMi40NTY5IDI3MjMuMzQsNzQxLjU0NjkgQzI2NTMuNTgsNzQ4LjU4NjkgMTUyOS42Nyw3MzMuODU2OSAxNDYxLjM0LDc0OS41NDY5IEMxNDIyLjUzLDc1OC40NTY5IDEzODYuODc2NCw3NzcuMDkyMyAxMzYxLjMxNjQsNzkyLjQxMjMiIGZpbGw9Im5vbmUiIGlkPSJjb21tdW5pdHlfc2VydmljZS10by11c2VyX3NlcnZpY2UiIHN0eWxlPSJzdHJva2U6IzAwMDAwMDtzdHJva2Utd2lkdGg6MTtzdHJva2UtZGFzaGFycmF5OjcuMCw3LjA7Ii8+PHBvbHlnb24gZmlsbD0iIzAwMDAwMCIgcG9pbnRzPSIxMzU2LjE3LDc5NS40OTY5LDEzNjUuOTQ2LDc5NC4zMDA5LDEzNjAuNDU4Niw3OTIuOTI2NCwxMzYxLjgzMzIsNzg3LjQzOSwxMzU2LjE3LDc5NS40OTY5IiBzdHlsZT0ic3Ryb2tlOiMwMDAwMDA7c3Ryb2tlLXdpZHRoOjE7Ii8+PHRleHQgZmlsbD0iIzAwMDAwMCIgZm9udC1mYW1pbHk9IlZlcmRhbmEiIGZvbnQtc2l6ZT0iMTMiIGxlbmd0aEFkanVzdD0ic3BhY2luZyIgdGV4dExlbmd0aD0iNTIiIHg9IjI4MjIuMzQiIHk9IjczOS44MzU5Ij4mIzI5OTkyOyYjMjUxNDI7JiMzNjAzOTsmIzI2MDA5OzwvdGV4dD48L2c+PCEtLWxpbmsgbm90aWZpY2F0aW9uX3NlcnZpY2UgdG8gdXNlcl9zZXJ2aWNlLS0+PGcgY2xhc3M9ImxpbmsiIGRhdGEtZW50aXR5LTE9Im5vdGlmaWNhdGlvbl9zZXJ2aWNlIiBkYXRhLWVudGl0eS0yPSJ1c2VyX3NlcnZpY2UiIGRhdGEtc291cmNlLWxpbmU9IjE2MiIgZGF0YS11aWQ9ImxuazEwNSIgaWQ9Imxpbmtfbm90aWZpY2F0aW9uX3NlcnZpY2VfdXNlcl9zZXJ2aWNlIj48cGF0aCBjb2RlTGluZT0iMTYyIiBkPSJNOTE3LjAzLDY5NC41NTY5IEM5MzkuNTgsNzAyLjYyNjkgOTY3LjY3LDcxMS45ODY5IDk5My4zNCw3MTguNTQ2OSBDMTA1MC4xOCw3MzMuMDc2OSAxMDY1LjI0LDczMy4zNTY5IDExMjMuMzQsNzQxLjU0NjkgQzExNTYuOTcsNzQ2LjI4NjkgMTE2Ni42NSw3NDAuMzI2OSAxMTk5LjM0LDc0OS41NDY5IEMxMjM2LjkzLDc2MC4xNTY5IDEyNzEuODAzOCw3NzcuODYxOCAxMjk3LjU5MzgsNzkyLjUyMTgiIGZpbGw9Im5vbmUiIGlkPSJub3RpZmljYXRpb25fc2VydmljZS10by11c2VyX3NlcnZpY2UiIHN0eWxlPSJzdHJva2U6IzAwMDAwMDtzdHJva2Utd2lkdGg6MTtzdHJva2UtZGFzaGFycmF5OjcuMCw3LjA7Ii8+PHBvbHlnb24gZmlsbD0iIzAwMDAwMCIgcG9pbnRzPSIxMzAyLjgxLDc5NS40ODY5LDEyOTYuOTYyNSw3ODcuNTYxOCwxMjk4LjQ2MzIsNzkzLjAxNiwxMjkzLjAwOSw3OTQuNTE2NywxMzAyLjgxLDc5NS40ODY5IiBzdHlsZT0ic3Ryb2tlOiMwMDAwMDA7c3Ryb2tlLXdpZHRoOjE7Ii8+PHRleHQgZmlsbD0iIzAwMDAwMCIgZm9udC1mYW1pbHk9IlZlcmRhbmEiIGZvbnQtc2l6ZT0iMTMiIGxlbmd0aEFkanVzdD0ic3BhY2luZyIgdGV4dExlbmd0aD0iNTIiIHg9IjExMjQuMzQiIHk9IjczOS44MzU5Ij4mIzM2ODkwOyYjMzA2OTM7JiMzNTM3MzsmIzIzNDUwOzwvdGV4dD48L2c+PCEtLWxpbmsgYXV0aF9zZXJ2aWNlIHRvIG9hdXRoX3Byb3ZpZGVycy0tPjxnIGNsYXNzPSJsaW5rIiBkYXRhLWVudGl0eS0xPSJhdXRoX3NlcnZpY2UiIGRhdGEtZW50aXR5LTI9Im9hdXRoX3Byb3ZpZGVycyIgZGF0YS1zb3VyY2UtbGluZT0iMTY1IiBkYXRhLXVpZD0ibG5rMTA2IiBpZD0ibGlua19hdXRoX3NlcnZpY2Vfb2F1dGhfcHJvdmlkZXJzIj48cGF0aCBjb2RlTGluZT0iMTY1IiBkPSJNMTA1NC4xNCw2OTQuNjM2OSBDMTAyOS43Niw3MDMuNDE2OSA5OTguMjgsNzEzLjQyNjkgOTY5LjM0LDcxOC41NDY5IEM5MjcuMjksNzI1Ljk4NjkgODE3LjY1LDcxMi40NTY5IDc3Ny4zNCw3MjYuNTQ2OSBDNzM5LjU4LDczOS43NDY5IDcwNy45NDg3LDc2NS40MTM2IDY4Ni4wOTg3LDc4Ni4wODM2IiBmaWxsPSJub25lIiBpZD0iYXV0aF9zZXJ2aWNlLXRvLW9hdXRoX3Byb3ZpZGVycyIgc3R5bGU9InN0cm9rZTojMDAwMDAwO3N0cm9rZS13aWR0aDoxOyIvPjxwb2x5Z29uIGZpbGw9IiMwMDAwMDAiIHBvaW50cz0iNjgxLjc0LDc5MC4yMDY5LDY5MS4wMjY5LDc4Ni45Mjc3LDY4NS4zNzIzLDc4Ni43NzA4LDY4NS41MjkyLDc4MS4xMTYxLDY4MS43NCw3OTAuMjA2OSIgc3R5bGU9InN0cm9rZTojMDAwMDAwO3N0cm9rZS13aWR0aDoxOyIvPjwvZz48IS0tbGluayBub3RpZmljYXRpb25fc2VydmljZSB0byBlbWFpbF9zZXJ2aWNlLS0+PGcgY2xhc3M9ImxpbmsiIGRhdGEtZW50aXR5LTE9Im5vdGlmaWNhdGlvbl9zZXJ2aWNlIiBkYXRhLWVudGl0eS0yPSJlbWFpbF9zZXJ2aWNlIiBkYXRhLXNvdXJjZS1saW5lPSIxNjYiIGRhdGEtdWlkPSJsbmsxMDciIGlkPSJsaW5rX25vdGlmaWNhdGlvbl9zZXJ2aWNlX2VtYWlsX3NlcnZpY2UiPjxwYXRoIGNvZGVMaW5lPSIxNjYiIGQ9Ik03OTMuMTgsNjkxLjU2NjkgQzY3Ny4xOSw3MTEuMjE2OSA0NzUuNTIsNzQ1Ljc1NjkgNDY4LjM0LDc0OS41NDY5IEM0NDkuOTcsNzU5LjI1NjkgNDM3LjUyNjIsNzcxLjc3MjEgNDI2LjQ1NjIsNzg1LjY4MjEiIGZpbGw9Im5vbmUiIGlkPSJub3RpZmljYXRpb25fc2VydmljZS10by1lbWFpbF9zZXJ2aWNlIiBzdHlsZT0ic3Ryb2tlOiMwMDAwMDA7c3Ryb2tlLXdpZHRoOjE7Ii8+PHBvbHlnb24gZmlsbD0iIzAwMDAwMCIgcG9pbnRzPSI0MjIuNzIsNzkwLjM3NjksNDMxLjQ1NDIsNzg1LjgyNTYsNDI1LjgzMzUsNzg2LjQ2NDYsNDI1LjE5NDUsNzgwLjg0MzksNDIyLjcyLDc5MC4zNzY5IiBzdHlsZT0ic3Ryb2tlOiMwMDAwMDA7c3Ryb2tlLXdpZHRoOjE7Ii8+PC9nPjwhLS1saW5rIG5vdGlmaWNhdGlvbl9zZXJ2aWNlIHRvIHB1c2hfc2VydmljZS0tPjxnIGNsYXNzPSJsaW5rIiBkYXRhLWVudGl0eS0xPSJub3RpZmljYXRpb25fc2VydmljZSIgZGF0YS1lbnRpdHktMj0icHVzaF9zZXJ2aWNlIiBkYXRhLXNvdXJjZS1saW5lPSIxNjciIGRhdGEtdWlkPSJsbmsxMDgiIGlkPSJsaW5rX25vdGlmaWNhdGlvbl9zZXJ2aWNlX3B1c2hfc2VydmljZSI+PHBhdGggY29kZUxpbmU9IjE2NyIgZD0iTTgwMS40Niw2OTQuNjE2OSBDNzY0Ljk5LDcwMy40MDY5IDcyMC4xLDcxNC43OTY5IDY4MC4zNCw3MjYuNTQ2OSBDNjYwLjUyLDczMi40MDY5IDY1Ni4zNiw3MzYuNDY2OSA2MzYuMzQsNzQxLjU0NjkgQzYxNS44LDc0Ni43NTY5IDYwOC4xLDczOS43MDY5IDU4OS4zNCw3NDkuNTQ2OSBDNTcwLjk0LDc1OS4xOTY5IDU1OC41MDI5LDc3MS43MTk1IDU0Ny40MzI5LDc4NS42NDk1IiBmaWxsPSJub25lIiBpZD0ibm90aWZpY2F0aW9uX3NlcnZpY2UtdG8tcHVzaF9zZXJ2aWNlIiBzdHlsZT0ic3Ryb2tlOiMwMDAwMDA7c3Ryb2tlLXdpZHRoOjE7Ii8+PHBvbHlnb24gZmlsbD0iIzAwMDAwMCIgcG9pbnRzPSI1NDMuNyw3OTAuMzQ2OSw1NTIuNDMxLDc4NS43ODk1LDU0Ni44MTA4LDc4Ni40MzI0LDU0Ni4xNjc4LDc4MC44MTIyLDU0My43LDc5MC4zNDY5IiBzdHlsZT0ic3Ryb2tlOiMwMDAwMDA7c3Ryb2tlLXdpZHRoOjE7Ii8+PC9nPjwhLS1saW5rIG1vbml0b3Jpbmdfc3lzIHRvIGF1dGhfc2VydmljZS0tPjxnIGNsYXNzPSJsaW5rIiBkYXRhLWVudGl0eS0xPSJtb25pdG9yaW5nX3N5cyIgZGF0YS1lbnRpdHktMj0iYXV0aF9zZXJ2aWNlIiBkYXRhLXNvdXJjZS1saW5lPSIxNzAiIGRhdGEtdWlkPSJsbmsxMDkiIGlkPSJsaW5rX21vbml0b3Jpbmdfc3lzX2F1dGhfc2VydmljZSI+PHBhdGggY29kZUxpbmU9IjE3MCIgZD0iTTM0MDIuNjIsNTMzLjY0NjkgQzMzOTIuNDcsNTQyLjU1NjkgMzM3OC43Miw1NTIuNjg2OSAzMzY0LjM0LDU1Ny41NDY5IEMzMjkzLjQ5LDU4MS41MTY5IDI3NjYuMTIsNTY4LjYzNjkgMjY5MS4zNCw1NjkuNTQ2OSBDMjYyMy4wMSw1NzAuMzc2OSAxNTI5LjA1LDU2OC4zNDY5IDE0NjEuMzQsNTc3LjU0NjkgQzEzNDQuMTEsNTkzLjQ3NjkgMTIxNi42ODE1LDYzMy44NDg4IDExNDguMTgxNSw2NTcuNDk4OCIgZmlsbD0ibm9uZSIgaWQ9Im1vbml0b3Jpbmdfc3lzLXRvLWF1dGhfc2VydmljZSIgc3R5bGU9InN0cm9rZTojMDAwMDAwO3N0cm9rZS13aWR0aDoxO3N0cm9rZS1kYXNoYXJyYXk6Ny4wLDcuMDsiLz48cG9seWdvbiBmaWxsPSIjMDAwMDAwIiBwb2ludHM9IjExNDIuNTEsNjU5LjQ1NjksMTE1Mi4zMjI2LDY2MC4zMDA3LDExNDcuMjM2Miw2NTcuODI1MSwxMTQ5LjcxMTgsNjUyLjczODcsMTE0Mi41MSw2NTkuNDU2OSIgc3R5bGU9InN0cm9rZTojMDAwMDAwO3N0cm9rZS13aWR0aDoxOyIvPjwvZz48IS0tbGluayBtb25pdG9yaW5nX3N5cyB0byB1c2VyX3NlcnZpY2UtLT48ZyBjbGFzcz0ibGluayIgZGF0YS1lbnRpdHktMT0ibW9uaXRvcmluZ19zeXMiIGRhdGEtZW50aXR5LTI9InVzZXJfc2VydmljZSIgZGF0YS1zb3VyY2UtbGluZT0iMTcxIiBkYXRhLXVpZD0ibG5rMTEwIiBpZD0ibGlua19tb25pdG9yaW5nX3N5c191c2VyX3NlcnZpY2UiPjxwYXRoIGNvZGVMaW5lPSIxNzEiIGQ9Ik0zNDU3LjU4LDUyMy40NzY5IEMzNDgzLjUxLDUzMC4wNDY5IDM1MTUuOTUsNTQzLjA2NjkgMzUzMi4zNCw1NjguNTQ2OSBDMzU3OS45MSw2NDIuNTA2OSAzNTEyLjA4LDY5Ni44NzY5IDM0MzYuMzQsNzQxLjU0NjkgQzM0MTIuNzEsNzU1LjQ4NjkgMTQ4OC4wOCw3NDMuNDM2OSAxNDYxLjM0LDc0OS41NDY5IEMxNDIyLjUyLDc1OC40MTY5IDEzODYuODY1LDc3Ny4wNTk5IDEzNjEuMzE1LDc5Mi4zODk5IiBmaWxsPSJub25lIiBpZD0ibW9uaXRvcmluZ19zeXMtdG8tdXNlcl9zZXJ2aWNlIiBzdHlsZT0ic3Ryb2tlOiMwMDAwMDA7c3Ryb2tlLXdpZHRoOjE7c3Ryb2tlLWRhc2hhcnJheTo3LjAsNy4wOyIvPjxwb2x5Z29uIGZpbGw9IiMwMDAwMDAiIHBvaW50cz0iMTM1Ni4xNyw3OTUuNDc2OSwxMzY1Ljk0NTQsNzk0LjI3NjQsMTM2MC40NTc1LDc5Mi45MDQ0LDEzNjEuODI5NSw3ODcuNDE2NCwxMzU2LjE3LDc5NS40NzY5IiBzdHlsZT0ic3Ryb2tlOiMwMDAwMDA7c3Ryb2tlLXdpZHRoOjE7Ii8+PC9nPjwhLS1saW5rIG1vbml0b3Jpbmdfc3lzIHRvIGxlYXJuaW5nX3NlcnZpY2UtLT48ZyBjbGFzcz0ibGluayIgZGF0YS1lbnRpdHktMT0ibW9uaXRvcmluZ19zeXMiIGRhdGEtZW50aXR5LTI9ImxlYXJuaW5nX3NlcnZpY2UiIGRhdGEtc291cmNlLWxpbmU9IjE3MiIgZGF0YS11aWQ9ImxuazExMSIgaWQ9ImxpbmtfbW9uaXRvcmluZ19zeXNfbGVhcm5pbmdfc2VydmljZSI+PHBhdGggY29kZUxpbmU9IjE3MiIgZD0iTTM0MTMsNTMzLjU5NjkgQzM0MDcuMjksNTQ1Ljk2NjkgMzM5Ny41OSw1NjEuOTc2OSAzMzgzLjM0LDU2OS41NDY5IEMzMzY5Ljk2LDU3Ni42NTY5IDIzMDcuNDIsNTc2LjA4NjkgMjI5Mi4zNCw1NzcuNTQ2OSBDMjEyNS4xOSw1OTMuNjc2OSAxOTM3LjY4NzcsNjM0Ljc1MDYgMTgzOC40Nzc3LDY1OC4zMTA2IiBmaWxsPSJub25lIiBpZD0ibW9uaXRvcmluZ19zeXMtdG8tbGVhcm5pbmdfc2VydmljZSIgc3R5bGU9InN0cm9rZTojMDAwMDAwO3N0cm9rZS13aWR0aDoxO3N0cm9rZS1kYXNoYXJyYXk6Ny4wLDcuMDsiLz48cG9seWdvbiBmaWxsPSIjMDAwMDAwIiBwb2ludHM9IjE4MzIuNjQsNjU5LjY5NjksMTg0Mi4zMjA3LDY2MS41MDkyLDE4MzcuNTA0Nyw2NTguNTQxNiwxODQwLjQ3MjMsNjUzLjcyNTcsMTgzMi42NCw2NTkuNjk2OSIgc3R5bGU9InN0cm9rZTojMDAwMDAwO3N0cm9rZS13aWR0aDoxOyIvPjwvZz48IS0tbGluayBtb25pdG9yaW5nX3N5cyB0byBjb250ZW50X3NlcnZpY2UtLT48ZyBjbGFzcz0ibGluayIgZGF0YS1lbnRpdHktMT0ibW9uaXRvcmluZ19zeXMiIGRhdGEtZW50aXR5LTI9ImNvbnRlbnRfc2VydmljZSIgZGF0YS1zb3VyY2UtbGluZT0iMTczIiBkYXRhLXVpZD0ibG5rMTEyIiBpZD0ibGlua19tb25pdG9yaW5nX3N5c19jb250ZW50X3NlcnZpY2UiPjxwYXRoIGNvZGVMaW5lPSIxNzMiIGQ9Ik0zNDU3LjM2LDUxOS4yODY5IEMzNTE5Ljk3LDUyMy44NjY5IDM2NDAuNDMsNTM2LjY4NjkgMzY2Ni4zNCw1NjguNTQ2OSBDMzcxNC44OCw2MjguMjU2OSAzNzIxLjAzLDY5NS41NTY5IDM2NTkuMzQsNzQxLjU0NjkgQzM2NDQuMTIsNzUyLjg5NjkgMjMxMC45LDc0NS41NTY5IDIyOTIuMzQsNzQ5LjU0NjkgQzIyNTAuOTcsNzU4LjQyNjkgMjIxMi4yMDcsNzc3LjI0NjcgMjE4NC41NjcsNzkyLjU3NjciIGZpbGw9Im5vbmUiIGlkPSJtb25pdG9yaW5nX3N5cy10by1jb250ZW50X3NlcnZpY2UiIHN0eWxlPSJzdHJva2U6IzAwMDAwMDtzdHJva2Utd2lkdGg6MTtzdHJva2UtZGFzaGFycmF5OjcuMCw3LjA7Ii8+PHBvbHlnb24gZmlsbD0iIzAwMDAwMCIgcG9pbnRzPSIyMTc5LjMyLDc5NS40ODY5LDIxODkuMTMwNiw3OTQuNjE5NywyMTgzLjY5MjUsNzkzLjA2MTgsMjE4NS4yNTA0LDc4Ny42MjM2LDIxNzkuMzIsNzk1LjQ4NjkiIHN0eWxlPSJzdHJva2U6IzAwMDAwMDtzdHJva2Utd2lkdGg6MTsiLz48L2c+PCEtLWxpbmsgbW9uaXRvcmluZ19zeXMgdG8gcmFnX3NlcnZpY2UtLT48ZyBjbGFzcz0ibGluayIgZGF0YS1lbnRpdHktMT0ibW9uaXRvcmluZ19zeXMiIGRhdGEtZW50aXR5LTI9InJhZ19zZXJ2aWNlIiBkYXRhLXNvdXJjZS1saW5lPSIxNzQiIGRhdGEtdWlkPSJsbmsxMTMiIGlkPSJsaW5rX21vbml0b3Jpbmdfc3lzX3JhZ19zZXJ2aWNlIj48cGF0aCBjb2RlTGluZT0iMTc0IiBkPSJNMzQyNy4wMiw1MzMuOTg2OSBDMzQzMC45OSw1NDUuNTY2OSAzNDMzLjMzLDU2MC40MDY5IDM0MjQuMzQsNTY5LjU0NjkgQzM0MTQuODcsNTc5LjE3NjkgMjk1MS43LDU3NS41OTY5IDI5MzguMzQsNTc3LjU0NjkgQzI4MjUuNjEsNTk0LjAwNjkgMjcwMy41MzE4LDYzNC4wMDI2IDI2MzcuNjIxOCw2NTcuNDkyNiIgZmlsbD0ibm9uZSIgaWQ9Im1vbml0b3Jpbmdfc3lzLXRvLXJhZ19zZXJ2aWNlIiBzdHlsZT0ic3Ryb2tlOiMwMDAwMDA7c3Ryb2tlLXdpZHRoOjE7c3Ryb2tlLWRhc2hhcnJheTo3LjAsNy4wOyIvPjxwb2x5Z29uIGZpbGw9IiMwMDAwMDAiIHBvaW50cz0iMjYzMS45Nyw2NTkuNTA2OSwyNjQxLjc5MDUsNjYwLjI1MzMsMjYzNi42Nzk4LDY1Ny44MjgzLDI2MzkuMTA0OCw2NTIuNzE3NiwyNjMxLjk3LDY1OS41MDY5IiBzdHlsZT0ic3Ryb2tlOiMwMDAwMDA7c3Ryb2tlLXdpZHRoOjE7Ii8+PC9nPjwhLS1saW5rIG1vbml0b3Jpbmdfc3lzIHRvIGNoYXJhY3Rlcl9zZXJ2aWNlLS0+PGcgY2xhc3M9ImxpbmsiIGRhdGEtZW50aXR5LTE9Im1vbml0b3Jpbmdfc3lzIiBkYXRhLWVudGl0eS0yPSJjaGFyYWN0ZXJfc2VydmljZSIgZGF0YS1zb3VyY2UtbGluZT0iMTc1IiBkYXRhLXVpZD0ibG5rMTE0IiBpZD0ibGlua19tb25pdG9yaW5nX3N5c19jaGFyYWN0ZXJfc2VydmljZSI+PHBhdGggY29kZUxpbmU9IjE3NSIgZD0iTTM0NTcuNDYsNTE3LjUzNjkgQzM1MzMuNjEsNTE5LjM4NjkgMzcwMC4zOSw1MjguMDY2OSAzNzM3LjM0LDU2OC41NDY5IEMzNzg5LjI4LDYyNS40NDY5IDM3OTQuNzcsNjgwLjA2NjkgMzc0OC4zNCw3NDEuNTQ2OSBDMzcyNi43OSw3NzAuMDc2OSAzNjQxLjQ3MjksNzg5LjQzODUgMzU3NS45MjI5LDgwMC43Mjg1IiBmaWxsPSJub25lIiBpZD0ibW9uaXRvcmluZ19zeXMtdG8tY2hhcmFjdGVyX3NlcnZpY2UiIHN0eWxlPSJzdHJva2U6IzAwMDAwMDtzdHJva2Utd2lkdGg6MTtzdHJva2UtZGFzaGFycmF5OjcuMCw3LjA7Ii8+PHBvbHlnb24gZmlsbD0iIzAwMDAwMCIgcG9pbnRzPSIzNTcwLjAxLDgwMS43NDY5LDM1NzkuNTU4Myw4MDQuMTYxMiwzNTc0LjkzNzQsODAwLjg5ODIsMzU3OC4yMDA1LDc5Ni4yNzczLDM1NzAuMDEsODAxLjc0NjkiIHN0eWxlPSJzdHJva2U6IzAwMDAwMDtzdHJva2Utd2lkdGg6MTsiLz48L2c+PCEtLWxpbmsgbW9uaXRvcmluZ19zeXMgdG8gY29tbXVuaXR5X3NlcnZpY2UtLT48ZyBjbGFzcz0ibGluayIgZGF0YS1lbnRpdHktMT0ibW9uaXRvcmluZ19zeXMiIGRhdGEtZW50aXR5LTI9ImNvbW11bml0eV9zZXJ2aWNlIiBkYXRhLXNvdXJjZS1saW5lPSIxNzYiIGRhdGEtdWlkPSJsbmsxMTUiIGlkPSJsaW5rX21vbml0b3Jpbmdfc3lzX2NvbW11bml0eV9zZXJ2aWNlIj48cGF0aCBjb2RlTGluZT0iMTc2IiBkPSJNMzQ0OC43Nyw1MzMuNzU2OSBDMzQ2My43Miw1NDQuMjc2OSAzNDc2LjU4LDU1Ny45OTY5IDM0NjUuMzQsNTY5LjU0NjkgQzM0NTQuMTQsNTgxLjA1NjkgMzE5MS41LDU3Mi4yNDY5IDMxNzYuMzQsNTc3LjU0NjkgQzMxMjguMjUsNTk0LjM0NjkgMzA4Ny41NDIxLDYzMS41MDQ4IDMwNjQuODgyMSw2NTQuOTI0OCIgZmlsbD0ibm9uZSIgaWQ9Im1vbml0b3Jpbmdfc3lzLXRvLWNvbW11bml0eV9zZXJ2aWNlIiBzdHlsZT0ic3Ryb2tlOiMwMDAwMDA7c3Ryb2tlLXdpZHRoOjE7c3Ryb2tlLWRhc2hhcnJheTo3LjAsNy4wOyIvPjxwb2x5Z29uIGZpbGw9IiMwMDAwMDAiIHBvaW50cz0iMzA2MC43MSw2NTkuMjM2OSwzMDY5Ljg0MjgsNjU1LjU1MDIsMzA2NC4xODY3LDY1NS42NDM1LDMwNjQuMDkzNSw2NDkuOTg3NCwzMDYwLjcxLDY1OS4yMzY5IiBzdHlsZT0ic3Ryb2tlOiMwMDAwMDA7c3Ryb2tlLXdpZHRoOjE7Ii8+PC9nPjwhLS1saW5rIG1vbml0b3Jpbmdfc3lzIHRvIGZpbGVfc2VydmljZS0tPjxnIGNsYXNzPSJsaW5rIiBkYXRhLWVudGl0eS0xPSJtb25pdG9yaW5nX3N5cyIgZGF0YS1lbnRpdHktMj0iZmlsZV9zZXJ2aWNlIiBkYXRhLXNvdXJjZS1saW5lPSIxNzciIGRhdGEtdWlkPSJsbmsxMTYiIGlkPSJsaW5rX21vbml0b3Jpbmdfc3lzX2ZpbGVfc2VydmljZSI+PHBhdGggY29kZUxpbmU9IjE3NyIgZD0iTTM0NTcuNTQsNTI0LjY5NjkgQzM0ODcuMDcsNTMyLjUxNjkgMzUyMC42OSw1NDYuNzg2OSAzNTA2LjM0LDU2OS41NDY5IEMzNDc1Ljc5LDYxNy45OTY5IDM0MjIuMjA2NSw2NDMuMTg1MSAzMzcyLjQyNjUsNjU3LjgxNTEiIGZpbGw9Im5vbmUiIGlkPSJtb25pdG9yaW5nX3N5cy10by1maWxlX3NlcnZpY2UiIHN0eWxlPSJzdHJva2U6IzAwMDAwMDtzdHJva2Utd2lkdGg6MTtzdHJva2UtZGFzaGFycmF5OjcuMCw3LjA7Ii8+PHBvbHlnb24gZmlsbD0iIzAwMDAwMCIgcG9pbnRzPSIzMzY2LjY3LDY1OS41MDY5LDMzNzYuNDMyNyw2NjAuODA2OSwzMzcxLjQ2NzEsNjU4LjA5NywzMzc0LjE3NjksNjUzLjEzMTUsMzM2Ni42Nyw2NTkuNTA2OSIgc3R5bGU9InN0cm9rZTojMDAwMDAwO3N0cm9rZS13aWR0aDoxOyIvPjwvZz48IS0tbGluayBsb2dnaW5nX3N5cyB0byBhdXRoX3NlcnZpY2UtLT48ZyBjbGFzcz0ibGluayIgZGF0YS1lbnRpdHktMT0ibG9nZ2luZ19zeXMiIGRhdGEtZW50aXR5LTI9ImF1dGhfc2VydmljZSIgZGF0YS1zb3VyY2UtbGluZT0iMTc5IiBkYXRhLXVpZD0ibG5rMTE3IiBpZD0ibGlua19sb2dnaW5nX3N5c19hdXRoX3NlcnZpY2UiPjxwYXRoIGNvZGVMaW5lPSIxNzkiIGQ9Ik0zMjkxLjYzLDUzMy42ODY5IEMzMjgxLjQ4LDU0Mi42MDY5IDMyNjcuNzMsNTUyLjcyNjkgMzI1My4zNCw1NTcuNTQ2OSBDMzIwNi4xMyw1NzMuMzQ2OSAxNTEwLjY1LDU3MC43MjY5IDE0NjEuMzQsNTc3LjU0NjkgQzEzNDQuMTQsNTkzLjc0NjkgMTIxNi43MDM2LDYzNC4wMTQ5IDExNDguMTkzNiw2NTcuNTg0OSIgZmlsbD0ibm9uZSIgaWQ9ImxvZ2dpbmdfc3lzLXRvLWF1dGhfc2VydmljZSIgc3R5bGU9InN0cm9rZTojMDAwMDAwO3N0cm9rZS13aWR0aDoxO3N0cm9rZS1kYXNoYXJyYXk6Ny4wLDcuMDsiLz48cG9seWdvbiBmaWxsPSIjMDAwMDAwIiBwb2ludHM9IjExNDIuNTIsNjU5LjUzNjksMTE1Mi4zMzE3LDY2MC4zOTE0LDExNDcuMjQ4LDY1Ny45MTAzLDExNDkuNzI5MSw2NTIuODI2NiwxMTQyLjUyLDY1OS41MzY5IiBzdHlsZT0ic3Ryb2tlOiMwMDAwMDA7c3Ryb2tlLXdpZHRoOjE7Ii8+PC9nPjwhLS1saW5rIGxvZ2dpbmdfc3lzIHRvIHVzZXJfc2VydmljZS0tPjxnIGNsYXNzPSJsaW5rIiBkYXRhLWVudGl0eS0xPSJsb2dnaW5nX3N5cyIgZGF0YS1lbnRpdHktMj0idXNlcl9zZXJ2aWNlIiBkYXRhLXNvdXJjZS1saW5lPSIxODAiIGRhdGEtdWlkPSJsbmsxMTgiIGlkPSJsaW5rX2xvZ2dpbmdfc3lzX3VzZXJfc2VydmljZSI+PHBhdGggY29kZUxpbmU9IjE4MCIgZD0iTTMzMzEuMjgsNTMzLjYyNjkgQzMzNTUuMjIsNTUwLjk4NjkgMzM4OS40Myw1NzUuOTU2OSAzMzkwLjM0LDU3Ny41NDY5IEMzNDI2LjU2LDY0MS4xNDY5IDM0NTYuOTksNjg5LjY4NjkgMzQwNS4zNCw3NDEuNTQ2OSBDMzM5NS44MSw3NTEuMTE2OSAxNDc0LjUsNzQ2LjUzNjkgMTQ2MS4zNCw3NDkuNTQ2OSBDMTQyMi41Miw3NTguNDE2OSAxMzg2Ljg2NSw3NzcuMDU5OSAxMzYxLjMxNSw3OTIuMzg5OSIgZmlsbD0ibm9uZSIgaWQ9ImxvZ2dpbmdfc3lzLXRvLXVzZXJfc2VydmljZSIgc3R5bGU9InN0cm9rZTojMDAwMDAwO3N0cm9rZS13aWR0aDoxO3N0cm9rZS1kYXNoYXJyYXk6Ny4wLDcuMDsiLz48cG9seWdvbiBmaWxsPSIjMDAwMDAwIiBwb2ludHM9IjEzNTYuMTcsNzk1LjQ3NjksMTM2NS45NDU0LDc5NC4yNzY0LDEzNjAuNDU3NSw3OTIuOTA0NCwxMzYxLjgyOTUsNzg3LjQxNjQsMTM1Ni4xNyw3OTUuNDc2OSIgc3R5bGU9InN0cm9rZTojMDAwMDAwO3N0cm9rZS13aWR0aDoxOyIvPjwvZz48IS0tbGluayBsb2dnaW5nX3N5cyB0byBsZWFybmluZ19zZXJ2aWNlLS0+PGcgY2xhc3M9ImxpbmsiIGRhdGEtZW50aXR5LTE9ImxvZ2dpbmdfc3lzIiBkYXRhLWVudGl0eS0yPSJsZWFybmluZ19zZXJ2aWNlIiBkYXRhLXNvdXJjZS1saW5lPSIxODEiIGRhdGEtdWlkPSJsbmsxMTkiIGlkPSJsaW5rX2xvZ2dpbmdfc3lzX2xlYXJuaW5nX3NlcnZpY2UiPjxwYXRoIGNvZGVMaW5lPSIxODEiIGQ9Ik0zMjkxLjYyLDUzMy42MzY5IEMzMjgxLjQ2LDU0Mi41MzY5IDMyNjcuNzEsNTUyLjY1NjkgMzI1My4zNCw1NTcuNTQ2OSBDMzIwMi43OCw1NzQuNzM2OSAyMzQ1LjQ2LDU3Mi4wNTY5IDIyOTIuMzQsNTc3LjU0NjkgQzIxMjUuMyw1OTQuODA2OSAxOTM3Ljc2MjUsNjM1LjQzMTIgMTgzOC41MTI1LDY1OC42MzEyIiBmaWxsPSJub25lIiBpZD0ibG9nZ2luZ19zeXMtdG8tbGVhcm5pbmdfc2VydmljZSIgc3R5bGU9InN0cm9rZTojMDAwMDAwO3N0cm9rZS13aWR0aDoxO3N0cm9rZS1kYXNoYXJyYXk6Ny4wLDcuMDsiLz48cG9seWdvbiBmaWxsPSIjMDAwMDAwIiBwb2ludHM9IjE4MzIuNjcsNjU5Ljk5NjksMTg0Mi4zNDQyLDY2MS44NDMzLDE4MzcuNTM4OCw2NTguODU4OCwxODQwLjUyMzMsNjU0LjA1MzMsMTgzMi42Nyw2NTkuOTk2OSIgc3R5bGU9InN0cm9rZTojMDAwMDAwO3N0cm9rZS13aWR0aDoxOyIvPjwvZz48IS0tbGluayBsb2dnaW5nX3N5cyB0byBjb250ZW50X3NlcnZpY2UtLT48ZyBjbGFzcz0ibGluayIgZGF0YS1lbnRpdHktMT0ibG9nZ2luZ19zeXMiIGRhdGEtZW50aXR5LTI9ImNvbnRlbnRfc2VydmljZSIgZGF0YS1zb3VyY2UtbGluZT0iMTgyIiBkYXRhLXVpZD0ibG5rMTIwIiBpZD0ibGlua19sb2dnaW5nX3N5c19jb250ZW50X3NlcnZpY2UiPjxwYXRoIGNvZGVMaW5lPSIxODIiIGQ9Ik0zMzI3LjA4LDUzMy41NjY5IEMzMzM3LjQzLDU0MS44OTY5IDMzNTAuODgsNTUxLjQ3NjkgMzM2NC4zNCw1NTcuNTQ2OSBDMzQwMS4zLDU3NC4yMDY5IDM0MjguMDEsNTQ1Ljg5NjkgMzQ1My4zNCw1NzcuNTQ2OSBDMzQ5OC44OCw2MzQuNDU2OSAzNTA0LjcsNjg5LjgyNjkgMzQ1My4zNCw3NDEuNTQ2OSBDMzQ0MS45Nyw3NTIuOTg2OSAyMzA4LjEsNzQ2LjE1NjkgMjI5Mi4zNCw3NDkuNTQ2OSBDMjI1MC45OCw3NTguNDQ2OSAyMjEyLjIwNzgsNzc3LjI2ODIgMjE4NC41Njc4LDc5Mi41ODgyIiBmaWxsPSJub25lIiBpZD0ibG9nZ2luZ19zeXMtdG8tY29udGVudF9zZXJ2aWNlIiBzdHlsZT0ic3Ryb2tlOiMwMDAwMDA7c3Ryb2tlLXdpZHRoOjE7c3Ryb2tlLWRhc2hhcnJheTo3LjAsNy4wOyIvPjxwb2x5Z29uIGZpbGw9IiMwMDAwMDAiIHBvaW50cz0iMjE3OS4zMiw3OTUuNDk2OSwyMTg5LjEzMDgsNzk0LjYzMjQsMjE4My42OTMyLDc5My4wNzMsMjE4NS4yNTI2LDc4Ny42MzUzLDIxNzkuMzIsNzk1LjQ5NjkiIHN0eWxlPSJzdHJva2U6IzAwMDAwMDtzdHJva2Utd2lkdGg6MTsiLz48L2c+PCEtLWxpbmsgbG9nZ2luZ19zeXMgdG8gcmFnX3NlcnZpY2UtLT48ZyBjbGFzcz0ibGluayIgZGF0YS1lbnRpdHktMT0ibG9nZ2luZ19zeXMiIGRhdGEtZW50aXR5LTI9InJhZ19zZXJ2aWNlIiBkYXRhLXNvdXJjZS1saW5lPSIxODMiIGRhdGEtdWlkPSJsbmsxMjEiIGlkPSJsaW5rX2xvZ2dpbmdfc3lzX3JhZ19zZXJ2aWNlIj48cGF0aCBjb2RlTGluZT0iMTgzIiBkPSJNMzI5MS4wNSw1MzMuODE2OSBDMzI4MC45Miw1NDIuNTQ2OSAzMjY3LjM4LDU1Mi40MzY5IDMyNTMuMzQsNTU3LjU0NjkgQzMyMjAuMzgsNTY5LjUzNjkgMjk3Mi45MSw1NzEuNjY2OSAyOTM4LjM0LDU3Ny41NDY5IEMyODI2LjE4LDU5Ni42MjY5IDI3MDQuMTU2NSw2MzUuNTMzMiAyNjM4LjAzNjUsNjU4LjE3MzIiIGZpbGw9Im5vbmUiIGlkPSJsb2dnaW5nX3N5cy10by1yYWdfc2VydmljZSIgc3R5bGU9InN0cm9rZTojMDAwMDAwO3N0cm9rZS13aWR0aDoxO3N0cm9rZS1kYXNoYXJyYXk6Ny4wLDcuMDsiLz48cG9seWdvbiBmaWxsPSIjMDAwMDAwIiBwb2ludHM9IjI2MzIuMzYsNjYwLjExNjksMjY0Mi4xNzA1LDY2MC45ODU3LDI2MzcuMDkwNCw2NTguNDk3MiwyNjM5LjU3ODksNjUzLjQxNzEsMjYzMi4zNiw2NjAuMTE2OSIgc3R5bGU9InN0cm9rZTojMDAwMDAwO3N0cm9rZS13aWR0aDoxOyIvPjwvZz48IS0tbGluayBsb2dnaW5nX3N5cyB0byBjaGFyYWN0ZXJfc2VydmljZS0tPjxnIGNsYXNzPSJsaW5rIiBkYXRhLWVudGl0eS0xPSJsb2dnaW5nX3N5cyIgZGF0YS1lbnRpdHktMj0iY2hhcmFjdGVyX3NlcnZpY2UiIGRhdGEtc291cmNlLWxpbmU9IjE4NCIgZGF0YS11aWQ9ImxuazEyMiIgaWQ9ImxpbmtfbG9nZ2luZ19zeXNfY2hhcmFjdGVyX3NlcnZpY2UiPjxwYXRoIGNvZGVMaW5lPSIxODQiIGQ9Ik0zMzI2LjYxLDUzMy44OTY5IEMzMzM2LjkyLDU0Mi40MTY5IDMzNTAuNDksNTUyLjA5NjkgMzM2NC4zNCw1NTcuNTQ2OSBDMzM5Ny42OCw1NzAuNjc2OSAzNTAwLjYyLDU1MC42ODY5IDM1MjQuMzQsNTc3LjU0NjkgQzM1NzkuODYsNjQwLjQzNjkgMzUzMy44MDAxLDc0Ny42MzQgMzUxMi4xNjAxLDc4OS45ODQiIGZpbGw9Im5vbmUiIGlkPSJsb2dnaW5nX3N5cy10by1jaGFyYWN0ZXJfc2VydmljZSIgc3R5bGU9InN0cm9rZTojMDAwMDAwO3N0cm9rZS13aWR0aDoxO3N0cm9rZS1kYXNoYXJyYXk6Ny4wLDcuMDsiLz48cG9seWdvbiBmaWxsPSIjMDAwMDAwIiBwb2ludHM9IjM1MDkuNDMsNzk1LjMyNjksMzUxNy4wODcxLDc4OS4xMzI2LDM1MTEuNzA1MSw3OTAuODc0NSwzNTA5Ljk2MzIsNzg1LjQ5MjUsMzUwOS40Myw3OTUuMzI2OSIgc3R5bGU9InN0cm9rZTojMDAwMDAwO3N0cm9rZS13aWR0aDoxOyIvPjwvZz48IS0tbGluayBsb2dnaW5nX3N5cyB0byBjb21tdW5pdHlfc2VydmljZS0tPjxnIGNsYXNzPSJsaW5rIiBkYXRhLWVudGl0eS0xPSJsb2dnaW5nX3N5cyIgZGF0YS1lbnRpdHktMj0iY29tbXVuaXR5X3NlcnZpY2UiIGRhdGEtc291cmNlLWxpbmU9IjE4NSIgZGF0YS11aWQ9ImxuazEyMyIgaWQ9ImxpbmtfbG9nZ2luZ19zeXNfY29tbXVuaXR5X3NlcnZpY2UiPjxwYXRoIGNvZGVMaW5lPSIxODUiIGQ9Ik0zMjg5LjY0LDUzMy42MDY5IEMzMjc5LjUsNTQxLjgzNjkgMzI2Ni40LDU1MS4zMjY5IDMyNTMuMzQsNTU3LjU0NjkgQzMyMjEuNDEsNTcyLjc0NjkgMzIwOC4xOCw1NjIuMTg2OSAzMTc2LjM0LDU3Ny41NDY5IEMzMTMxLjQ5LDU5OS4xNzY5IDMwOTEuMTU1LDYzMy4yMDM5IDMwNjcuMzI1LDY1NS4xMzM5IiBmaWxsPSJub25lIiBpZD0ibG9nZ2luZ19zeXMtdG8tY29tbXVuaXR5X3NlcnZpY2UiIHN0eWxlPSJzdHJva2U6IzAwMDAwMDtzdHJva2Utd2lkdGg6MTtzdHJva2UtZGFzaGFycmF5OjcuMCw3LjA7Ii8+PHBvbHlnb24gZmlsbD0iIzAwMDAwMCIgcG9pbnRzPSIzMDYyLjkxLDY1OS4xOTY5LDMwNzIuMjQxMSw2NTYuMDQ1NywzMDY2LjU4OTIsNjU1LjgxMTEsMzA2Ni44MjM4LDY1MC4xNTkxLDMwNjIuOTEsNjU5LjE5NjkiIHN0eWxlPSJzdHJva2U6IzAwMDAwMDtzdHJva2Utd2lkdGg6MTsiLz48L2c+PCEtLWxpbmsgbG9nZ2luZ19zeXMgdG8gZmlsZV9zZXJ2aWNlLS0+PGcgY2xhc3M9ImxpbmsiIGRhdGEtZW50aXR5LTE9ImxvZ2dpbmdfc3lzIiBkYXRhLWVudGl0eS0yPSJmaWxlX3NlcnZpY2UiIGRhdGEtc291cmNlLWxpbmU9IjE4NiIgZGF0YS11aWQ9ImxuazEyNCIgaWQ9ImxpbmtfbG9nZ2luZ19zeXNfZmlsZV9zZXJ2aWNlIj48cGF0aCBjb2RlTGluZT0iMTg2IiBkPSJNMzI4Ny45Nyw1MzMuOTE2OSBDMzI3OC41NCw1NDMuMDU2OSAzMjY4LjM0LDU1NS4yMDY5IDMyNjMuMzQsNTY4LjU0NjkgQzMyNTEuNzMsNTk5LjQ2NjkgMzI2Mi42NTg1LDYzMi41NTQxIDMyNzIuNDM4NSw2NTQuMDg0MSIgZmlsbD0ibm9uZSIgaWQ9ImxvZ2dpbmdfc3lzLXRvLWZpbGVfc2VydmljZSIgc3R5bGU9InN0cm9rZTojMDAwMDAwO3N0cm9rZS13aWR0aDoxO3N0cm9rZS1kYXNoYXJyYXk6Ny4wLDcuMDsiLz48cG9seWdvbiBmaWxsPSIjMDAwMDAwIiBwb2ludHM9IjMyNzQuOTIsNjU5LjU0NjksMzI3NC44Mzk3LDY0OS42OTgzLDMyNzIuODUyMSw2NTQuOTk0NSwzMjY3LjU1NTksNjUzLjAwNywzMjc0LjkyLDY1OS41NDY5IiBzdHlsZT0ic3Ryb2tlOiMwMDAwMDA7c3Ryb2tlLXdpZHRoOjE7Ii8+PC9nPjwhLS1TUkM9W1pMWFJLbkg3NTd4Vk5wN1g5S193YjJTVktlTU9NNVJYbFBCTmdNUXN0UHFtRXh0c3A4ZktvWWdDZWFqR2YxSk1lOVk4V1IyMm9vSzgySDNYcC1uU3piLWFmdGpjamMtcHdlRU5Ganp0LWpwY3o4VFYtTExPV3FSVDBSUFIwZXczOWNoc05Ua2piNGhVa0V0TTBHT3JPbW5PdW5NQzZjdnYxM2E4Nm5ETHN1VVM3S0ZCMXN4NVdTUkY5T0Z5RVlfWDdSakl6U1VTMWNITVhDaUdDeWtPR3cyYlV2b2xDbDMxNkYwNmtoOGNXUWt1QVdDeUprX1dsTGFFUWZHN2tQZzRJU2dBQ3VIOUZlY2hhY194OUFfZXV0Sk9WWDVFaHlUUkt6N1VTUklfNl92LTRBeEYxaWlqdXVtSGQ2bzVvcS0zc1FMZWZYYWtWb1lMd2tHZ0s4NzZLMzNwRERoUzNkUE5YbXBXNlJTbVNkdGVQVzdyb3BPS2pwVTJoTlZUdXpkZXVzN2x4VnRVY3RVS0MwNFQyek1XTUlWRVA0Z3FUMW5DaHlOanUtM0hobm01REZtZ25IazZwRVp6cklCMHVFNUtsRDhFdHZuSVUxYnVySjQ0UzVhNjF1bEZJQXdTT21uMWNTbzVEZlJYSS03SUtWcFc0bzU1ZEdLLTZqa3kzUklLaTNhVnhFb29NbDg0Z3NoM0VzR1lOTHpCWXpqcHlNUWhVX0d5YzVzQ0xhLTJmdG84ZjVRclhjbHhhcmZnei1XZWNkZFZVeGRTRlZzNXoydGtCRkZLQWZhTm91Vk9UQTRfV1YydXJhS21ES2t5bkVyRWlGTUE4dGxHenFiZkZDUXZuX0xfLURlYnVvQm11R0lPcDhRV21sdmZFYzBJdWRHSXM5Wm9RNVFDa2NzY1NBS0Vfc243MnhsSHJhZXFfdVlyMXBNSTYxSlN0c19aX3NRMm14cnVQT05ZNzBKQXZYWG1XNmoxaDRwOHFkb3VWcC1TTW0tUTF5bWhrVHJxeDloam96MkhncFRrbmFrQnNWS01tZndHVVZ2RFA3ZE5SMGlaMy04eGpXTXpENl93TXF3OVpwUXhudnp3eHJfNmRIZDZ2SVVRV0hYRjdaLTI4MERaTXkydGFNbFNQOVZxb1VjakVKTlZDS0N0T0RkczJDN3BBRDU3NkFSM0ppdTladnZKdFpyRG1ENTJFc21VaTJQbTBKVjhWT0MzX2U0V1pDbDA5TzFhcWVNOEFSaXV1Y2w4eW9pT3RobS1RYjBsNXl2SkxmcVRVc1AyQm1tdXdGbVJkSnhkR2RLV20yeHhnV1U0RXZnWVgzWHB3WFY1Y2hrR3V5dFM1M09kUHV3R3RTMXRIczFnaXZyVTN4T0ViVlBPVDBkeFdyQ1VPUTJZOWNLLWxZWnRwOVVTVWtlYTl3VFJPRUoyNUpBOVA5R2pPeldaZ3lMWkR2UUJ2dDN1NGJreU45OE9WQVFkRHVPbDZqLXY1VGs1RVJ1dWNVamJ5WHh3bmUtNFpsQUhrcXFGRE1ab00yUTN6aVRRdEZhakVEZ2F1NzROSkpZbU44NWNXZjVKM2JQUmxHVmpxVDdCMWJjMVJCZ1NjYWRNTnM3QV8zQmRVdmtseVM3VHBNMVlLdERvU0lNa0dGSkRKeVA1M0VoTGgwdmtTYkl5OHJQRmVmRExPVnB3WnpKMDBLblhxam5idjItU2xDbzlFZGtmZkozbVM2Q1hONmFnTnl5anN1NjM4Xy1VODhnLTZ5Z01HeV9jZGx3SHg2MzJQRGFjOXdSN0pXZTN4S3N6OGhGNlhVV1l0eHdMRldRM0d4dDI4T0t1MUhWNWZSdkM3ZVo0LVZLNlIzMVlaUHNPanZFSkQ2SlhNUUlKcFdLQnh2QTFTdTRaQWU2aG9QQ01GZmxsZGhtRTVqYUJZeld4WUQ0VGN5WEtacVZ0N2tudFptenVmcExXRXFCU0FKQVNRdVZGRW5vb3RsM3d4b0NWUUZKd0p3ODNVbFRkZXVDRW9tb0hTSzR1c1NJQVY2TFc5a09haUViRFVlaHNVeGFNUnBwWHUwd2dMMGdtbElWUnlTUGdWRmVmRmNHdzBjQUNpRWNKQnRLeU1WdWF2Z3lEOWhFUDhra3JOYUlsN1dPeFN0NXBleUdCUUVGQ2NNX3h5aFpLNXloOVVMeTd2dC1adnVCZzVLc1NqZktDaWVPTHBQOUFiT253N0lnMkhCcjl5a1RidmxHdzZSMWVfbzZQWTE4ZDg1YXNnS1lLcHFMSGdCM3c4YjBzS1RjTkRvMWV4ZDJIbzVOWG4yblZMU05PaHdqZ2FZZ2gwQ0pRZ2NQalRUTGhYRDdXQktCYjVRbEtZVVBFQmVBTG1XY3dMM09BNGIzZmJRb3hyOXc4c2FIanZtMmt5V0lndGtLTkk0TzhFcHdQWlFtOFNWRG5sRlN1UjJxSEtUMlI4WGpaaFNJTjhWdFVVRTdENXVBUUhQYWhicUE0dkZmRzJ2Q3FmNUdxcUxDY3I3SVdIOVRuNVFMZGdKQUlab0tEOTlpcG9RRnFXNWdQb2IyZ0JtVVFsVWZ5NHJZU21ia2dVenllSjdvXy1Fd25sVGV6VUhGbFZNSXdJLXBVc1JGWXUxaGQzRnU3RWhLQjZXQnhXT2VEWVB1V2p1MW1Eano2c3JEQ3dtaXJyU0YzcmtEbS1LQ0hOMmR6RU9ETmNmaHdWb3VCUlFLcjlBUFlzN3lqcUJmcEdnN2VPdjRiR001TkhKckcyMUY0MDhhWHJHM2lUbDU5Zm9hOElxblo1X1FPbmd3aUNXcjZ0Y09RMkJfR1Qxd0tkUVF6SGJ2aDZmMnVzSlpIZWJQM0RXZ2JhOHJBN01JME4wSlBwYlQwdUloZmd6eGJ0Nks0ZF9aX10tLT48L2c+PC9zdmc+;" vertex="1" parent="1">
            <mxGeometry x="-530" y="-360" width="3801" height="990" as="geometry" />
          </mxCell>
        </UserObject>
      </root>
    </mxGraphModel>
  </diagram>
</mxfile>
